<svg xmlns="http://www.w3.org/2000/svg" width="100%" viewBox="0 0 641.96 438.00" style="max-width: 641.96px; background-color: transparent;" font-family="&quot;trebuchet ms&quot;, verdana, arial, sans-serif" font-size="16.00">
  <defs>
    <marker id="arrowhead" viewBox="0 0 10.00 10.00" refX="5.00" refY="5.00" markerWidth="8.00" markerHeight="8.00" orient="auto-start-reverse" markerUnits="userSpaceOnUse">
      <path d="M 0 0 L 10.00 5.00 L 0 10.00 z" fill="#333" />
    </marker>
    <marker id="crosshead" viewBox="0 0 11.00 11.00" refX="12.00" refY="5.20" markerWidth="11.00" markerHeight="11.00" orient="auto-start-reverse" markerUnits="userSpaceOnUse">
      <path d="M 1,1 l 9,9 M 10,1 l -9,9" stroke="#333" stroke-width="2" />
    </marker>
    <marker id="circlehead" viewBox="0 0 10.00 10.00" refX="11.00" refY="5.00" markerWidth="11.00" markerHeight="11.00" orient="auto-start-reverse" markerUnits="userSpaceOnUse">
      <circle cx="5" cy="5" r="5" stroke="#333" stroke-width="1" fill="#333" />
    </marker>
    <marker id="open-arrowhead" viewBox="0 0 10.00 10.00" refX="5.00" refY="5.00" markerWidth="8.00" markerHeight="8.00" orient="auto-start-reverse" markerUnits="userSpaceOnUse">
      <polygon points="0,0 10.00,5.00 0,10.00" fill="white" stroke="#333" stroke-width="1" />
    </marker>
    <marker id="diamondhead" viewBox="0 0 12.00 12.00" refX="6.00" refY="6.00" markerWidth="12.00" markerHeight="12.00" orient="auto-start-reverse" markerUnits="userSpaceOnUse">
      <polygon points="0,6.00 6.00,0 12.00,6.00 6.00,12.00" fill="#333" />
    </marker>
    <marker id="open-diamondhead" viewBox="0 0 12.00 12.00" refX="6.00" refY="6.00" markerWidth="12.00" markerHeight="12.00" orient="auto-start-reverse" markerUnits="userSpaceOnUse">
      <polygon points="0,6.00 6.00,0 12.00,6.00 6.00,12.00" fill="white" stroke="#333" stroke-width="1" />
    </marker>
  </defs>
  <g transform="translate(0.00,0.00)">
    <g class="edgePaths">
      <path d="M260.10,210.00 L260.10,211.67 C260.10,213.33 260.10,216.67 233.94,221.50 C207.78,226.33 155.46,232.67 129.30,238.67 C103.15,244.67 103.15,250.33 103.15,253.17 L103.15,256.00" stroke="#333" stroke-width="1.00" fill="none" stroke-linecap="round" stroke-linejoin="round" marker-start="url(#open-arrowhead)" />
      <path d="M336.20,210.00 L336.20,256.00" stroke="#333" stroke-width="1.00" fill="none" stroke-linecap="round" stroke-linejoin="round" marker-start="url(#open-arrowhead)" />
      <path d="M412.30,210.00 L412.30,211.67 C412.30,213.33 412.30,216.67 435.92,221.50 C459.54,226.33 506.79,232.67 530.41,238.67 C554.03,244.67 554.03,250.33 554.03,253.17 L554.03,256.00" stroke="#333" stroke-width="1.00" fill="none" stroke-linecap="round" stroke-linejoin="round" marker-start="url(#open-arrowhead)" />
    </g>
    <g class="edgeLabels">
    </g>
    <g class="nodes">
      <rect x="252.10" y="8.00" width="168.20" height="198.00" fill="white" stroke="#333" stroke-width="1.00" stroke-linejoin="round" />
      <text x="336.20" y="35.00" text-anchor="middle" dominant-baseline="middle" fill="#333">Animal</text>
      <line x1="252.10" y1="59.00" x2="420.30" y2="59.00" stroke="#333" stroke-width="1.00" />
      <text x="267.10" y="83.00" text-anchor="start" dominant-baseline="middle" fill="#333">+int age</text>
      <text x="267.10" y="107.00" text-anchor="start" dominant-baseline="middle" fill="#333">+String gender</text>
      <line x1="252.10" y1="131.00" x2="420.30" y2="131.00" stroke="#333" stroke-width="1.00" />
      <text x="267.10" y="155.00" text-anchor="start" dominant-baseline="middle" fill="#333">+isMammal()</text>
      <text x="267.10" y="179.00" text-anchor="start" dominant-baseline="middle" fill="#333">+mate()</text>
      <rect x="8.00" y="256.00" width="190.29" height="174.00" fill="white" stroke="#333" stroke-width="1.00" stroke-linejoin="round" />
      <text x="103.15" y="283.00" text-anchor="middle" dominant-baseline="middle" fill="#333">Duck</text>
      <line x1="8.00" y1="307.00" x2="198.29" y2="307.00" stroke="#333" stroke-width="1.00" />
      <text x="23.00" y="331.00" text-anchor="start" dominant-baseline="middle" fill="#333">+String beakColor</text>
      <line x1="8.00" y1="355.00" x2="198.29" y2="355.00" stroke="#333" stroke-width="1.00" />
      <text x="23.00" y="379.00" text-anchor="start" dominant-baseline="middle" fill="#333">+swim()</text>
      <text x="23.00" y="403.00" text-anchor="start" dominant-baseline="middle" fill="#333">+quack()</text>
      <rect x="248.29" y="256.00" width="175.81" height="150.00" fill="white" stroke="#333" stroke-width="1.00" stroke-linejoin="round" />
      <text x="336.20" y="283.00" text-anchor="middle" dominant-baseline="middle" fill="#333">Fish</text>
      <line x1="248.29" y1="307.00" x2="424.11" y2="307.00" stroke="#333" stroke-width="1.00" />
      <text x="263.29" y="331.00" text-anchor="start" dominant-baseline="middle" fill="#333">-int sizeInFeet</text>
      <line x1="248.29" y1="355.00" x2="424.11" y2="355.00" stroke="#333" stroke-width="1.00" />
      <text x="263.29" y="379.00" text-anchor="start" dominant-baseline="middle" fill="#333">-canEat()</text>
      <rect x="474.11" y="256.00" width="159.85" height="150.00" fill="white" stroke="#333" stroke-width="1.00" stroke-linejoin="round" />
      <text x="554.03" y="283.00" text-anchor="middle" dominant-baseline="middle" fill="#333">Zebra</text>
      <line x1="474.11" y1="307.00" x2="633.96" y2="307.00" stroke="#333" stroke-width="1.00" />
      <text x="489.11" y="331.00" text-anchor="start" dominant-baseline="middle" fill="#333">+bool is_wild</text>
      <line x1="474.11" y1="355.00" x2="633.96" y2="355.00" stroke="#333" stroke-width="1.00" />
      <text x="489.11" y="379.00" text-anchor="start" dominant-baseline="middle" fill="#333">+run()</text>
    </g>
  </g>
</svg>
