<svg xmlns="http://www.w3.org/2000/svg" width="100%" viewBox="0 0 110.52 198.00" style="max-width: 110.52px; background-color: transparent;" font-family="&quot;trebuchet ms&quot;, verdana, arial, sans-serif" font-size="16.00">
  <defs>
    <marker id="arrowhead" viewBox="0 0 10.00 10.00" refX="5.00" refY="5.00" markerWidth="8.00" markerHeight="8.00" orient="auto-start-reverse" markerUnits="userSpaceOnUse">
      <path d="M 0 0 L 10.00 5.00 L 0 10.00 z" fill="#333" />
    </marker>
    <marker id="crosshead" viewBox="0 0 11.00 11.00" refX="12.00" refY="5.20" markerWidth="11.00" markerHeight="11.00" orient="auto-start-reverse" markerUnits="userSpaceOnUse">
      <path d="M 1,1 l 9,9 M 10,1 l -9,9" stroke="#333" stroke-width="2" />
    </marker>
    <marker id="circlehead" viewBox="0 0 10.00 10.00" refX="11.00" refY="5.00" markerWidth="11.00" markerHeight="11.00" orient="auto-start-reverse" markerUnits="userSpaceOnUse">
      <circle cx="5" cy="5" r="5" stroke="#333" stroke-width="1" fill="#333" />
    </marker>
    <marker id="open-arrowhead" viewBox="0 0 10.00 10.00" refX="5.00" refY="5.00" markerWidth="8.00" markerHeight="8.00" orient="auto-start-reverse" markerUnits="userSpaceOnUse">
      <polygon points="0,0 10.00,5.00 0,10.00" fill="white" stroke="#333" stroke-width="1" />
    </marker>
    <marker id="diamondhead" viewBox="0 0 12.00 12.00" refX="6.00" refY="6.00" markerWidth="12.00" markerHeight="12.00" orient="auto-start-reverse" markerUnits="userSpaceOnUse">
      <polygon points="0,6.00 6.00,0 12.00,6.00 6.00,12.00" fill="#333" />
    </marker>
    <marker id="open-diamondhead" viewBox="0 0 12.00 12.00" refX="6.00" refY="6.00" markerWidth="12.00" markerHeight="12.00" orient="auto-start-reverse" markerUnits="userSpaceOnUse">
      <polygon points="0,6.00 6.00,0 12.00,6.00 6.00,12.00" fill="white" stroke="#333" stroke-width="1" />
    </marker>
  </defs>
  <g transform="translate(0.00,0.00)">
    <g class="edgePaths">
      <path d="M55.26,62.00 L55.26,68.17 C55.26,74.33 55.26,86.67 55.26,98.33 C55.26,110.00 55.26,121.00 55.26,126.50 L55.26,132.00" stroke="#333" stroke-width="1.00" fill="none" stroke-linecap="round" stroke-linejoin="round" marker-end="url(#arrowhead)" />
    </g>
    <g class="edgeLabels">
      <text x="55.26" y="99.00" text-anchor="middle" dominant-baseline="middle" fill="#333">reads</text>
    </g>
    <g class="nodes">
      <rect x="8.00" y="136.00" width="94.52" height="54.00" fill="white" stroke="#333" stroke-width="1.00" stroke-linejoin="round" />
      <text x="55.26" y="163.00" text-anchor="middle" dominant-baseline="middle" fill="#333">Repo</text>
      <rect x="9.30" y="8.00" width="91.92" height="54.00" fill="white" stroke="#333" stroke-width="1.00" stroke-linejoin="round" />
      <text x="55.26" y="35.00" text-anchor="middle" dominant-baseline="middle" fill="#333">User</text>
    </g>
  </g>
</svg>
