<svg xmlns="http://www.w3.org/2000/svg" width="100%" viewBox="0 0 351.61 478.00" style="max-width: 351.61px; background-color: transparent;" font-family="&quot;trebuchet ms&quot;, verdana, arial, sans-serif" font-size="16.00">
  <defs>
    <marker id="arrowhead" viewBox="0 0 10.00 10.00" refX="5.00" refY="5.00" markerWidth="8.00" markerHeight="8.00" orient="auto-start-reverse" markerUnits="userSpaceOnUse">
      <path d="M 0 0 L 10.00 5.00 L 0 10.00 z" fill="#333" />
    </marker>
    <marker id="crosshead" viewBox="0 0 11.00 11.00" refX="12.00" refY="5.20" markerWidth="11.00" markerHeight="11.00" orient="auto-start-reverse" markerUnits="userSpaceOnUse">
      <path d="M 1,1 l 9,9 M 10,1 l -9,9" stroke="#333" stroke-width="2" />
    </marker>
    <marker id="circlehead" viewBox="0 0 10.00 10.00" refX="11.00" refY="5.00" markerWidth="11.00" markerHeight="11.00" orient="auto-start-reverse" markerUnits="userSpaceOnUse">
      <circle cx="5" cy="5" r="5" stroke="#333" stroke-width="1" fill="#333" />
    </marker>
    <marker id="open-arrowhead" viewBox="0 0 10.00 10.00" refX="5.00" refY="5.00" markerWidth="8.00" markerHeight="8.00" orient="auto-start-reverse" markerUnits="userSpaceOnUse">
      <polygon points="0,0 10.00,5.00 0,10.00" fill="white" stroke="#333" stroke-width="1" />
    </marker>
    <marker id="diamondhead" viewBox="0 0 12.00 12.00" refX="6.00" refY="6.00" markerWidth="12.00" markerHeight="12.00" orient="auto-start-reverse" markerUnits="userSpaceOnUse">
      <polygon points="0,6.00 6.00,0 12.00,6.00 6.00,12.00" fill="#333" />
    </marker>
    <marker id="open-diamondhead" viewBox="0 0 12.00 12.00" refX="6.00" refY="6.00" markerWidth="12.00" markerHeight="12.00" orient="auto-start-reverse" markerUnits="userSpaceOnUse">
      <polygon points="0,6.00 6.00,0 12.00,6.00 6.00,12.00" fill="white" stroke="#333" stroke-width="1" />
    </marker>
  </defs>
  <g transform="translate(-20.00,-27.00)">
    <g class="clusters">
      <rect class="subgraph" x="28.00" y="35.00" width="335.61" height="100.00" fill="none" stroke="#888" stroke-width="1.00" />
      <text x="195.81" y="39.00" text-anchor="middle" dominant-baseline="hanging" fill="#333">a</text>
      <rect class="subgraph" x="146.54" y="397.00" width="217.08" height="100.00" fill="none" stroke="#888" stroke-width="1.00" />
      <text x="255.08" y="401.00" text-anchor="middle" dominant-baseline="hanging" fill="#333">g</text>
    </g>
    <g class="nodes">
      <rect x="43.00" y="66.00" width="68.54" height="54.00" fill="white" stroke="#333" stroke-width="1.00" stroke-linejoin="round" />
      <text x="77.27" y="93.00" text-anchor="middle" dominant-baseline="middle" fill="#333">b</text>
      <rect x="280.08" y="66.00" width="68.54" height="54.00" fill="white" stroke="#333" stroke-width="1.00" stroke-linejoin="round" />
      <text x="314.34" y="93.00" text-anchor="middle" dominant-baseline="middle" fill="#333">c</text>
      <rect x="161.54" y="66.00" width="68.54" height="54.00" fill="white" stroke="#333" stroke-width="1.00" stroke-linejoin="round" />
      <text x="195.81" y="93.00" text-anchor="middle" dominant-baseline="middle" fill="#333">u</text>
      <rect x="43.00" y="212.00" width="68.54" height="54.00" fill="white" stroke="#333" stroke-width="1.00" stroke-linejoin="round" />
      <text x="77.27" y="239.00" text-anchor="middle" dominant-baseline="middle" fill="#333">b</text>
      <rect x="280.08" y="212.00" width="68.54" height="54.00" fill="white" stroke="#333" stroke-width="1.00" stroke-linejoin="round" />
      <text x="314.34" y="239.00" text-anchor="middle" dominant-baseline="middle" fill="#333">c</text>
      <rect x="43.00" y="316.00" width="68.54" height="54.00" fill="white" stroke="#333" stroke-width="1.00" stroke-linejoin="round" />
      <text x="77.27" y="343.00" text-anchor="middle" dominant-baseline="middle" fill="#333">d</text>
      <rect x="280.08" y="316.00" width="68.54" height="54.00" fill="white" stroke="#333" stroke-width="1.00" stroke-linejoin="round" />
      <text x="314.34" y="343.00" text-anchor="middle" dominant-baseline="middle" fill="#333">e</text>
      <rect x="162.84" y="316.00" width="65.94" height="54.00" fill="white" stroke="#333" stroke-width="1.00" stroke-linejoin="round" />
      <text x="195.81" y="343.00" text-anchor="middle" dominant-baseline="middle" fill="#333">f</text>
      <rect x="280.08" y="428.00" width="68.54" height="54.00" fill="white" stroke="#333" stroke-width="1.00" stroke-linejoin="round" />
      <text x="314.34" y="455.00" text-anchor="middle" dominant-baseline="middle" fill="#333">a</text>
      <rect x="161.54" y="428.00" width="68.54" height="54.00" fill="white" stroke="#333" stroke-width="1.00" stroke-linejoin="round" />
      <text x="195.81" y="455.00" text-anchor="middle" dominant-baseline="middle" fill="#333">b</text>
    </g>
    <g class="edgePaths">
      <path d="M77.27,120.00 L77.27,128.00 L77.27,131.78 C77.27,135.56 77.27,143.11 77.27,152.00 C77.27,160.89 77.27,171.11 77.27,179.33 C77.27,187.56 77.27,193.78 77.27,196.89 L77.27,200.00 L77.27,208.00" stroke="#333" stroke-width="1.00" fill="none" stroke-linecap="round" stroke-linejoin="round" marker-end="url(#arrowhead)" />
      <path d="M77.27,266.00 L77.27,268.78 C77.27,271.56 77.27,277.11 77.27,282.67 C77.27,288.22 77.27,293.78 77.27,298.67 C77.27,303.56 77.27,307.78 77.27,309.89 L77.27,312.00" stroke="#333" stroke-width="1.00" fill="none" stroke-linecap="round" stroke-linejoin="round" marker-end="url(#arrowhead)" />
      <path d="M108.04,266.00 L108.04,268.78 C108.04,271.56 108.04,277.11 117.54,282.67 C127.04,288.22 146.04,293.78 155.53,298.67 C165.03,303.56 165.03,307.78 165.03,309.89 L165.03,312.00" stroke="#333" stroke-width="1.00" fill="none" stroke-linecap="round" stroke-linejoin="round" marker-end="url(#arrowhead)" />
      <path d="M195.81,120.00 L195.81,128.00 L195.81,137.56 C195.81,147.11 195.81,166.22 195.81,186.67 C195.81,207.11 195.81,228.89 195.81,248.67 C195.81,268.44 195.81,286.22 195.81,295.11 L195.81,304.00 L195.81,312.00" stroke="#333" stroke-width="1.00" fill="none" stroke-linecap="round" stroke-linejoin="round" marker-end="url(#arrowhead)" />
      <path d="M314.34,120.00 L314.34,128.00 L314.34,131.78 C314.34,135.56 314.34,143.11 314.34,152.00 C314.34,160.89 314.34,171.11 314.34,179.33 C314.34,187.56 314.34,193.78 314.34,196.89 L314.34,200.00 L314.34,208.00" stroke="#333" stroke-width="1.00" fill="none" stroke-linecap="round" stroke-linejoin="round" marker-end="url(#arrowhead)" />
      <path d="M314.34,266.00 L314.34,268.78 C314.34,271.56 314.34,277.11 314.34,282.67 C314.34,288.22 314.34,293.78 314.34,298.67 C314.34,303.56 314.34,307.78 314.34,309.89 L314.34,312.00" stroke="#333" stroke-width="1.00" fill="none" stroke-linecap="round" stroke-linejoin="round" marker-end="url(#arrowhead)" />
      <path d="M179.32,370.00 L179.32,373.22 C179.32,376.44 179.32,382.89 182.07,389.33 C184.82,395.78 190.31,402.22 193.06,408.00 C195.81,413.78 195.81,418.89 195.81,421.44 L195.81,424.00" stroke="#333" stroke-width="1.00" fill="none" stroke-linecap="round" stroke-linejoin="round" marker-end="url(#arrowhead)" />
      <path d="M212.29,370.00 L212.29,373.22 C212.29,376.44 212.29,382.89 226.44,389.33 C240.60,395.78 268.90,402.22 283.06,408.00 C297.21,413.78 297.21,418.89 297.21,421.44 L297.21,424.00" stroke="#333" stroke-width="1.00" fill="none" stroke-linecap="round" stroke-linejoin="round" marker-end="url(#arrowhead)" />
      <path d="M314.34,370.00 L314.34,373.22 C314.34,376.44 314.34,382.89 317.20,389.33 C320.06,395.78 325.77,402.22 328.62,408.00 C331.48,413.78 331.48,418.89 331.48,421.44 L331.48,424.00" stroke="#333" stroke-width="1.00" fill="none" stroke-linecap="round" stroke-linejoin="round" marker-end="url(#arrowhead)" />
    </g>
    <g class="edgeLabels">
    </g>
  </g>
</svg>
