<svg xmlns="http://www.w3.org/2000/svg" width="100%" viewBox="0 0 835.23 174.00" style="max-width: 835.23px; background-color: transparent;" font-family="&quot;trebuchet ms&quot;, verdana, arial, sans-serif" font-size="16.00">
  <defs>
    <marker id="arrowhead" viewBox="0 0 10.00 10.00" refX="5.00" refY="5.00" markerWidth="8.00" markerHeight="8.00" orient="auto-start-reverse" markerUnits="userSpaceOnUse">
      <path d="M 0 0 L 10.00 5.00 L 0 10.00 z" fill="#333" />
    </marker>
    <marker id="crosshead" viewBox="0 0 11.00 11.00" refX="12.00" refY="5.20" markerWidth="11.00" markerHeight="11.00" orient="auto-start-reverse" markerUnits="userSpaceOnUse">
      <path d="M 1,1 l 9,9 M 10,1 l -9,9" stroke="#333" stroke-width="2" />
    </marker>
    <marker id="circlehead" viewBox="0 0 10.00 10.00" refX="11.00" refY="5.00" markerWidth="11.00" markerHeight="11.00" orient="auto-start-reverse" markerUnits="userSpaceOnUse">
      <circle cx="5" cy="5" r="5" stroke="#333" stroke-width="1" fill="#333" />
    </marker>
    <marker id="open-arrowhead" viewBox="0 0 10.00 10.00" refX="5.00" refY="5.00" markerWidth="8.00" markerHeight="8.00" orient="auto-start-reverse" markerUnits="userSpaceOnUse">
      <polygon points="0,0 10.00,5.00 0,10.00" fill="white" stroke="#333" stroke-width="1" />
    </marker>
    <marker id="diamondhead" viewBox="0 0 12.00 12.00" refX="6.00" refY="6.00" markerWidth="12.00" markerHeight="12.00" orient="auto-start-reverse" markerUnits="userSpaceOnUse">
      <polygon points="0,6.00 6.00,0 12.00,6.00 6.00,12.00" fill="#333" />
    </marker>
    <marker id="open-diamondhead" viewBox="0 0 12.00 12.00" refX="6.00" refY="6.00" markerWidth="12.00" markerHeight="12.00" orient="auto-start-reverse" markerUnits="userSpaceOnUse">
      <polygon points="0,6.00 6.00,0 12.00,6.00 6.00,12.00" fill="white" stroke="#333" stroke-width="1" />
    </marker>
  </defs>
  <g transform="translate(0.00,0.00)">
    <g class="edgePaths">
      <path d="M371.12,62.00 L371.12,64.33 C371.12,66.67 371.12,71.33 320.92,76.83 C270.72,82.33 170.32,88.67 120.12,94.00 C69.92,99.33 69.92,103.67 69.92,105.83 L69.92,108.00" stroke="#333" stroke-width="1.00" fill="none" stroke-linecap="round" stroke-linejoin="round" marker-end="url(#arrowhead)" />
      <path d="M390.37,62.00 L390.37,64.33 C390.37,66.67 390.37,71.33 365.93,76.83 C341.50,82.33 292.64,88.67 268.20,94.00 C243.77,99.33 243.77,103.67 243.77,105.83 L243.77,108.00" stroke="#333" stroke-width="1.00" fill="none" stroke-linecap="round" stroke-linejoin="round" marker-end="url(#arrowhead)" />
      <path d="M417.62,62.00 L417.62,108.00" stroke="#333" stroke-width="1.00" fill="none" stroke-linecap="round" stroke-linejoin="round" marker-end="url(#arrowhead)" />
      <path d="M444.87,62.00 L444.87,64.33 C444.87,66.67 444.87,71.33 469.30,76.83 C493.73,82.33 542.60,88.67 567.03,94.00 C591.46,99.33 591.46,103.67 591.46,105.83 L591.46,108.00" stroke="#333" stroke-width="1.00" fill="none" stroke-linecap="round" stroke-linejoin="round" marker-end="url(#arrowhead)" />
      <path d="M464.12,62.00 L464.12,64.33 C464.12,66.67 464.12,71.33 514.31,76.83 C564.51,82.33 664.91,88.67 715.11,94.00 C765.31,99.33 765.31,103.67 765.31,105.83 L765.31,108.00" stroke="#333" stroke-width="1.00" fill="none" stroke-linecap="round" stroke-linejoin="round" marker-end="url(#arrowhead)" />
    </g>
    <g class="edgeLabels">
    </g>
    <g class="nodes">
      <rect x="363.12" y="8.00" width="109.00" height="54.00" fill="white" stroke="#333" stroke-width="1.00" stroke-linejoin="round" />
      <text x="417.62" y="35.00" text-anchor="middle" dominant-baseline="middle" fill="#333">Source</text>
      <rect x="8.00" y="112.00" width="123.85" height="54.00" fill="white" stroke="#333" stroke-width="1.00" stroke-linejoin="round" />
      <text x="69.92" y="139.00" text-anchor="middle" dominant-baseline="middle" fill="#333">Target A</text>
      <rect x="181.85" y="112.00" width="123.85" height="54.00" fill="white" stroke="#333" stroke-width="1.00" stroke-linejoin="round" />
      <text x="243.77" y="139.00" text-anchor="middle" dominant-baseline="middle" fill="#333">Target B</text>
      <rect x="355.69" y="112.00" width="123.85" height="54.00" fill="white" stroke="#333" stroke-width="1.00" stroke-linejoin="round" />
      <text x="417.62" y="139.00" text-anchor="middle" dominant-baseline="middle" fill="#333">Target C</text>
      <rect x="529.54" y="112.00" width="123.85" height="54.00" fill="white" stroke="#333" stroke-width="1.00" stroke-linejoin="round" />
      <text x="591.46" y="139.00" text-anchor="middle" dominant-baseline="middle" fill="#333">Target D</text>
      <rect x="703.39" y="112.00" width="123.85" height="54.00" fill="white" stroke="#333" stroke-width="1.00" stroke-linejoin="round" />
      <text x="765.31" y="139.00" text-anchor="middle" dominant-baseline="middle" fill="#333">Target E</text>
    </g>
  </g>
</svg>
