<svg xmlns="http://www.w3.org/2000/svg" width="100%" viewBox="0 0 803.68 278.00" style="max-width: 803.68px; background-color: transparent;" font-family="&quot;trebuchet ms&quot;, verdana, arial, sans-serif" font-size="16.00">
  <defs>
    <marker id="arrowhead" viewBox="0 0 10.00 10.00" refX="5.00" refY="5.00" markerWidth="8.00" markerHeight="8.00" orient="auto-start-reverse" markerUnits="userSpaceOnUse">
      <path d="M 0 0 L 10.00 5.00 L 0 10.00 z" fill="#333" />
    </marker>
    <marker id="crosshead" viewBox="0 0 11.00 11.00" refX="12.00" refY="5.20" markerWidth="11.00" markerHeight="11.00" orient="auto-start-reverse" markerUnits="userSpaceOnUse">
      <path d="M 1,1 l 9,9 M 10,1 l -9,9" stroke="#333" stroke-width="2" />
    </marker>
    <marker id="circlehead" viewBox="0 0 10.00 10.00" refX="11.00" refY="5.00" markerWidth="11.00" markerHeight="11.00" orient="auto-start-reverse" markerUnits="userSpaceOnUse">
      <circle cx="5" cy="5" r="5" stroke="#333" stroke-width="1" fill="#333" />
    </marker>
    <marker id="open-arrowhead" viewBox="0 0 10.00 10.00" refX="5.00" refY="5.00" markerWidth="8.00" markerHeight="8.00" orient="auto-start-reverse" markerUnits="userSpaceOnUse">
      <polygon points="0,0 10.00,5.00 0,10.00" fill="white" stroke="#333" stroke-width="1" />
    </marker>
    <marker id="diamondhead" viewBox="0 0 12.00 12.00" refX="6.00" refY="6.00" markerWidth="12.00" markerHeight="12.00" orient="auto-start-reverse" markerUnits="userSpaceOnUse">
      <polygon points="0,6.00 6.00,0 12.00,6.00 6.00,12.00" fill="#333" />
    </marker>
    <marker id="open-diamondhead" viewBox="0 0 12.00 12.00" refX="6.00" refY="6.00" markerWidth="12.00" markerHeight="12.00" orient="auto-start-reverse" markerUnits="userSpaceOnUse">
      <polygon points="0,6.00 6.00,0 12.00,6.00 6.00,12.00" fill="white" stroke="#333" stroke-width="1" />
    </marker>
  </defs>
  <g transform="translate(0.00,0.00)">
    <g class="edgePaths">
      <path d="M66.77,62.00 L66.77,95.60 Q66.77,100.60 71.77,100.60 L352.94,100.60 Q356.64,100.60 356.64,104.30 L356.64,108.00" stroke="#333" stroke-width="1.00" fill="none" stroke-linecap="round" stroke-linejoin="round" marker-end="url(#arrowhead)" />
      <path d="M234.30,62.00 L234.30,68.40 Q234.30,73.40 239.30,73.40 L370.24,73.40 Q375.24,73.40 375.24,78.40 L375.24,108.00" stroke="#333" stroke-width="1.00" fill="none" stroke-linecap="round" stroke-linejoin="round" marker-end="url(#arrowhead)" />
      <path d="M401.84,62.00 L401.84,108.00" stroke="#333" stroke-width="1.00" fill="none" stroke-linecap="round" stroke-linejoin="round" marker-end="url(#arrowhead)" />
      <path d="M569.38,62.00 L569.38,68.40 Q569.38,73.40 564.38,73.40 L433.44,73.40 Q428.44,73.40 428.44,78.40 L428.44,108.00" stroke="#333" stroke-width="1.00" fill="none" stroke-linecap="round" stroke-linejoin="round" marker-end="url(#arrowhead)" />
      <path d="M736.91,62.00 L736.91,95.60 Q736.91,100.60 731.91,100.60 L450.74,100.60 Q447.04,100.60 447.04,104.30 L447.04,108.00" stroke="#333" stroke-width="1.00" fill="none" stroke-linecap="round" stroke-linejoin="round" marker-end="url(#arrowhead)" />
      <path d="M396.65,166.00 L396.65,212.00" stroke="#333" stroke-width="1.00" fill="none" stroke-linecap="round" stroke-linejoin="round" marker-end="url(#arrowhead)" />
      <path d="M407.03,216.00 L407.03,196.00 Q407.03,191.00 412.03,191.00 L438.04,191.00 Q443.04,191.00 443.04,186.00 L443.04,170.00" stroke="#333" stroke-width="1.00" fill="none" stroke-linecap="round" stroke-linejoin="round" marker-end="url(#arrowhead)" />
    </g>
    <g class="edgeLabels">
    </g>
    <g class="nodes">
      <rect x="348.64" y="112.00" width="106.40" height="54.00" fill="white" stroke="#333" stroke-width="1.00" stroke-linejoin="round" />
      <text x="401.84" y="139.00" text-anchor="middle" dominant-baseline="middle" fill="#333">Target</text>
      <rect x="356.53" y="216.00" width="90.62" height="54.00" fill="white" stroke="#333" stroke-width="1.00" stroke-linejoin="round" />
      <text x="401.84" y="243.00" text-anchor="middle" dominant-baseline="middle" fill="#333">Sink</text>
      <rect x="8.00" y="8.00" width="117.54" height="54.00" fill="white" stroke="#333" stroke-width="1.00" stroke-linejoin="round" />
      <text x="66.77" y="35.00" text-anchor="middle" dominant-baseline="middle" fill="#333">Source1</text>
      <rect x="175.54" y="8.00" width="117.54" height="54.00" fill="white" stroke="#333" stroke-width="1.00" stroke-linejoin="round" />
      <text x="234.30" y="35.00" text-anchor="middle" dominant-baseline="middle" fill="#333">Source2</text>
      <rect x="343.07" y="8.00" width="117.54" height="54.00" fill="white" stroke="#333" stroke-width="1.00" stroke-linejoin="round" />
      <text x="401.84" y="35.00" text-anchor="middle" dominant-baseline="middle" fill="#333">Source3</text>
      <rect x="510.61" y="8.00" width="117.54" height="54.00" fill="white" stroke="#333" stroke-width="1.00" stroke-linejoin="round" />
      <text x="569.38" y="35.00" text-anchor="middle" dominant-baseline="middle" fill="#333">Source4</text>
      <rect x="678.14" y="8.00" width="117.54" height="54.00" fill="white" stroke="#333" stroke-width="1.00" stroke-linejoin="round" />
      <text x="736.91" y="35.00" text-anchor="middle" dominant-baseline="middle" fill="#333">Source5</text>
    </g>
  </g>
</svg>
