<svg xmlns="http://www.w3.org/2000/svg" width="100%" viewBox="0 0 205.06 224.00" style="max-width: 205.06px; background-color: transparent;" font-family="&quot;trebuchet ms&quot;, verdana, arial, sans-serif" font-size="16.00">
  <defs>
    <marker id="arrowhead" viewBox="0 0 10.00 10.00" refX="5.00" refY="5.00" markerWidth="8.00" markerHeight="8.00" orient="auto-start-reverse" markerUnits="userSpaceOnUse">
      <path d="M 0 0 L 10.00 5.00 L 0 10.00 z" fill="#333" />
    </marker>
  </defs>
  <g transform="translate(8.00,0.00)">
    <g class="clusters">
      <rect class="subgraph" x="0.00" y="8.00" width="189.06" height="208.00" fill="none" stroke="#888" stroke-width="1.00" />
      <text x="94.53" y="12.00" text-anchor="middle" dominant-baseline="hanging" fill="#333">Group</text>
    </g>
    <g class="edgePaths">
      <path d="M77.26,87.00 L74.59,91.17 C71.93,95.33 66.60,103.67 66.24,111.44 C65.88,119.21 70.49,126.42 72.80,130.03 L75.10,133.63" stroke="#333" stroke-width="1.00" fill="none" stroke-linecap="round" stroke-linejoin="round" marker-end="url(#arrowhead)" />
      <path d="M111.80,137.00 L114.47,132.83 C117.13,128.67 122.46,120.33 122.82,112.56 C123.18,104.79 118.57,97.58 116.26,93.97 L113.96,90.37" stroke="#333" stroke-width="1.00" fill="none" stroke-linecap="round" stroke-linejoin="round" marker-end="url(#arrowhead)" />
    </g>
    <g class="edgeLabels">
    </g>
    <g class="nodes">
      <rect x="47.27" y="33.00" width="94.52" height="54.00" fill="white" stroke="#333" stroke-width="1.00" stroke-linejoin="round" />
      <text x="94.53" y="60.00" text-anchor="middle" dominant-baseline="middle" fill="#333">Node</text>
      <rect x="43.00" y="137.00" width="103.06" height="54.00" fill="white" stroke="#333" stroke-width="1.00" stroke-linejoin="round" />
      <text x="94.53" y="164.00" text-anchor="middle" dominant-baseline="middle" fill="#333">Node2</text>
    </g>
  </g>
</svg>
