<svg xmlns="http://www.w3.org/2000/svg" width="100%" viewBox="0 0 118.24 382.00" style="max-width: 118.24px; background-color: transparent;" font-family="&quot;trebuchet ms&quot;, verdana, arial, sans-serif" font-size="16.00">
  <defs>
    <marker id="arrowhead" viewBox="0 0 10.00 10.00" refX="5.00" refY="5.00" markerWidth="8.00" markerHeight="8.00" orient="auto-start-reverse" markerUnits="userSpaceOnUse">
      <path d="M 0 0 L 10.00 5.00 L 0 10.00 z" fill="#333" />
    </marker>
  </defs>
  <g transform="translate(0.00,0.00)">
    <g class="edgePaths">
      <path d="M59.12,62.00 L59.12,66.17 C59.12,70.33 59.12,78.67 59.12,86.33 C59.12,94.00 59.12,101.00 59.12,104.50 L59.12,108.00" stroke="#333" stroke-width="1.00" fill="none" stroke-linecap="round" stroke-linejoin="round" marker-end="url(#arrowhead)" />
      <path d="M59.12,166.00 L59.12,170.17 C59.12,174.33 59.12,182.67 59.12,190.33 C59.12,198.00 59.12,205.00 59.12,208.50 L59.12,212.00" stroke="#333" stroke-width="1.00" fill="none" stroke-linecap="round" stroke-linejoin="round" marker-end="url(#arrowhead)" />
      <path d="M59.12,270.00 L59.12,274.17 C59.12,278.33 59.12,286.67 59.12,294.33 C59.12,302.00 59.12,309.00 59.12,312.50 L59.12,316.00" stroke="#333" stroke-width="1.00" fill="none" stroke-linecap="round" stroke-linejoin="round" marker-end="url(#arrowhead)" />
    </g>
    <g class="edgeLabels">
    </g>
    <g class="nodes">
      <rect x="8.00" y="8.00" width="102.24" height="54.00" fill="white" stroke="#333" stroke-width="1.00" stroke-linejoin="round" />
      <text x="59.12" y="35.00" text-anchor="middle" dominant-baseline="middle" fill="#333">Step 1</text>
      <rect x="8.00" y="112.00" width="102.24" height="54.00" fill="white" stroke="#333" stroke-width="1.00" stroke-linejoin="round" />
      <text x="59.12" y="139.00" text-anchor="middle" dominant-baseline="middle" fill="#333">Step 2</text>
      <rect x="8.00" y="216.00" width="102.24" height="54.00" fill="white" stroke="#333" stroke-width="1.00" stroke-linejoin="round" />
      <text x="59.12" y="243.00" text-anchor="middle" dominant-baseline="middle" fill="#333">Step 3</text>
      <rect x="8.00" y="320.00" width="102.24" height="54.00" fill="white" stroke="#333" stroke-width="1.00" stroke-linejoin="round" />
      <text x="59.12" y="347.00" text-anchor="middle" dominant-baseline="middle" fill="#333">Step 4</text>
    </g>
  </g>
</svg>
