<svg xmlns="http://www.w3.org/2000/svg" width="100%" viewBox="0 0 1027.84 174.00" style="max-width: 1027.84px; background-color: transparent;" font-family="&quot;trebuchet ms&quot;, verdana, arial, sans-serif" font-size="16.00">
  <defs>
    <marker id="arrowhead" viewBox="0 0 10.00 10.00" refX="5.00" refY="5.00" markerWidth="8.00" markerHeight="8.00" orient="auto-start-reverse" markerUnits="userSpaceOnUse">
      <path d="M 0 0 L 10.00 5.00 L 0 10.00 z" fill="#333" />
    </marker>
  </defs>
  <g transform="translate(0.00,0.00)">
    <g class="edgePaths">
      <path d="M121.92,87.00 L126.09,87.00 C130.25,87.00 138.59,87.00 146.25,87.00 C153.92,87.00 160.92,87.00 164.42,87.00 L167.92,87.00" stroke="#333" stroke-width="1.00" fill="none" stroke-linecap="round" stroke-linejoin="round" marker-end="url(#arrowhead)" />
      <path d="M262.32,87.00 L266.49,87.00 C270.65,87.00 278.99,87.00 286.65,87.00 C294.32,87.00 301.32,87.00 304.82,87.00 L308.32,87.00" stroke="#333" stroke-width="1.00" fill="none" stroke-linecap="round" stroke-linejoin="round" marker-end="url(#arrowhead)" />
      <path d="M436.96,87.00 L441.13,87.00 C445.29,87.00 453.63,87.00 461.29,87.00 C468.96,87.00 475.96,87.00 479.46,87.00 L482.96,87.00" stroke="#333" stroke-width="1.00" fill="none" stroke-linecap="round" stroke-linejoin="round" marker-end="url(#arrowhead)" />
      <path d="M615.60,87.00 L619.77,87.00 C623.93,87.00 632.27,87.00 639.93,87.00 C647.60,87.00 654.60,87.00 658.10,87.00 L661.60,87.00" stroke="#333" stroke-width="1.00" fill="none" stroke-linecap="round" stroke-linejoin="round" marker-end="url(#arrowhead)" />
      <path d="M750.46,69.38 L761.39,63.65 C772.32,57.92 794.18,46.46 815.74,40.73 C837.31,35.00 858.57,35.00 869.21,35.00 L879.84,35.00" stroke="#333" stroke-width="1.00" fill="none" stroke-linecap="round" stroke-linejoin="round" marker-end="url(#arrowhead)" />
      <path d="M751.54,103.54 L763.95,109.45 C776.35,115.36 801.15,127.18 822.54,133.09 C843.92,139.00 861.88,139.00 870.86,139.00 L879.84,139.00" stroke="#333" stroke-width="1.00" fill="none" stroke-linecap="round" stroke-linejoin="round" marker-end="url(#arrowhead)" />
    </g>
    <g class="edgeLabels">
      <text x="816.04" y="35.00" text-anchor="middle" dominant-baseline="middle" fill="#333">staging</text>
      <text x="825.96" y="139.00" text-anchor="middle" dominant-baseline="middle" fill="#333">production</text>
    </g>
    <g class="nodes">
      <rect x="171.92" y="60.00" width="90.40" height="54.00" fill="white" stroke="#333" stroke-width="1.00" stroke-linejoin="round" />
      <text x="217.12" y="87.00" text-anchor="middle" dominant-baseline="middle" fill="#333">Build</text>
      <polygon points="716.84,35.76 768.08,87.00 716.84,138.24 665.60,87.00" fill="white" stroke="#333" stroke-width="1.00" stroke-linejoin="round" />
      <text x="716.84" y="87.00" text-anchor="middle" dominant-baseline="middle" fill="#333">Deploy?</text>
      <rect x="486.96" y="60.00" width="128.64" height="54.00" fill="white" stroke="#333" stroke-width="1.00" stroke-linejoin="round" />
      <text x="551.28" y="87.00" text-anchor="middle" dominant-baseline="middle" fill="#333">Lint Check</text>
      <rect x="883.84" y="112.00" width="126.08" height="54.00" fill="white" stroke="#333" stroke-width="1.00" stroke-linejoin="round" />
      <text x="946.88" y="139.00" text-anchor="middle" dominant-baseline="middle" fill="#333">Production</text>
      <rect x="8.00" y="60.00" width="113.92" height="54.00" fill="white" stroke="#333" stroke-width="1.00" stroke-linejoin="round" />
      <text x="64.96" y="87.00" text-anchor="middle" dominant-baseline="middle" fill="#333">Git Push</text>
      <rect x="883.84" y="8.00" width="136.00" height="54.00" fill="white" stroke="#333" stroke-width="1.00" stroke-linejoin="round" />
      <text x="951.84" y="35.00" text-anchor="middle" dominant-baseline="middle" fill="#333">Staging Env</text>
      <rect x="312.32" y="60.00" width="124.64" height="54.00" fill="white" stroke="#333" stroke-width="1.00" stroke-linejoin="round" />
      <text x="374.64" y="87.00" text-anchor="middle" dominant-baseline="middle" fill="#333">Run Tests</text>
    </g>
  </g>
</svg>
