<svg xmlns="http://www.w3.org/2000/svg" width="100%" viewBox="0 0 1093.09 174.00" style="max-width: 1093.09px; background-color: transparent;" font-family="&quot;trebuchet ms&quot;, verdana, arial, sans-serif" font-size="16.00">
  <defs>
    <marker id="arrowhead" viewBox="0 0 10.00 10.00" refX="5.00" refY="5.00" markerWidth="8.00" markerHeight="8.00" orient="auto-start-reverse" markerUnits="userSpaceOnUse">
      <path d="M 0 0 L 10.00 5.00 L 0 10.00 z" fill="#333" />
    </marker>
  </defs>
  <g transform="translate(0.00,0.00)">
    <g class="edgePaths">
      <path d="M130.55,87.00 L134.71,87.00 C138.88,87.00 147.21,87.00 154.88,87.00 C162.55,87.00 169.55,87.00 173.05,87.00 L176.55,87.00" stroke="#333" stroke-width="1.00" fill="none" stroke-linecap="round" stroke-linejoin="round" marker-end="url(#arrowhead)" />
      <path d="M275.81,87.00 L279.98,87.00 C284.14,87.00 292.48,87.00 300.14,87.00 C307.81,87.00 314.81,87.00 318.31,87.00 L321.81,87.00" stroke="#333" stroke-width="1.00" fill="none" stroke-linecap="round" stroke-linejoin="round" marker-end="url(#arrowhead)" />
      <path d="M460.79,87.00 L464.96,87.00 C469.13,87.00 477.46,87.00 485.13,87.00 C492.79,87.00 499.79,87.00 503.29,87.00 L506.79,87.00" stroke="#333" stroke-width="1.00" fill="none" stroke-linecap="round" stroke-linejoin="round" marker-end="url(#arrowhead)" />
      <path d="M650.42,87.00 L654.58,87.00 C658.75,87.00 667.08,87.00 674.75,87.00 C682.42,87.00 689.42,87.00 692.92,87.00 L696.42,87.00" stroke="#333" stroke-width="1.00" fill="none" stroke-linecap="round" stroke-linejoin="round" marker-end="url(#arrowhead)" />
      <path d="M792.60,68.95 L804.21,63.29 C815.83,57.63 839.06,46.32 862.45,40.66 C885.84,35.00 909.39,35.00 921.16,35.00 L932.93,35.00" stroke="#333" stroke-width="1.00" fill="none" stroke-linecap="round" stroke-linejoin="round" marker-end="url(#arrowhead)" />
      <path d="M793.82,103.83 L807.15,109.70 C820.48,115.56 847.14,127.28 870.32,133.14 C893.51,139.00 913.22,139.00 923.08,139.00 L932.93,139.00" stroke="#333" stroke-width="1.00" fill="none" stroke-linecap="round" stroke-linejoin="round" marker-end="url(#arrowhead)" />
    </g>
    <g class="edgeLabels">
      <text x="862.29" y="35.00" text-anchor="middle" dominant-baseline="middle" fill="#333">staging</text>
      <text x="873.79" y="139.00" text-anchor="middle" dominant-baseline="middle" fill="#333">production</text>
    </g>
    <g class="nodes">
      <rect x="180.55" y="60.00" width="95.26" height="54.00" fill="white" stroke="#333" stroke-width="1.00" stroke-linejoin="round" />
      <text x="228.18" y="87.00" text-anchor="middle" dominant-baseline="middle" fill="#333">Build</text>
      <polygon points="755.53,31.88 810.65,87.00 755.53,142.12 700.42,87.00" fill="white" stroke="#333" stroke-width="1.00" stroke-linejoin="round" />
      <text x="755.53" y="87.00" text-anchor="middle" dominant-baseline="middle" fill="#333">Deploy?</text>
      <rect x="510.79" y="60.00" width="139.62" height="54.00" fill="white" stroke="#333" stroke-width="1.00" stroke-linejoin="round" />
      <text x="580.60" y="87.00" text-anchor="middle" dominant-baseline="middle" fill="#333">Lint Check</text>
      <rect x="936.93" y="112.00" width="136.65" height="54.00" fill="white" stroke="#333" stroke-width="1.00" stroke-linejoin="round" />
      <text x="1005.26" y="139.00" text-anchor="middle" dominant-baseline="middle" fill="#333">Production</text>
      <rect x="8.00" y="60.00" width="122.55" height="54.00" fill="white" stroke="#333" stroke-width="1.00" stroke-linejoin="round" />
      <text x="69.27" y="87.00" text-anchor="middle" dominant-baseline="middle" fill="#333">Git Push</text>
      <rect x="936.93" y="8.00" width="148.16" height="54.00" fill="white" stroke="#333" stroke-width="1.00" stroke-linejoin="round" />
      <text x="1011.01" y="35.00" text-anchor="middle" dominant-baseline="middle" fill="#333">Staging Env</text>
      <rect x="325.81" y="60.00" width="134.98" height="54.00" fill="white" stroke="#333" stroke-width="1.00" stroke-linejoin="round" />
      <text x="393.30" y="87.00" text-anchor="middle" dominant-baseline="middle" fill="#333">Run Tests</text>
    </g>
  </g>
</svg>
