<svg xmlns="http://www.w3.org/2000/svg" width="100%" viewBox="0 0 206.30 382.00" style="max-width: 206.30px; background-color: transparent;" font-family="&quot;trebuchet ms&quot;, verdana, arial, sans-serif" font-size="16.00">
  <defs>
    <marker id="arrowhead" viewBox="0 0 10.00 10.00" refX="5.00" refY="5.00" markerWidth="8.00" markerHeight="8.00" orient="auto-start-reverse" markerUnits="userSpaceOnUse">
      <path d="M 0 0 L 10.00 5.00 L 0 10.00 z" fill="#333" />
    </marker>
  </defs>
  <g transform="translate(0.00,0.00)">
    <g class="edgePaths">
      <path d="M100.52,62.00 L93.62,66.17 C86.72,70.33 72.92,78.67 66.02,86.33 C59.12,94.00 59.12,101.00 59.12,104.50 L59.12,108.00" stroke="#333" stroke-width="1.00" fill="none" stroke-linecap="round" stroke-linejoin="round" marker-end="url(#arrowhead)" />
      <path d="M59.12,166.00 L59.12,169.33 C59.12,172.67 59.12,179.33 59.48,183.14 C59.84,186.94 60.57,187.89 61.10,189.36 C61.63,190.84 61.97,192.84 64.63,196.86 C67.30,200.87 72.28,206.90 74.78,209.91 L77.27,212.92" stroke="#333" stroke-width="1.00" fill="none" stroke-linecap="round" stroke-linejoin="round" marker-end="url(#arrowhead)" />
      <path d="M102.18,270.00 L102.18,273.33 C102.18,276.67 102.18,283.33 102.54,287.14 C102.90,290.94 103.63,291.89 104.16,293.36 C104.69,294.84 105.03,296.84 107.69,300.86 C110.36,304.87 115.34,310.90 117.84,313.91 L120.33,316.92" stroke="#333" stroke-width="1.00" fill="none" stroke-linecap="round" stroke-linejoin="round" marker-end="url(#arrowhead)" />
      <path d="M145.24,62.00 L145.24,66.17 C145.24,70.33 145.24,78.67 145.24,87.00 C145.24,95.33 145.24,103.67 145.24,120.17 C145.24,136.67 145.24,161.33 144.88,174.14 C144.52,186.94 143.79,187.89 143.26,189.36 C142.73,190.84 142.39,192.84 139.73,196.86 C137.06,200.87 132.08,206.90 129.58,209.91 L127.09,212.92" stroke="#333" stroke-width="1.00" fill="none" stroke-linecap="round" stroke-linejoin="round" marker-end="url(#arrowhead)" />
      <path d="M172.79,62.00 L177.04,66.17 C181.29,70.33 189.80,78.67 194.05,87.00 C198.30,95.33 198.30,103.67 198.30,121.00 C198.30,138.33 198.30,164.67 198.30,182.00 C198.30,199.33 198.30,207.67 198.30,224.17 C198.30,240.67 198.30,265.33 197.94,278.14 C197.58,290.94 196.85,291.89 196.26,293.30 C195.66,294.72 195.20,296.61 191.78,300.67 C188.37,304.73 182.01,310.97 178.83,314.08 L175.65,317.20" stroke="#333" stroke-width="1.00" fill="none" stroke-linecap="round" stroke-linejoin="round" marker-end="url(#arrowhead)" />
    </g>
    <g class="edgeLabels">
    </g>
    <g class="nodes">
      <rect x="100.04" y="8.00" width="90.40" height="54.00" fill="white" stroke="#333" stroke-width="1.00" stroke-linejoin="round" />
      <text x="145.24" y="35.00" text-anchor="middle" dominant-baseline="middle" fill="#333">Start</text>
      <rect x="8.00" y="112.00" width="102.24" height="54.00" fill="white" stroke="#333" stroke-width="1.00" stroke-linejoin="round" />
      <text x="59.12" y="139.00" text-anchor="middle" dominant-baseline="middle" fill="#333">Step 1</text>
      <rect x="51.06" y="216.00" width="102.24" height="54.00" fill="white" stroke="#333" stroke-width="1.00" stroke-linejoin="round" />
      <text x="102.18" y="243.00" text-anchor="middle" dominant-baseline="middle" fill="#333">Step 2</text>
      <rect x="104.04" y="320.00" width="82.40" height="54.00" fill="white" stroke="#333" stroke-width="1.00" stroke-linejoin="round" />
      <text x="145.24" y="347.00" text-anchor="middle" dominant-baseline="middle" fill="#333">End</text>
    </g>
  </g>
</svg>
