<svg xmlns="http://www.w3.org/2000/svg" width="100%" viewBox="0 0 550.48 174.00" style="max-width: 550.48px; background-color: transparent;" font-family="&quot;trebuchet ms&quot;, verdana, arial, sans-serif" font-size="16.00">
  <defs>
    <marker id="arrowhead" viewBox="0 0 10.00 10.00" refX="5.00" refY="5.00" markerWidth="8.00" markerHeight="8.00" orient="auto-start-reverse" markerUnits="userSpaceOnUse">
      <path d="M 0 0 L 10.00 5.00 L 0 10.00 z" fill="#333" />
    </marker>
  </defs>
  <g transform="translate(0.00,0.00)">
    <g class="edgePaths">
      <path d="M59.36,62.00 L59.36,66.17 C59.36,70.33 59.36,78.67 59.36,86.33 C59.36,94.00 59.36,101.00 59.36,104.50 L59.36,108.00" stroke="#333" stroke-width="1.00" fill="none" stroke-linecap="round" stroke-linejoin="round" marker-end="url(#arrowhead)" />
      <path d="M208.96,62.00 L208.96,66.17 C208.96,70.33 208.96,78.67 208.96,86.33 C208.96,94.00 208.96,101.00 208.96,104.50 L208.96,108.00" stroke="#333" stroke-width="1.00" fill="none" stroke-linecap="round" stroke-linejoin="round" stroke-dasharray="2.00,4.00" marker-end="url(#arrowhead)" />
      <path d="M355.84,62.00 L355.84,66.17 C355.84,70.33 355.84,78.67 355.84,86.33 C355.84,94.00 355.84,101.00 355.84,104.50 L355.84,108.00" stroke="#333" stroke-width="2.00" fill="none" stroke-linecap="round" stroke-linejoin="round" marker-end="url(#arrowhead)" />
      <path d="M497.60,62.00 L497.60,66.17 C497.60,70.33 497.60,78.67 497.60,87.00 C497.60,95.33 497.60,103.67 497.60,107.83 L497.60,112.00" stroke="#333" stroke-width="1.00" fill="none" stroke-linecap="round" stroke-linejoin="round" />
    </g>
    <g class="edgeLabels">
    </g>
    <g class="nodes">
      <rect x="14.16" y="8.00" width="90.40" height="54.00" fill="white" stroke="#333" stroke-width="1.00" stroke-linejoin="round" />
      <text x="59.36" y="35.00" text-anchor="middle" dominant-baseline="middle" fill="#333">Solid</text>
      <rect x="8.00" y="112.00" width="102.72" height="54.00" fill="white" stroke="#333" stroke-width="1.00" stroke-linejoin="round" />
      <text x="59.36" y="139.00" text-anchor="middle" dominant-baseline="middle" fill="#333">Normal</text>
      <rect x="158.96" y="8.00" width="100.00" height="54.00" fill="white" stroke="#333" stroke-width="1.00" stroke-linejoin="round" />
      <text x="208.96" y="35.00" text-anchor="middle" dominant-baseline="middle" fill="#333">Dotted</text>
      <rect x="160.72" y="112.00" width="96.48" height="54.00" fill="white" stroke="#333" stroke-width="1.00" stroke-linejoin="round" />
      <text x="208.96" y="139.00" text-anchor="middle" dominant-baseline="middle" fill="#333">Arrow</text>
      <rect x="308.96" y="8.00" width="93.76" height="54.00" fill="white" stroke="#333" stroke-width="1.00" stroke-linejoin="round" />
      <text x="355.84" y="35.00" text-anchor="middle" dominant-baseline="middle" fill="#333">Thick</text>
      <rect x="307.60" y="112.00" width="96.48" height="54.00" fill="white" stroke="#333" stroke-width="1.00" stroke-linejoin="round" />
      <text x="355.84" y="139.00" text-anchor="middle" dominant-baseline="middle" fill="#333">Arrow</text>
      <rect x="452.72" y="8.00" width="89.76" height="54.00" fill="white" stroke="#333" stroke-width="1.00" stroke-linejoin="round" />
      <text x="497.60" y="35.00" text-anchor="middle" dominant-baseline="middle" fill="#333">Open</text>
      <rect x="454.40" y="112.00" width="86.40" height="54.00" fill="white" stroke="#333" stroke-width="1.00" stroke-linejoin="round" />
      <text x="497.60" y="139.00" text-anchor="middle" dominant-baseline="middle" fill="#333">Line</text>
    </g>
  </g>
</svg>
