<svg xmlns="http://www.w3.org/2000/svg" width="621.40" height="245.80" viewBox="0 0 621.40 245.80" font-family="&quot;trebuchet ms&quot;, verdana, arial, sans-serif" font-size="22.00">
  <defs>
    <marker id="arrowhead" viewBox="0 0 10.00 10.00" refX="10.00" refY="5.00" markerWidth="10.00" markerHeight="10.00" orient="auto-start-reverse" markerUnits="userSpaceOnUse">
      <path d="M0,0 L10.00,5.00 L0,10.00 Z" fill="#333" />
    </marker>
  </defs>
  <g transform="translate(8.50,8.50)">
    <g class="edgePaths">
      <path d="M231.80,70.44 L95.71,112.45 Q89.40,114.40 89.40,121.00 L89.40,139.40" stroke="#333" stroke-width="1.00" fill="none" stroke-linecap="round" stroke-linejoin="round" marker-end="url(#arrowhead)" />
      <path d="M302.20,89.40 L302.20,114.40 L302.20,139.40" stroke="#333" stroke-width="1.00" fill="none" stroke-linecap="round" stroke-linejoin="round" marker-end="url(#arrowhead)" />
      <path d="M372.60,70.44 L508.69,112.45 Q515.00,114.40 515.00,121.00 L515.00,139.40" stroke="#333" stroke-width="1.00" fill="none" stroke-linecap="round" stroke-linejoin="round" marker-end="url(#arrowhead)" />
    </g>
    <g class="edgeLabels">
    </g>
    <g class="nodes">
      <rect x="231.80" y="8.00" width="140.80" height="81.40" fill="white" stroke="#333" stroke-width="1.00" stroke-linejoin="round" />
      <text x="302.20" y="48.70" text-anchor="middle" dominant-baseline="middle" fill="#333">Source</text>
      <rect x="8.00" y="139.40" width="162.80" height="81.40" fill="white" stroke="#333" stroke-width="1.00" stroke-linejoin="round" />
      <text x="89.40" y="180.10" text-anchor="middle" dominant-baseline="middle" fill="#333">Target A</text>
      <rect x="220.80" y="139.40" width="162.80" height="81.40" fill="white" stroke="#333" stroke-width="1.00" stroke-linejoin="round" />
      <text x="302.20" y="180.10" text-anchor="middle" dominant-baseline="middle" fill="#333">Target B</text>
      <rect x="433.60" y="139.40" width="162.80" height="81.40" fill="white" stroke="#333" stroke-width="1.00" stroke-linejoin="round" />
      <text x="515.00" y="180.10" text-anchor="middle" dominant-baseline="middle" fill="#333">Target C</text>
    </g>
  </g>
</svg>
