<svg xmlns="http://www.w3.org/2000/svg" width="100%" viewBox="0 0 461.12 174.00" style="max-width: 461.12px; background-color: transparent;" font-family="&quot;trebuchet ms&quot;, verdana, arial, sans-serif" font-size="16.00">
  <defs>
    <marker id="arrowhead" viewBox="0 0 8.00 8.00" refX="8.00" refY="4.00" markerWidth="8.00" markerHeight="8.00" orient="auto-start-reverse" markerUnits="userSpaceOnUse">
      <path d="M0,0 L8.00,4.00 L0,8.00 Z" fill="#333" />
    </marker>
  </defs>
  <g transform="translate(0.00,0.00)">
    <g class="edgePaths">
      <path d="M179.44,51.11 L160.45,57.09 C141.47,63.07 103.49,75.04 84.51,85.18 C65.52,95.33 65.52,103.67 65.52,107.83 L65.52,112.00" stroke="#333" stroke-width="1.00" fill="none" stroke-linecap="round" stroke-linejoin="round" marker-end="url(#arrowhead)" />
      <path d="M230.56,62.00 L230.56,66.17 C230.56,70.33 230.56,78.67 230.56,87.00 C230.56,95.33 230.56,103.67 230.56,107.83 L230.56,112.00" stroke="#333" stroke-width="1.00" fill="none" stroke-linecap="round" stroke-linejoin="round" marker-end="url(#arrowhead)" />
      <path d="M281.68,51.11 L300.67,57.09 C319.65,63.07 357.63,75.04 376.61,85.18 C395.60,95.33 395.60,103.67 395.60,107.83 L395.60,112.00" stroke="#333" stroke-width="1.00" fill="none" stroke-linecap="round" stroke-linejoin="round" marker-end="url(#arrowhead)" />
    </g>
    <g class="edgeLabels">
    </g>
    <g class="nodes">
      <rect x="179.44" y="8.00" width="102.24" height="54.00" fill="white" stroke="#333" stroke-width="1.00" stroke-linejoin="round" />
      <text x="230.56" y="35.00" text-anchor="middle" dominant-baseline="middle" fill="#333">Source</text>
      <rect x="8.00" y="112.00" width="115.04" height="54.00" fill="white" stroke="#333" stroke-width="1.00" stroke-linejoin="round" />
      <text x="65.52" y="139.00" text-anchor="middle" dominant-baseline="middle" fill="#333">Target A</text>
      <rect x="173.04" y="112.00" width="115.04" height="54.00" fill="white" stroke="#333" stroke-width="1.00" stroke-linejoin="round" />
      <text x="230.56" y="139.00" text-anchor="middle" dominant-baseline="middle" fill="#333">Target B</text>
      <rect x="338.08" y="112.00" width="115.04" height="54.00" fill="white" stroke="#333" stroke-width="1.00" stroke-linejoin="round" />
      <text x="395.60" y="139.00" text-anchor="middle" dominant-baseline="middle" fill="#333">Target C</text>
    </g>
  </g>
</svg>
