<svg xmlns="http://www.w3.org/2000/svg" width="100%" viewBox="0 0 554.40 174.00" style="max-width: 554.40px; background-color: transparent;" font-family="&quot;trebuchet ms&quot;, verdana, arial, sans-serif" font-size="16.00">
  <defs>
    <marker id="arrowhead" viewBox="0 0 10.00 10.00" refX="5.00" refY="5.00" markerWidth="8.00" markerHeight="8.00" orient="auto-start-reverse" markerUnits="userSpaceOnUse">
      <path d="M 0 0 L 10.00 5.00 L 0 10.00 z" fill="#333" />
    </marker>
  </defs>
  <g transform="translate(0.00,0.00)">
    <g class="edgePaths">
      <path d="M41.84,62.00 L41.84,65.33 C41.84,68.67 41.84,75.33 42.20,79.14 C42.56,82.94 43.29,83.89 44.10,84.90 C44.92,85.91 45.82,87.00 75.70,94.04 C105.58,101.08 164.44,114.09 193.87,120.59 L223.29,127.09" stroke="#333" stroke-width="1.00" fill="none" stroke-linecap="round" stroke-linejoin="round" marker-end="url(#arrowhead)" />
      <path d="M159.52,62.00 L159.52,65.33 C159.52,68.67 159.52,75.33 159.88,79.14 C160.24,82.94 160.97,83.89 161.73,85.06 C162.49,86.23 163.29,87.62 173.60,92.70 C183.91,97.78 203.73,106.53 213.63,110.91 L223.54,115.29" stroke="#333" stroke-width="1.00" fill="none" stroke-linecap="round" stroke-linejoin="round" marker-end="url(#arrowhead)" />
      <path d="M277.20,62.00 L277.20,66.17 C277.20,70.33 277.20,78.67 277.20,86.33 C277.20,94.00 277.20,101.00 277.20,104.50 L277.20,108.00" stroke="#333" stroke-width="1.00" fill="none" stroke-linecap="round" stroke-linejoin="round" marker-end="url(#arrowhead)" />
      <path d="M394.88,62.00 L394.88,66.17 C394.88,70.33 394.88,78.67 384.21,87.55 C373.54,96.43 352.20,105.86 341.53,110.57 L330.86,115.29" stroke="#333" stroke-width="1.00" fill="none" stroke-linecap="round" stroke-linejoin="round" marker-end="url(#arrowhead)" />
      <path d="M512.56,62.00 L512.56,65.33 C512.56,68.67 512.56,75.33 512.20,79.14 C511.84,82.94 511.11,83.89 510.30,84.90 C509.48,85.91 508.58,87.00 478.70,94.04 C448.82,101.08 389.96,114.09 360.53,120.59 L331.11,127.09" stroke="#333" stroke-width="1.00" fill="none" stroke-linecap="round" stroke-linejoin="round" marker-end="url(#arrowhead)" />
    </g>
    <g class="edgeLabels">
    </g>
    <g class="nodes">
      <rect x="8.00" y="8.00" width="67.68" height="54.00" fill="white" stroke="#333" stroke-width="1.00" stroke-linejoin="round" />
      <text x="41.84" y="35.00" text-anchor="middle" dominant-baseline="middle" fill="#333">A</text>
      <rect x="125.68" y="8.00" width="67.68" height="54.00" fill="white" stroke="#333" stroke-width="1.00" stroke-linejoin="round" />
      <text x="159.52" y="35.00" text-anchor="middle" dominant-baseline="middle" fill="#333">B</text>
      <rect x="243.36" y="8.00" width="67.68" height="54.00" fill="white" stroke="#333" stroke-width="1.00" stroke-linejoin="round" />
      <text x="277.20" y="35.00" text-anchor="middle" dominant-baseline="middle" fill="#333">C</text>
      <rect x="361.04" y="8.00" width="67.68" height="54.00" fill="white" stroke="#333" stroke-width="1.00" stroke-linejoin="round" />
      <text x="394.88" y="35.00" text-anchor="middle" dominant-baseline="middle" fill="#333">D</text>
      <rect x="478.72" y="8.00" width="67.68" height="54.00" fill="white" stroke="#333" stroke-width="1.00" stroke-linejoin="round" />
      <text x="512.56" y="35.00" text-anchor="middle" dominant-baseline="middle" fill="#333">E</text>
      <rect x="227.20" y="112.00" width="100.00" height="54.00" fill="white" stroke="#333" stroke-width="1.00" stroke-linejoin="round" />
      <text x="277.20" y="139.00" text-anchor="middle" dominant-baseline="middle" fill="#333">Target</text>
    </g>
  </g>
</svg>
