<svg xmlns="http://www.w3.org/2000/svg" width="100%" viewBox="0 0 201.36 198.00" style="max-width: 201.36px; background-color: transparent;" font-family="&quot;trebuchet ms&quot;, verdana, arial, sans-serif" font-size="16.00">
  <defs>
    <marker id="arrowhead" viewBox="0 0 10.00 10.00" refX="5.00" refY="5.00" markerWidth="8.00" markerHeight="8.00" orient="auto-start-reverse" markerUnits="userSpaceOnUse">
      <path d="M 0 0 L 10.00 5.00 L 0 10.00 z" fill="#333" />
    </marker>
  </defs>
  <g transform="translate(0.00,0.00)">
    <g class="edgePaths">
      <path d="M75.86,62.00 L70.19,68.17 C64.52,74.33 53.18,86.67 47.51,98.33 C41.84,110.00 41.84,121.00 41.84,126.50 L41.84,132.00" stroke="#333" stroke-width="1.00" fill="none" stroke-linecap="round" stroke-linejoin="round" marker-end="url(#arrowhead)" />
      <path d="M125.50,62.00 L131.17,68.17 C136.84,74.33 148.18,86.67 153.85,98.33 C159.52,110.00 159.52,121.00 159.52,126.50 L159.52,132.00" stroke="#333" stroke-width="1.00" fill="none" stroke-linecap="round" stroke-linejoin="round" marker-end="url(#arrowhead)" />
    </g>
    <g class="edgeLabels">
      <text x="41.84" y="99.00" text-anchor="middle" dominant-baseline="middle" fill="#333">valid</text>
      <text x="159.52" y="99.00" text-anchor="middle" dominant-baseline="middle" fill="#333">invalid</text>
    </g>
    <g class="nodes">
      <rect x="66.84" y="8.00" width="67.68" height="54.00" fill="white" stroke="#333" stroke-width="1.00" stroke-linejoin="round" />
      <text x="100.68" y="35.00" text-anchor="middle" dominant-baseline="middle" fill="#333">A</text>
      <rect x="8.00" y="136.00" width="67.68" height="54.00" fill="white" stroke="#333" stroke-width="1.00" stroke-linejoin="round" />
      <text x="41.84" y="163.00" text-anchor="middle" dominant-baseline="middle" fill="#333">B</text>
      <rect x="125.68" y="136.00" width="67.68" height="54.00" fill="white" stroke="#333" stroke-width="1.00" stroke-linejoin="round" />
      <text x="159.52" y="163.00" text-anchor="middle" dominant-baseline="middle" fill="#333">C</text>
    </g>
  </g>
</svg>
