<svg xmlns="http://www.w3.org/2000/svg" width="437.20" height="681.30" viewBox="0 0 437.20 681.30" font-family="&quot;trebuchet ms&quot;, verdana, arial, sans-serif" font-size="22.00">
  <defs>
    <marker id="arrowhead" viewBox="0 0 10.00 10.00" refX="10.00" refY="5.00" markerWidth="10.00" markerHeight="10.00" orient="auto-start-reverse" markerUnits="userSpaceOnUse">
      <path d="M0,0 L10.00,5.00 L0,10.00 Z" fill="#333" />
    </marker>
  </defs>
  <g transform="translate(8.50,8.50)">
    <g class="edgePaths">
      <path d="M198.00,89.40 L198.00,134.20 L198.00,179.00" stroke="#333" stroke-width="1.00" fill="none" stroke-linecap="round" stroke-linejoin="round" marker-end="url(#arrowhead)" />
      <path d="M160.10,260.40 L118.38,305.20 L118.38,350.00" stroke="#333" stroke-width="1.00" fill="none" stroke-linecap="round" stroke-linejoin="round" marker-end="url(#arrowhead)" />
      <path d="M97.97,485.30 L84.45,530.10 L84.45,574.90" stroke="#333" stroke-width="1.00" fill="none" stroke-linecap="round" stroke-linejoin="round" marker-end="url(#arrowhead)" />
      <path d="M186.03,484.64 L231.93,530.10 L273.65,574.90" stroke="#333" stroke-width="1.00" fill="none" stroke-linecap="round" stroke-linejoin="round" marker-end="url(#arrowhead)" />
      <path d="M319.45,574.90 L332.00,510.30 L332.00,369.80 L332.00,285.40 L262.35,251.25" stroke="#333" stroke-width="1.00" fill="none" stroke-linecap="round" stroke-linejoin="round" stroke-dasharray="2.00,4.00" marker-end="url(#arrowhead)" />
    </g>
    <g class="edgeLabels">
      <text x="198.00" y="134.20" text-anchor="middle" dominant-baseline="middle" fill="#333">initialize</text>
      <text x="118.38" y="305.20" text-anchor="middle" dominant-baseline="middle" fill="#333">configure</text>
      <text x="84.45" y="530.10" text-anchor="middle" dominant-baseline="middle" fill="#333">yes</text>
      <text x="231.93" y="530.10" text-anchor="middle" dominant-baseline="middle" fill="#333">no</text>
      <text x="332.00" y="369.80" text-anchor="middle" dominant-baseline="middle" fill="#333">retry</text>
    </g>
    <g class="nodes">
      <polygon points="118.38,350.00 186.03,417.65 118.38,485.30 50.73,417.65" fill="white" stroke="#333" stroke-width="1.00" stroke-linejoin="round" />
      <text x="118.38" y="417.65" text-anchor="middle" dominant-baseline="middle" fill="#333">Valid?</text>
      <rect x="210.90" y="574.90" width="201.30" height="81.40" fill="white" stroke="#333" stroke-width="1.00" stroke-linejoin="round" />
      <text x="311.55" y="615.60" text-anchor="middle" dominant-baseline="middle" fill="#333">Handle Error</text>
      <rect x="8.00" y="574.90" width="152.90" height="81.40" fill="white" stroke="#333" stroke-width="1.00" stroke-linejoin="round" />
      <text x="84.45" y="615.60" text-anchor="middle" dominant-baseline="middle" fill="#333">Execute</text>
      <rect x="133.65" y="179.00" width="128.70" height="81.40" fill="white" stroke="#333" stroke-width="1.00" stroke-linejoin="round" />
      <text x="198.00" y="219.70" text-anchor="middle" dominant-baseline="middle" fill="#333">Setup</text>
      <rect x="134.20" y="8.00" width="127.60" height="81.40" fill="white" stroke="#333" stroke-width="1.00" stroke-linejoin="round" />
      <text x="198.00" y="48.70" text-anchor="middle" dominant-baseline="middle" fill="#333">Begin</text>
    </g>
  </g>
</svg>
