<svg xmlns="http://www.w3.org/2000/svg" width="855.70" height="244.00" viewBox="0 0 855.70 244.00" font-family="&quot;trebuchet ms&quot;, verdana, arial, sans-serif" font-size="22.00">
  <defs>
    <marker id="arrowhead" viewBox="0 0 10.00 10.00" refX="10.00" refY="5.00" markerWidth="10.00" markerHeight="10.00" orient="auto-start-reverse" markerUnits="userSpaceOnUse">
      <path d="M0,0 L10.00,5.00 L0,10.00 Z" fill="#333" />
    </marker>
  </defs>
  <g transform="translate(8.50,48.10)">
    <g class="clusters">
      <rect class="subgraph" x="8.00" y="-31.60" width="362.30" height="204.20" fill="none" stroke="#888" stroke-width="1.00" />
      <text x="189.15" y="-25.00" text-anchor="middle" dominant-baseline="hanging" fill="#333">Frontend</text>
      <rect class="subgraph" x="445.30" y="-31.60" width="385.40" height="204.20" fill="none" stroke="#888" stroke-width="1.00" />
      <text x="638.00" y="-25.00" text-anchor="middle" dominant-baseline="hanging" fill="#333">Backend</text>
    </g>
    <g class="edgePaths">
      <path d="M144.50,83.70 L182.00,83.70 L219.50,83.70" stroke="#333" stroke-width="1.00" fill="none" stroke-linecap="round" stroke-linejoin="round" marker-end="url(#arrowhead)" />
      <path d="M619.20,83.70 L656.70,83.70 L694.20,83.70" stroke="#333" stroke-width="1.00" fill="none" stroke-linecap="round" stroke-linejoin="round" marker-end="url(#arrowhead)" />
      <path d="M332.80,83.70 L370.30,83.70 L407.80,83.70 L445.30,83.70 L482.80,83.70" stroke="#333" stroke-width="1.00" fill="none" stroke-linecap="round" stroke-linejoin="round" marker-end="url(#arrowhead)" />
    </g>
    <g class="edgeLabels">
    </g>
    <g class="nodes">
      <rect x="45.50" y="43.00" width="99.00" height="81.40" fill="white" stroke="#333" stroke-width="1.00" stroke-linejoin="round" />
      <text x="95.00" y="83.70" text-anchor="middle" dominant-baseline="middle" fill="#333">UI</text>
      <rect x="219.50" y="43.00" width="113.30" height="81.40" fill="white" stroke="#333" stroke-width="1.00" stroke-linejoin="round" />
      <text x="276.15" y="83.70" text-anchor="middle" dominant-baseline="middle" fill="#333">API</text>
      <rect x="482.80" y="43.00" width="136.40" height="81.40" fill="white" stroke="#333" stroke-width="1.00" stroke-linejoin="round" />
      <text x="551.00" y="83.70" text-anchor="middle" dominant-baseline="middle" fill="#333">Server</text>
      <rect x="694.20" y="43.00" width="99.00" height="81.40" fill="white" stroke="#333" stroke-width="1.00" stroke-linejoin="round" />
      <text x="743.70" y="83.70" text-anchor="middle" dominant-baseline="middle" fill="#333">DB</text>
    </g>
  </g>
</svg>
