<svg xmlns="http://www.w3.org/2000/svg" width="152.28" height="278.00" viewBox="0 0 152.28 278.00" font-family="&quot;trebuchet ms&quot;, verdana, arial, sans-serif" font-size="16.00">
  <defs>
    <marker id="arrowhead" viewBox="0 0 8.00 8.00" refX="8.00" refY="4.00" markerWidth="8.00" markerHeight="8.00" orient="auto-start-reverse" markerUnits="userSpaceOnUse">
      <path d="M0,0 L8.00,4.00 L0,8.00 Z" fill="#333" />
    </marker>
  </defs>
  <g transform="translate(0.00,0.00)">
    <g class="edgePaths">
      <path d="M79.23,62.00 L75.80,66.17 C72.36,70.33 65.50,78.67 62.07,87.00 C58.64,95.33 58.64,103.67 58.64,107.83 L58.64,112.00" stroke="#333" stroke-width="1.00" fill="none" stroke-linecap="round" stroke-linejoin="round" marker-end="url(#arrowhead)" />
      <path d="M53.45,166.00 L52.65,170.17 C51.85,174.33 50.24,182.67 52.87,191.00 C55.50,199.33 62.36,207.67 65.80,211.83 L69.23,216.00" stroke="#333" stroke-width="1.00" fill="none" stroke-linecap="round" stroke-linejoin="round" marker-end="url(#arrowhead)" />
      <path d="M118.89,216.00 L123.12,211.83 C127.35,207.67 135.82,199.33 140.05,182.00 C144.28,164.67 144.28,138.33 144.28,121.00 C144.28,103.67 144.28,95.33 140.85,87.00 C137.42,78.67 130.56,70.33 127.12,66.17 L123.69,62.00" stroke="#333" stroke-width="1.00" fill="none" stroke-linecap="round" stroke-linejoin="round" marker-end="url(#arrowhead)" />
      <path d="M91.46,216.00 L91.46,211.83 C91.46,207.67 91.46,199.33 88.83,191.00 C86.20,182.67 80.94,174.33 78.31,170.17 L75.68,166.00" stroke="#333" stroke-width="1.00" fill="none" stroke-linecap="round" stroke-linejoin="round" marker-end="url(#arrowhead)" />
    </g>
    <g class="edgeLabels">
    </g>
    <g class="nodes">
      <rect x="60.26" y="8.00" width="82.40" height="54.00" fill="white" stroke="#333" stroke-width="1.00" stroke-linejoin="round" />
      <text x="101.46" y="35.00" text-anchor="middle" dominant-baseline="middle" fill="#333">Top</text>
      <rect x="8.00" y="112.00" width="101.28" height="54.00" fill="white" stroke="#333" stroke-width="1.00" stroke-linejoin="round" />
      <text x="58.64" y="139.00" text-anchor="middle" dominant-baseline="middle" fill="#333">Middle</text>
      <rect x="39.54" y="216.00" width="103.84" height="54.00" fill="white" stroke="#333" stroke-width="1.00" stroke-linejoin="round" />
      <text x="91.46" y="243.00" text-anchor="middle" dominant-baseline="middle" fill="#333">Bottom</text>
    </g>
  </g>
</svg>
