<svg xmlns="http://www.w3.org/2000/svg" width="100%" viewBox="0 0 152.28 278.00" style="max-width: 152.28px; background-color: transparent;" font-family="&quot;trebuchet ms&quot;, verdana, arial, sans-serif" font-size="16.00">
  <defs>
    <marker id="arrowhead" viewBox="0 0 10.00 10.00" refX="5.00" refY="5.00" markerWidth="8.00" markerHeight="8.00" orient="auto-start-reverse" markerUnits="userSpaceOnUse">
      <path d="M 0 0 L 10.00 5.00 L 0 10.00 z" fill="#333" />
    </marker>
  </defs>
  <g transform="translate(0.00,0.00)">
    <g class="edgePaths">
      <path d="M79.23,62.00 L75.80,66.17 C72.36,70.33 65.50,78.67 62.07,86.33 C58.64,94.00 58.64,101.00 58.64,104.50 L58.64,108.00" stroke="#333" stroke-width="1.00" fill="none" stroke-linecap="round" stroke-linejoin="round" marker-end="url(#arrowhead)" />
      <path d="M53.45,166.00 L52.65,170.17 C51.85,174.33 50.24,182.67 52.45,190.49 C54.65,198.30 60.67,205.61 63.68,209.26 L66.68,212.91" stroke="#333" stroke-width="1.00" fill="none" stroke-linecap="round" stroke-linejoin="round" marker-end="url(#arrowhead)" />
      <path d="M118.89,216.00 L123.12,211.83 C127.35,207.67 135.82,199.33 140.05,182.00 C144.28,164.67 144.28,138.33 144.28,121.83 C144.28,105.33 144.28,98.67 143.92,94.86 C143.56,91.06 142.83,90.11 142.30,88.64 C141.77,87.16 141.44,85.15 138.79,81.14 C136.15,77.12 131.19,71.11 128.71,68.10 L126.24,65.09" stroke="#333" stroke-width="1.00" fill="none" stroke-linecap="round" stroke-linejoin="round" marker-end="url(#arrowhead)" />
      <path d="M91.46,216.00 L91.46,212.67 C91.46,209.33 91.46,202.67 91.10,198.86 C90.74,195.06 90.01,194.11 89.57,192.58 C89.12,191.04 88.96,188.91 87.04,184.94 C85.13,180.98 81.47,175.18 79.65,172.28 L77.82,169.38" stroke="#333" stroke-width="1.00" fill="none" stroke-linecap="round" stroke-linejoin="round" marker-end="url(#arrowhead)" />
    </g>
    <g class="edgeLabels">
    </g>
    <g class="nodes">
      <rect x="60.26" y="8.00" width="82.40" height="54.00" fill="white" stroke="#333" stroke-width="1.00" stroke-linejoin="round" />
      <text x="101.46" y="35.00" text-anchor="middle" dominant-baseline="middle" fill="#333">Top</text>
      <rect x="8.00" y="112.00" width="101.28" height="54.00" fill="white" stroke="#333" stroke-width="1.00" stroke-linejoin="round" />
      <text x="58.64" y="139.00" text-anchor="middle" dominant-baseline="middle" fill="#333">Middle</text>
      <rect x="39.54" y="216.00" width="103.84" height="54.00" fill="white" stroke="#333" stroke-width="1.00" stroke-linejoin="round" />
      <text x="91.46" y="243.00" text-anchor="middle" dominant-baseline="middle" fill="#333">Bottom</text>
    </g>
  </g>
</svg>
