<svg xmlns="http://www.w3.org/2000/svg" width="387.10" height="245.80" viewBox="0 0 387.10 245.80" font-family="&quot;trebuchet ms&quot;, verdana, arial, sans-serif" font-size="22.00">
  <defs>
    <marker id="arrowhead" viewBox="0 0 10.00 10.00" refX="10.00" refY="5.00" markerWidth="10.00" markerHeight="10.00" orient="auto-start-reverse" markerUnits="userSpaceOnUse">
      <path d="M0,0 L10.00,5.00 L0,10.00 Z" fill="#333" />
    </marker>
  </defs>
  <g transform="translate(8.50,8.50)">
    <g class="edgePaths">
      <path d="M50.35,89.40 L50.35,107.80 Q50.35,114.40 56.28,117.29 L142.70,159.44" stroke="#333" stroke-width="1.00" fill="none" stroke-linecap="round" stroke-linejoin="round" marker-end="url(#arrowhead)" />
      <path d="M185.05,89.40 L185.05,114.40 L185.05,139.40" stroke="#333" stroke-width="1.00" fill="none" stroke-linecap="round" stroke-linejoin="round" marker-end="url(#arrowhead)" />
      <path d="M319.75,89.40 L319.75,107.80 Q319.75,114.40 313.82,117.29 L227.40,159.44" stroke="#333" stroke-width="1.00" fill="none" stroke-linecap="round" stroke-linejoin="round" marker-end="url(#arrowhead)" />
    </g>
    <g class="edgeLabels">
    </g>
    <g class="nodes">
      <rect x="8.00" y="8.00" width="84.70" height="81.40" fill="white" stroke="#333" stroke-width="1.00" stroke-linejoin="round" />
      <text x="50.35" y="48.70" text-anchor="middle" dominant-baseline="middle" fill="#333">A</text>
      <rect x="142.70" y="8.00" width="84.70" height="81.40" fill="white" stroke="#333" stroke-width="1.00" stroke-linejoin="round" />
      <text x="185.05" y="48.70" text-anchor="middle" dominant-baseline="middle" fill="#333">B</text>
      <rect x="277.40" y="8.00" width="84.70" height="81.40" fill="white" stroke="#333" stroke-width="1.00" stroke-linejoin="round" />
      <text x="319.75" y="48.70" text-anchor="middle" dominant-baseline="middle" fill="#333">C</text>
      <rect x="142.70" y="139.40" width="84.70" height="81.40" fill="white" stroke="#333" stroke-width="1.00" stroke-linejoin="round" />
      <text x="185.05" y="180.10" text-anchor="middle" dominant-baseline="middle" fill="#333">X</text>
    </g>
  </g>
</svg>
