<svg xmlns="http://www.w3.org/2000/svg" width="100%" viewBox="0 0 435.88 378.00" style="max-width: 435.88px; background-color: transparent;" font-family="&quot;trebuchet ms&quot;, verdana, arial, sans-serif" font-size="16.00">
  <defs>
    <marker id="arrowhead" viewBox="0 0 10.00 10.00" refX="5.00" refY="5.00" markerWidth="8.00" markerHeight="8.00" orient="auto-start-reverse" markerUnits="userSpaceOnUse">
      <path d="M 0 0 L 10.00 5.00 L 0 10.00 z" fill="#333" />
    </marker>
  </defs>
  <g transform="translate(15.00,0.00)">
    <g class="clusters">
      <rect class="subgraph" x="-7.00" y="97.00" width="419.88" height="184.00" fill="none" stroke="#888" stroke-width="1.00" />
      <text x="202.94" y="101.00" text-anchor="middle" dominant-baseline="hanging" fill="#333">Cloud</text>
      <rect class="subgraph" x="13.00" y="122.00" width="379.88" height="134.00" fill="none" stroke="#888" stroke-width="1.00" />
      <text x="202.94" y="126.00" text-anchor="middle" dominant-baseline="hanging" fill="#333">US East</text>
    </g>
    <g class="edgePaths">
      <path d="M192.23,62.00 L190.58,66.17 C188.93,70.33 185.62,78.67 184.18,83.85 C182.73,89.03 183.14,91.05 183.34,92.07 L183.55,93.08" stroke="#333" stroke-width="1.00" fill="none" stroke-linecap="round" stroke-linejoin="round" marker-end="url(#arrowhead)" />
      <path d="M184.34,281.00 L184.00,282.67 C183.67,284.33 182.99,287.67 184.06,292.88 C185.13,298.09 187.95,305.19 189.35,308.73 L190.76,312.28" stroke="#333" stroke-width="1.00" fill="none" stroke-linecap="round" stroke-linejoin="round" marker-end="url(#arrowhead)" />
    </g>
    <g class="edgeLabels">
    </g>
    <g class="nodes">
      <rect x="152.34" y="8.00" width="101.20" height="54.00" fill="white" stroke="#333" stroke-width="1.00" stroke-linejoin="round" />
      <text x="202.94" y="35.00" text-anchor="middle" dominant-baseline="middle" fill="#333">Client</text>
      <rect x="134.52" y="316.00" width="136.84" height="54.00" fill="white" stroke="#333" stroke-width="1.00" stroke-linejoin="round" />
      <text x="202.94" y="343.00" text-anchor="middle" dominant-baseline="middle" fill="#333">Monitoring</text>
      <rect x="63.00" y="162.00" width="114.94" height="54.00" fill="white" stroke="#333" stroke-width="1.00" stroke-linejoin="round" />
      <text x="120.47" y="189.00" text-anchor="middle" dominant-baseline="middle" fill="#333">Server1</text>
      <rect x="227.94" y="162.00" width="114.94" height="54.00" fill="white" stroke="#333" stroke-width="1.00" stroke-linejoin="round" />
      <text x="285.41" y="189.00" text-anchor="middle" dominant-baseline="middle" fill="#333">Server2</text>
    </g>
  </g>
</svg>
