<svg xmlns="http://www.w3.org/2000/svg" width="100%" viewBox="0 0 116.46 798.00" style="max-width: 116.46px; background-color: transparent;" font-family="&quot;trebuchet ms&quot;, verdana, arial, sans-serif" font-size="16.00">
  <defs>
    <marker id="arrowhead" viewBox="0 0 10.00 10.00" refX="5.00" refY="5.00" markerWidth="8.00" markerHeight="8.00" orient="auto-start-reverse" markerUnits="userSpaceOnUse">
      <path d="M 0 0 L 10.00 5.00 L 0 10.00 z" fill="#333" />
    </marker>
    <marker id="crosshead" viewBox="0 0 11.00 11.00" refX="12.00" refY="5.20" markerWidth="11.00" markerHeight="11.00" orient="auto-start-reverse" markerUnits="userSpaceOnUse">
      <path d="M 1,1 l 9,9 M 10,1 l -9,9" stroke="#333" stroke-width="2" />
    </marker>
    <marker id="circlehead" viewBox="0 0 10.00 10.00" refX="11.00" refY="5.00" markerWidth="11.00" markerHeight="11.00" orient="auto-start-reverse" markerUnits="userSpaceOnUse">
      <circle cx="5" cy="5" r="5" stroke="#333" stroke-width="1" fill="#333" />
    </marker>
  </defs>
  <g transform="translate(0.00,0.00)">
    <g class="edgePaths">
      <path d="M58.23,62.00 L58.23,66.17 C58.23,70.33 58.23,78.67 58.23,86.33 C58.23,94.00 58.23,101.00 58.23,104.50 L58.23,108.00" stroke="#333" stroke-width="1.00" fill="none" stroke-linecap="round" stroke-linejoin="round" marker-end="url(#arrowhead)" />
      <path d="M58.23,166.00 L58.23,170.17 C58.23,174.33 58.23,182.67 58.23,190.33 C58.23,198.00 58.23,205.00 58.23,208.50 L58.23,212.00" stroke="#333" stroke-width="1.00" fill="none" stroke-linecap="round" stroke-linejoin="round" marker-end="url(#arrowhead)" />
      <path d="M58.23,270.00 L58.23,274.17 C58.23,278.33 58.23,286.67 58.23,294.33 C58.23,302.00 58.23,309.00 58.23,312.50 L58.23,316.00" stroke="#333" stroke-width="1.00" fill="none" stroke-linecap="round" stroke-linejoin="round" marker-end="url(#arrowhead)" />
      <path d="M58.23,374.00 L58.23,378.17 C58.23,382.33 58.23,390.67 58.23,398.33 C58.23,406.00 58.23,413.00 58.23,416.50 L58.23,420.00" stroke="#333" stroke-width="1.00" fill="none" stroke-linecap="round" stroke-linejoin="round" marker-end="url(#arrowhead)" />
      <path d="M58.23,478.00 L58.23,482.17 C58.23,486.33 58.23,494.67 58.23,502.33 C58.23,510.00 58.23,517.00 58.23,520.50 L58.23,524.00" stroke="#333" stroke-width="1.00" fill="none" stroke-linecap="round" stroke-linejoin="round" marker-end="url(#arrowhead)" />
      <path d="M58.23,582.00 L58.23,586.17 C58.23,590.33 58.23,598.67 58.23,606.33 C58.23,614.00 58.23,621.00 58.23,624.50 L58.23,628.00" stroke="#333" stroke-width="1.00" fill="none" stroke-linecap="round" stroke-linejoin="round" marker-end="url(#arrowhead)" />
      <path d="M58.23,686.00 L58.23,690.17 C58.23,694.33 58.23,702.67 58.23,710.33 C58.23,718.00 58.23,725.00 58.23,728.50 L58.23,732.00" stroke="#333" stroke-width="1.00" fill="none" stroke-linecap="round" stroke-linejoin="round" marker-end="url(#arrowhead)" />
    </g>
    <g class="edgeLabels">
    </g>
    <g class="nodes">
      <rect x="10.97" y="216.00" width="94.52" height="54.00" fill="white" stroke="#333" stroke-width="1.00" stroke-linejoin="round" />
      <text x="58.23" y="243.00" text-anchor="middle" dominant-baseline="middle" fill="#333">Bang</text>
      <rect x="14.22" y="112.00" width="88.03" height="54.00" fill="white" stroke="#333" stroke-width="1.00" stroke-linejoin="round" />
      <text x="58.23" y="139.00" text-anchor="middle" dominant-baseline="middle" fill="#333">Bolt</text>
      <rect x="8.65" y="8.00" width="99.16" height="54.00" fill="white" stroke="#333" stroke-width="1.00" stroke-linejoin="round" />
      <text x="58.23" y="35.00" text-anchor="middle" dominant-baseline="middle" fill="#333">Cloud</text>
      <rect x="14.87" y="632.00" width="86.73" height="54.00" fill="white" stroke="#333" stroke-width="1.00" stroke-linejoin="round" />
      <text x="58.23" y="659.00" text-anchor="middle" dominant-baseline="middle" fill="#333">Flip</text>
      <rect x="12.27" y="424.00" width="91.92" height="54.00" fill="white" stroke="#333" stroke-width="1.00" stroke-linejoin="round" />
      <text x="58.23" y="451.00" text-anchor="middle" dominant-baseline="middle" fill="#333">Hour</text>
      <rect x="10.97" y="320.00" width="94.52" height="54.00" fill="white" stroke="#333" stroke-width="1.00" stroke-linejoin="round" />
      <text x="58.23" y="347.00" text-anchor="middle" dominant-baseline="middle" fill="#333">Icon</text>
      <rect x="8.00" y="736.00" width="100.46" height="54.00" fill="white" stroke="#333" stroke-width="1.00" stroke-linejoin="round" />
      <text x="58.23" y="763.00" text-anchor="middle" dominant-baseline="middle" fill="#333">Notch</text>
      <rect x="18.49" y="528.00" width="79.49" height="54.00" fill="white" stroke="#333" stroke-width="1.00" stroke-linejoin="round" />
      <text x="58.23" y="555.00" text-anchor="middle" dominant-baseline="middle" fill="#333">Tri</text>
    </g>
  </g>
</svg>
