<svg xmlns="http://www.w3.org/2000/svg" width="100%" viewBox="0 0 116.96 902.00" style="max-width: 116.96px; background-color: transparent;" font-family="&quot;trebuchet ms&quot;, verdana, arial, sans-serif" font-size="16.00">
  <defs>
    <marker id="arrowhead" viewBox="0 0 8.00 8.00" refX="8.00" refY="4.00" markerWidth="8.00" markerHeight="8.00" orient="auto-start-reverse" markerUnits="userSpaceOnUse">
      <path d="M0,0 L8.00,4.00 L0,8.00 Z" fill="#333" />
    </marker>
  </defs>
  <g transform="translate(0.00,0.00)">
    <g class="edgePaths">
      <path d="M58.48,62.00 L58.48,66.17 C58.48,70.33 58.48,78.67 58.48,87.00 C58.48,95.33 58.48,103.67 58.48,107.83 L58.48,112.00" stroke="#333" stroke-width="1.00" fill="none" stroke-linecap="round" stroke-linejoin="round" marker-end="url(#arrowhead)" />
      <path d="M58.48,166.00 L58.48,170.17 C58.48,174.33 58.48,182.67 58.48,191.00 C58.48,199.33 58.48,207.67 58.48,211.83 L58.48,216.00" stroke="#333" stroke-width="1.00" fill="none" stroke-linecap="round" stroke-linejoin="round" marker-end="url(#arrowhead)" />
      <path d="M58.48,270.00 L58.48,274.17 C58.48,278.33 58.48,286.67 58.48,295.00 C58.48,303.33 58.48,311.67 58.48,315.83 L58.48,320.00" stroke="#333" stroke-width="1.00" fill="none" stroke-linecap="round" stroke-linejoin="round" marker-end="url(#arrowhead)" />
      <path d="M58.48,374.00 L58.48,378.17 C58.48,382.33 58.48,390.67 58.48,399.00 C58.48,407.33 58.48,415.67 58.48,419.83 L58.48,424.00" stroke="#333" stroke-width="1.00" fill="none" stroke-linecap="round" stroke-linejoin="round" marker-end="url(#arrowhead)" />
      <path d="M58.48,478.00 L58.48,482.17 C58.48,486.33 58.48,494.67 58.48,503.00 C58.48,511.33 58.48,519.67 58.48,523.83 L58.48,528.00" stroke="#333" stroke-width="1.00" fill="none" stroke-linecap="round" stroke-linejoin="round" marker-end="url(#arrowhead)" />
      <path d="M58.48,582.00 L58.48,586.17 C58.48,590.33 58.48,598.67 58.48,607.00 C58.48,615.33 58.48,623.67 58.48,627.83 L58.48,632.00" stroke="#333" stroke-width="1.00" fill="none" stroke-linecap="round" stroke-linejoin="round" marker-end="url(#arrowhead)" />
      <path d="M58.48,686.00 L58.48,690.17 C58.48,694.33 58.48,702.67 58.48,711.00 C58.48,719.33 58.48,727.67 58.48,731.83 L58.48,736.00" stroke="#333" stroke-width="1.00" fill="none" stroke-linecap="round" stroke-linejoin="round" marker-end="url(#arrowhead)" />
      <path d="M58.48,790.00 L58.48,794.17 C58.48,798.33 58.48,806.67 58.48,815.00 C58.48,823.33 58.48,831.67 58.48,835.83 L58.48,840.00" stroke="#333" stroke-width="1.00" fill="none" stroke-linecap="round" stroke-linejoin="round" marker-end="url(#arrowhead)" />
    </g>
    <g class="edgeLabels">
    </g>
    <g class="nodes">
      <rect x="13.60" y="216.00" width="89.76" height="54.00" fill="white" stroke="#333" stroke-width="1.00" stroke-linejoin="round" />
      <text x="58.48" y="243.00" text-anchor="middle" dominant-baseline="middle" fill="#333">Bang</text>
      <rect x="16.40" y="112.00" width="84.16" height="54.00" fill="white" stroke="#333" stroke-width="1.00" stroke-linejoin="round" />
      <text x="58.48" y="139.00" text-anchor="middle" dominant-baseline="middle" fill="#333">Bolt</text>
      <rect x="11.60" y="8.00" width="93.76" height="54.00" fill="white" stroke="#333" stroke-width="1.00" stroke-linejoin="round" />
      <text x="58.48" y="35.00" text-anchor="middle" dominant-baseline="middle" fill="#333">Cloud</text>
      <rect x="16.96" y="736.00" width="83.04" height="54.00" fill="white" stroke="#333" stroke-width="1.00" stroke-linejoin="round" />
      <text x="58.48" y="763.00" text-anchor="middle" dominant-baseline="middle" fill="#333">Flip</text>
      <rect x="14.72" y="528.00" width="87.52" height="54.00" fill="white" stroke="#333" stroke-width="1.00" stroke-linejoin="round" />
      <text x="58.48" y="555.00" text-anchor="middle" dominant-baseline="middle" fill="#333">Hour</text>
      <rect x="13.60" y="320.00" width="89.76" height="54.00" fill="white" stroke="#333" stroke-width="1.00" stroke-linejoin="round" />
      <text x="58.48" y="347.00" text-anchor="middle" dominant-baseline="middle" fill="#333">Icon</text>
      <rect x="8.00" y="424.00" width="100.96" height="54.00" fill="white" stroke="#333" stroke-width="1.00" stroke-linejoin="round" />
      <text x="58.48" y="451.00" text-anchor="middle" dominant-baseline="middle" fill="#333">Image</text>
      <rect x="11.04" y="840.00" width="94.88" height="54.00" fill="white" stroke="#333" stroke-width="1.00" stroke-linejoin="round" />
      <text x="58.48" y="867.00" text-anchor="middle" dominant-baseline="middle" fill="#333">Notch</text>
      <rect x="20.08" y="632.00" width="76.80" height="54.00" fill="white" stroke="#333" stroke-width="1.00" stroke-linejoin="round" />
      <text x="58.48" y="659.00" text-anchor="middle" dominant-baseline="middle" fill="#333">Tri</text>
    </g>
  </g>
</svg>
