<svg xmlns="http://www.w3.org/2000/svg" width="100%" viewBox="0 0 90.80 486.00" style="max-width: 90.80px; background-color: transparent;" font-family="&quot;trebuchet ms&quot;, verdana, arial, sans-serif" font-size="16.00">
  <defs>
    <marker id="arrowhead" viewBox="0 0 8.00 8.00" refX="8.00" refY="4.00" markerWidth="8.00" markerHeight="8.00" orient="auto-start-reverse" markerUnits="userSpaceOnUse">
      <path d="M0,0 L8.00,4.00 L0,8.00 Z" fill="#333" />
    </marker>
  </defs>
  <g transform="translate(0.00,0.00)">
    <g class="edgePaths">
      <path d="M45.40,62.00 L45.40,66.17 C45.40,70.33 45.40,78.67 45.40,87.00 C45.40,95.33 45.40,103.67 45.40,107.83 L45.40,112.00" stroke="#333" stroke-width="1.00" fill="none" stroke-linecap="round" stroke-linejoin="round" marker-end="url(#arrowhead)" />
      <path d="M45.40,166.00 L45.40,170.17 C45.40,174.33 45.40,182.67 45.40,191.00 C45.40,199.33 45.40,207.67 45.40,211.83 L45.40,216.00" stroke="#333" stroke-width="1.00" fill="none" stroke-linecap="round" stroke-linejoin="round" marker-end="url(#arrowhead)" />
      <path d="M45.40,270.00 L45.40,274.17 C45.40,278.33 45.40,286.67 45.40,295.00 C45.40,303.33 45.40,311.67 45.40,315.83 L45.40,320.00" stroke="#333" stroke-width="1.00" fill="none" stroke-linecap="round" stroke-linejoin="round" marker-end="url(#arrowhead)" />
      <path d="M45.40,374.00 L45.40,378.17 C45.40,382.33 45.40,390.67 45.40,399.00 C45.40,407.33 45.40,415.67 45.40,419.83 L45.40,424.00" stroke="#333" stroke-width="1.00" fill="none" stroke-linecap="round" stroke-linejoin="round" marker-end="url(#arrowhead)" />
    </g>
    <g class="edgeLabels">
    </g>
    <g class="nodes">
      <rect x="16.64" y="320.00" width="57.52" height="54.00" fill="white" stroke="#333" stroke-width="1.00" stroke-linejoin="round" />
      <path d="M63.36,320.00 L74.16,320.00 L74.16,330.80" stroke="#333" stroke-width="1.00" fill="none" />
      <text x="45.40" y="347.00" text-anchor="middle" dominant-baseline="middle" fill="#333">Card</text>
      <rect x="19.20" y="8.00" width="52.40" height="54.00" fill="white" stroke="#333" stroke-width="1.00" stroke-linejoin="round" />
      <path d="M19.20,55.52 Q32.30,62.00 45.40,55.52 Q58.50,55.52 71.60,55.52" fill="none" stroke="#333" stroke-width="1.00" />
      <text x="45.40" y="35.00" text-anchor="middle" dominant-baseline="middle" fill="#333">Doc</text>
      <rect x="15.52" y="112.00" width="59.76" height="54.00" fill="white" stroke="#333" stroke-width="1.00" stroke-linejoin="round" />
      <path d="M15.52,159.52 Q30.46,166.00 45.40,159.52 Q60.34,159.52 75.28,159.52" fill="none" stroke="#333" stroke-width="1.00" />
      <rect x="22.00" y="118.48" width="59.76" height="54.00" fill="none" stroke="#333" stroke-width="1.00" opacity="0.4" />
      <text x="45.40" y="139.00" text-anchor="middle" dominant-baseline="middle" fill="#333">Docs</text>
      <rect x="19.20" y="424.00" width="52.40" height="54.00" fill="white" stroke="#333" stroke-width="1.00" stroke-linejoin="round" />
      <path d="M61.12,424.00 L71.60,424.00 L71.60,434.48" stroke="#333" stroke-width="1.00" fill="none" />
      <text x="45.40" y="451.00" text-anchor="middle" dominant-baseline="middle" fill="#333">Tag</text>
      <rect x="8.00" y="216.00" width="74.80" height="54.00" fill="white" stroke="#333" stroke-width="1.00" stroke-linejoin="round" />
      <path d="M72.00,216.00 L82.80,216.00 L82.80,226.80" stroke="#333" stroke-width="1.00" fill="none" />
      <path d="M8.00,263.52 Q26.70,270.00 45.40,263.52 Q64.10,263.52 82.80,263.52" fill="none" stroke="#333" stroke-width="1.00" />
      <text x="45.40" y="243.00" text-anchor="middle" dominant-baseline="middle" fill="#333">TagDoc</text>
    </g>
  </g>
</svg>
