<svg xmlns="http://www.w3.org/2000/svg" width="100%" viewBox="0 0 141.12 278.00" style="max-width: 141.12px; background-color: transparent;" font-family="&quot;trebuchet ms&quot;, verdana, arial, sans-serif" font-size="16.00">
  <defs>
    <marker id="arrowhead" viewBox="0 0 10.00 10.00" refX="5.00" refY="5.00" markerWidth="8.00" markerHeight="8.00" orient="auto-start-reverse" markerUnits="userSpaceOnUse">
      <path d="M 0 0 L 10.00 5.00 L 0 10.00 z" fill="#333" />
    </marker>
  </defs>
  <g transform="translate(0.00,0.00)">
    <g class="edgePaths">
      <path d="M69.86,62.00 L66.73,66.17 C63.60,70.33 57.34,78.67 54.21,86.33 C51.08,94.00 51.08,101.00 51.08,104.50 L51.08,108.00" stroke="#333" stroke-width="1.00" fill="none" stroke-linecap="round" stroke-linejoin="round" marker-end="url(#arrowhead)" />
      <path d="M51.08,166.00 L51.08,169.33 C51.08,172.67 51.08,179.33 51.45,183.14 C51.81,186.94 52.53,187.89 53.03,189.39 C53.53,190.89 53.81,192.94 56.18,196.94 C58.54,200.93 63.00,206.87 65.23,209.83 L67.45,212.80" stroke="#333" stroke-width="1.00" fill="none" stroke-linecap="round" stroke-linejoin="round" marker-end="url(#arrowhead)" />
      <path d="M110.40,62.00 L113.53,66.17 C116.66,70.33 122.91,78.67 126.04,87.00 C129.17,95.33 129.17,103.67 129.17,120.17 C129.17,136.67 129.17,161.33 128.81,174.14 C128.45,186.94 127.72,187.89 127.22,189.39 C126.72,190.89 126.44,192.94 124.08,196.94 C121.71,200.93 117.26,206.87 115.03,209.83 L112.80,212.80" stroke="#333" stroke-width="1.00" fill="none" stroke-linecap="round" stroke-linejoin="round" marker-end="url(#arrowhead)" />
    </g>
    <g class="edgeLabels">
    </g>
    <g class="nodes">
      <rect x="47.14" y="8.00" width="85.98" height="54.00" fill="white" stroke="#333" stroke-width="1.00" stroke-linejoin="round" />
      <text x="90.13" y="35.00" text-anchor="middle" dominant-baseline="middle" fill="#333">Top</text>
      <rect x="8.00" y="112.00" width="86.17" height="54.00" fill="white" stroke="#333" stroke-width="1.00" stroke-linejoin="round" />
      <text x="51.08" y="139.00" text-anchor="middle" dominant-baseline="middle" fill="#333">Mid</text>
      <rect x="48.43" y="216.00" width="83.39" height="54.00" fill="white" stroke="#333" stroke-width="1.00" stroke-linejoin="round" />
      <text x="90.13" y="243.00" text-anchor="middle" dominant-baseline="middle" fill="#333">Bot</text>
    </g>
  </g>
</svg>
