<svg xmlns="http://www.w3.org/2000/svg" width="100%" viewBox="0 0 322.73 482.00" style="max-width: 322.73px; background-color: transparent;" font-family="&quot;trebuchet ms&quot;, verdana, arial, sans-serif" font-size="16.00">
  <defs>
    <marker id="arrowhead" viewBox="0 0 10.00 10.00" refX="5.00" refY="5.00" markerWidth="8.00" markerHeight="8.00" orient="auto-start-reverse" markerUnits="userSpaceOnUse">
      <path d="M 0 0 L 10.00 5.00 L 0 10.00 z" fill="#333" />
    </marker>
  </defs>
  <g transform="translate(63.91,0.00)">
    <g class="clusters">
      <rect class="subgraph" x="8.00" y="8.00" width="178.91" height="466.00" fill="none" stroke="#888" stroke-width="1.00" />
      <text x="97.45" y="12.00" text-anchor="middle" dominant-baseline="hanging" fill="#333">Vertical Outer</text>
      <rect class="subgraph" x="-55.91" y="137.00" width="306.73" height="312.00" fill="none" stroke="#888" stroke-width="1.00" />
      <text x="97.45" y="141.00" text-anchor="middle" dominant-baseline="hanging" fill="#333">Horizontal Inner</text>
    </g>
    <g class="edgePaths">
      <path d="M13.00,293.00 L17.17,293.00 C21.33,293.00 29.67,293.00 37.33,293.00 C45.00,293.00 52.00,293.00 55.50,293.00 L59.00,293.00" stroke="#333" stroke-width="1.00" fill="none" stroke-linecap="round" stroke-linejoin="round" marker-end="url(#arrowhead)" />
      <path d="M131.91,293.00 L136.08,293.00 C140.24,293.00 148.58,293.00 156.24,293.00 C163.91,293.00 170.91,293.00 174.41,293.00 L177.91,293.00" stroke="#333" stroke-width="1.00" fill="none" stroke-linecap="round" stroke-linejoin="round" marker-end="url(#arrowhead)" />
      <path d="M97.45,87.00 L97.45,91.17 C97.45,95.33 97.45,103.67 97.45,111.17 C97.45,118.67 97.45,125.33 97.09,129.14 C96.73,132.94 96.01,133.89 95.50,135.38 C95.00,136.88 94.71,138.93 79.09,160.26 C63.47,181.59 32.51,222.20 17.03,242.51 L1.55,262.82" stroke="#333" stroke-width="1.00" fill="none" stroke-linecap="round" stroke-linejoin="round" marker-end="url(#arrowhead)" />
    </g>
    <g class="edgeLabels">
    </g>
    <g class="nodes">
      <rect x="-55.91" y="266.00" width="68.91" height="54.00" fill="white" stroke="#333" stroke-width="1.00" stroke-linejoin="round" />
      <text x="-21.45" y="293.00" text-anchor="middle" dominant-baseline="middle" fill="#333">A</text>
      <rect x="63.00" y="266.00" width="68.91" height="54.00" fill="white" stroke="#333" stroke-width="1.00" stroke-linejoin="round" />
      <text x="97.45" y="293.00" text-anchor="middle" dominant-baseline="middle" fill="#333">B</text>
      <rect x="181.91" y="266.00" width="68.91" height="54.00" fill="white" stroke="#333" stroke-width="1.00" stroke-linejoin="round" />
      <text x="216.36" y="293.00" text-anchor="middle" dominant-baseline="middle" fill="#333">C</text>
      <rect x="63.00" y="33.00" width="68.91" height="54.00" fill="white" stroke="#333" stroke-width="1.00" stroke-linejoin="round" />
      <text x="97.45" y="60.00" text-anchor="middle" dominant-baseline="middle" fill="#333">D</text>
    </g>
  </g>
</svg>
