<svg xmlns="http://www.w3.org/2000/svg" width="100%" viewBox="0 0 322.73 482.00" style="max-width: 322.73px; background-color: transparent;" font-family="&quot;trebuchet ms&quot;, verdana, arial, sans-serif" font-size="16.00">
  <defs>
    <marker id="arrowhead" viewBox="0 0 10.00 10.00" refX="5.00" refY="5.00" markerWidth="8.00" markerHeight="8.00" orient="auto-start-reverse" markerUnits="userSpaceOnUse">
      <path d="M 0 0 L 10.00 5.00 L 0 10.00 z" fill="#333" />
    </marker>
  </defs>
  <g transform="translate(63.91,0.00)">
    <g class="clusters">
      <rect class="subgraph" x="-55.91" y="112.00" width="306.73" height="362.00" fill="none" stroke="#888" stroke-width="1.00" />
      <text x="97.45" y="116.00" text-anchor="middle" dominant-baseline="hanging" fill="#333">Outer LR</text>
      <rect class="subgraph" x="28.00" y="241.00" width="138.91" height="208.00" fill="none" stroke="#888" stroke-width="1.00" />
      <text x="97.45" y="245.00" text-anchor="middle" dominant-baseline="hanging" fill="#333">Inner BT</text>
    </g>
    <g class="edgePaths">
      <path d="M97.45,370.00 L97.45,365.83 C97.45,361.67 97.45,353.33 97.45,345.67 C97.45,338.00 97.45,331.00 97.45,327.50 L97.45,324.00" stroke="#333" stroke-width="1.00" fill="none" stroke-linecap="round" stroke-linejoin="round" marker-end="url(#arrowhead)" />
      <path d="M13.00,293.00 L16.33,293.00 C19.67,293.00 26.33,293.00 30.14,293.36 C33.94,293.72 34.89,294.45 36.13,295.17 C37.38,295.89 38.93,296.62 46.30,308.51 C53.67,320.40 66.85,343.47 73.44,355.00 L80.03,366.53" stroke="#333" stroke-width="1.00" fill="none" stroke-linecap="round" stroke-linejoin="round" marker-end="url(#arrowhead)" />
      <path d="M97.45,62.00 L97.45,66.17 C97.45,70.33 97.45,78.67 97.45,86.17 C97.45,93.67 97.45,100.33 97.09,104.14 C96.73,107.94 96.01,108.89 95.55,110.42 C95.09,111.95 94.90,114.06 78.77,139.53 C62.63,165.00 30.56,213.83 14.52,238.24 L-1.52,262.66" stroke="#333" stroke-width="1.00" fill="none" stroke-linecap="round" stroke-linejoin="round" marker-end="url(#arrowhead)" />
    </g>
    <g class="edgeLabels">
    </g>
    <g class="nodes">
      <rect x="63.00" y="370.00" width="68.91" height="54.00" fill="white" stroke="#333" stroke-width="1.00" stroke-linejoin="round" />
      <text x="97.45" y="397.00" text-anchor="middle" dominant-baseline="middle" fill="#333">A</text>
      <rect x="63.00" y="266.00" width="68.91" height="54.00" fill="white" stroke="#333" stroke-width="1.00" stroke-linejoin="round" />
      <text x="97.45" y="293.00" text-anchor="middle" dominant-baseline="middle" fill="#333">B</text>
      <rect x="-55.91" y="266.00" width="68.91" height="54.00" fill="white" stroke="#333" stroke-width="1.00" stroke-linejoin="round" />
      <text x="-21.45" y="293.00" text-anchor="middle" dominant-baseline="middle" fill="#333">C</text>
      <rect x="63.00" y="8.00" width="68.91" height="54.00" fill="white" stroke="#333" stroke-width="1.00" stroke-linejoin="round" />
      <text x="97.45" y="35.00" text-anchor="middle" dominant-baseline="middle" fill="#333">D</text>
    </g>
  </g>
</svg>
