<svg xmlns="http://www.w3.org/2000/svg" width="100%" viewBox="0 0 352.73 403.30" style="max-width: 352.73px; background-color: transparent;" font-family="&quot;trebuchet ms&quot;, verdana, arial, sans-serif" font-size="16.00">
  <defs>
    <marker id="arrowhead" viewBox="0 0 10.00 10.00" refX="5.00" refY="5.00" markerWidth="8.00" markerHeight="8.00" orient="auto-start-reverse" markerUnits="userSpaceOnUse">
      <path d="M 0 0 L 10.00 5.00 L 0 10.00 z" fill="#333" />
    </marker>
  </defs>
  <g transform="translate(78.91,0.00)">
    <g class="clusters">
      <rect class="subgraph" x="-70.91" y="225.70" width="336.73" height="109.60" fill="none" stroke="#888" stroke-width="1.00" />
      <text x="97.45" y="229.70" text-anchor="middle" dominant-baseline="hanging" fill="#333">Outer LR</text>
      <rect class="subgraph" x="107.45" y="181.70" width="98.91" height="213.60" fill="none" stroke="#888" stroke-width="1.00" />
      <text x="156.91" y="185.70" text-anchor="middle" dominant-baseline="hanging" fill="#333">Inner BT</text>
    </g>
    <g class="edgePaths">
      <path d="M156.91,321.50 L156.91,275.50" stroke="#333" stroke-width="1.00" fill="none" stroke-linecap="round" stroke-linejoin="round" marker-end="url(#arrowhead)" />
      <path d="M-21.45,261.50 L-21.45,271.30 C-21.45,281.10 -21.45,300.70 8.27,310.50 C38.00,320.30 97.45,320.30 127.18,328.83 C156.91,337.37 156.91,354.43 156.91,362.97 L156.91,371.50" stroke="#333" stroke-width="1.00" fill="none" stroke-linecap="round" stroke-linejoin="round" marker-end="url(#arrowhead)" />
      <path d="M97.45,62.00 L97.45,91.78 C97.45,121.57 97.45,181.13 77.64,210.92 C57.82,240.70 18.18,240.70 -1.64,243.50 C-21.45,246.30 -21.45,251.90 -21.45,254.70 L-21.45,257.50" stroke="#333" stroke-width="1.00" fill="none" stroke-linecap="round" stroke-linejoin="round" marker-end="url(#arrowhead)" />
    </g>
    <g class="edgeLabels">
    </g>
    <g class="nodes">
      <rect x="122.45" y="321.50" width="68.91" height="54.00" fill="white" stroke="#333" stroke-width="1.00" stroke-linejoin="round" />
      <text x="156.91" y="348.50" text-anchor="middle" dominant-baseline="middle" fill="#333">A</text>
      <rect x="122.45" y="217.50" width="68.91" height="54.00" fill="white" stroke="#333" stroke-width="1.00" stroke-linejoin="round" />
      <text x="156.91" y="244.50" text-anchor="middle" dominant-baseline="middle" fill="#333">B</text>
      <rect x="-55.91" y="261.50" width="68.91" height="54.00" fill="white" stroke="#333" stroke-width="1.00" stroke-linejoin="round" />
      <text x="-21.45" y="288.50" text-anchor="middle" dominant-baseline="middle" fill="#333">C</text>
      <rect x="63.00" y="8.00" width="68.91" height="54.00" fill="white" stroke="#333" stroke-width="1.00" stroke-linejoin="round" />
      <text x="97.45" y="35.00" text-anchor="middle" dominant-baseline="middle" fill="#333">D</text>
    </g>
  </g>
</svg>
