<svg xmlns="http://www.w3.org/2000/svg" width="100%" viewBox="0 0 372.73 823.00" style="max-width: 372.73px; background-color: transparent;" font-family="&quot;trebuchet ms&quot;, verdana, arial, sans-serif" font-size="16.00">
  <defs>
    <marker id="arrowhead" viewBox="0 0 10.00 10.00" refX="5.00" refY="5.00" markerWidth="8.00" markerHeight="8.00" orient="auto-start-reverse" markerUnits="userSpaceOnUse">
      <path d="M 0 0 L 10.00 5.00 L 0 10.00 z" fill="#333" />
    </marker>
  </defs>
  <g transform="translate(0.00,-25.00)">
    <g class="clusters">
      <rect class="subgraph" x="77.45" y="288.20" width="217.82" height="79.60" fill="none" stroke="#888" stroke-width="1.00" />
      <text x="186.36" y="292.20" text-anchor="middle" dominant-baseline="hanging" fill="#333">Horizontal Section</text>
    </g>
    <g class="edgePaths">
      <path d="M161.36,336.00 L165.53,336.00 C169.70,336.00 178.03,336.00 185.70,336.00 C193.36,336.00 200.36,336.00 203.86,336.00 L207.36,336.00" stroke="#333" stroke-width="1.00" fill="none" stroke-linecap="round" stroke-linejoin="round" marker-end="url(#arrowhead)" />
      <path d="M327.92,87.00 L324.99,120.53 C322.07,154.07 316.22,221.13 288.59,254.67 C260.96,288.20 211.55,288.20 187.54,290.93 C163.54,293.66 164.95,299.12 165.35,302.28 C165.75,305.44 165.15,306.30 164.84,306.73 L164.54,307.15" stroke="#333" stroke-width="1.00" fill="none" stroke-linecap="round" stroke-linejoin="round" marker-end="url(#arrowhead)" />
      <path d="M330.27,87.00 L330.27,91.17 C330.27,95.33 330.27,103.67 330.27,111.33 C330.27,119.00 330.27,126.00 330.27,129.50 L330.27,133.00" stroke="#333" stroke-width="1.00" fill="none" stroke-linecap="round" stroke-linejoin="round" marker-end="url(#arrowhead)" />
      <path d="M330.27,191.00 L330.27,195.17 C330.27,199.33 330.27,207.67 330.27,215.33 C330.27,223.00 330.27,230.00 330.27,233.50 L330.27,237.00" stroke="#333" stroke-width="1.00" fill="none" stroke-linecap="round" stroke-linejoin="round" marker-end="url(#arrowhead)" />
      <path d="M330.27,295.00 L330.27,299.17 C330.27,303.33 330.27,311.67 330.27,319.33 C330.27,327.00 330.27,334.00 330.27,337.50 L330.27,341.00" stroke="#333" stroke-width="1.00" fill="none" stroke-linecap="round" stroke-linejoin="round" marker-end="url(#arrowhead)" />
      <path d="M295.82,365.80 L295.82,365.80 C295.82,365.80 295.82,365.80 295.73,365.80 C295.64,365.80 295.45,365.80 295.36,361.85 C295.27,357.90 295.27,350.00 273.62,345.27 C251.97,340.53 208.66,338.96 187.01,338.18 L165.36,337.39" stroke="#333" stroke-width="1.00" fill="none" stroke-linecap="round" stroke-linejoin="round" marker-end="url(#arrowhead)" />
      <path d="M118.97,363.00 L118.74,363.80 C118.50,364.60 118.03,366.20 117.52,367.00 C117.01,367.80 116.46,367.80 116.18,397.83 C115.90,427.87 115.90,487.93 115.54,518.44 C115.18,548.94 114.45,549.89 113.67,551.01 C112.89,552.13 112.05,553.43 106.54,555.95 C101.03,558.47 90.85,562.21 85.75,564.08 L80.66,565.95" stroke="#333" stroke-width="1.00" fill="none" stroke-linecap="round" stroke-linejoin="round" marker-end="url(#arrowhead)" />
      <path d="M42.45,607.00 L42.45,611.17 C42.45,615.33 42.45,623.67 42.45,632.00 C42.45,640.33 42.45,648.67 42.45,656.33 C42.45,664.00 42.45,671.00 42.45,674.50 L42.45,678.00" stroke="#333" stroke-width="1.00" fill="none" stroke-linecap="round" stroke-linejoin="round" marker-end="url(#arrowhead)" />
      <path d="M42.45,736.00 L42.45,740.17 C42.45,744.33 42.45,752.67 47.75,760.80 C53.05,768.94 63.65,776.87 68.95,780.84 L74.25,784.81" stroke="#333" stroke-width="1.00" fill="none" stroke-linecap="round" stroke-linejoin="round" marker-end="url(#arrowhead)" />
      <path d="M239.38,363.00 L239.19,363.80 C239.00,364.60 238.62,366.20 238.20,367.00 C237.79,367.80 237.34,367.80 237.11,436.67 C236.89,505.53 236.89,643.27 236.53,712.60 C236.17,781.94 235.44,782.89 234.63,783.89 C233.81,784.90 232.91,785.98 218.83,789.46 C204.76,792.94 177.52,798.83 163.89,801.77 L150.27,804.71" stroke="#333" stroke-width="1.00" fill="none" stroke-linecap="round" stroke-linejoin="round" marker-end="url(#arrowhead)" />
    </g>
    <g class="edgeLabels">
    </g>
    <g class="nodes">
      <rect x="92.45" y="309.00" width="68.91" height="54.00" fill="white" stroke="#333" stroke-width="1.00" stroke-linejoin="round" />
      <text x="126.91" y="336.00" text-anchor="middle" dominant-baseline="middle" fill="#333">A</text>
      <rect x="211.36" y="309.00" width="68.91" height="54.00" fill="white" stroke="#333" stroke-width="1.00" stroke-linejoin="round" />
      <text x="245.82" y="336.00" text-anchor="middle" dominant-baseline="middle" fill="#333">B</text>
      <rect x="295.82" y="33.00" width="68.91" height="54.00" fill="white" stroke="#333" stroke-width="1.00" stroke-linejoin="round" />
      <text x="330.27" y="60.00" text-anchor="middle" dominant-baseline="middle" fill="#333">C</text>
      <rect x="77.45" y="786.00" width="68.91" height="54.00" fill="white" stroke="#333" stroke-width="1.00" stroke-linejoin="round" />
      <text x="111.91" y="813.00" text-anchor="middle" dominant-baseline="middle" fill="#333">D</text>
      <rect x="8.00" y="553.00" width="68.91" height="54.00" fill="white" stroke="#333" stroke-width="1.00" stroke-linejoin="round" />
      <text x="42.45" y="580.00" text-anchor="middle" dominant-baseline="middle" fill="#333">E</text>
      <rect x="8.00" y="682.00" width="68.91" height="54.00" fill="white" stroke="#333" stroke-width="1.00" stroke-linejoin="round" />
      <text x="42.45" y="709.00" text-anchor="middle" dominant-baseline="middle" fill="#333">F</text>
      <rect x="295.82" y="137.00" width="68.91" height="54.00" fill="white" stroke="#333" stroke-width="1.00" stroke-linejoin="round" />
      <text x="330.27" y="164.00" text-anchor="middle" dominant-baseline="middle" fill="#333">X</text>
      <rect x="295.82" y="241.00" width="68.91" height="54.00" fill="white" stroke="#333" stroke-width="1.00" stroke-linejoin="round" />
      <text x="330.27" y="268.00" text-anchor="middle" dominant-baseline="middle" fill="#333">Y</text>
      <rect x="295.82" y="345.00" width="68.91" height="54.00" fill="white" stroke="#333" stroke-width="1.00" stroke-linejoin="round" />
      <text x="330.27" y="372.00" text-anchor="middle" dominant-baseline="middle" fill="#333">Z</text>
    </g>
  </g>
</svg>
