<svg xmlns="http://www.w3.org/2000/svg" width="100%" viewBox="0 0 363.29 328.00" style="max-width: 363.29px; background-color: transparent;" font-family="&quot;trebuchet ms&quot;, verdana, arial, sans-serif" font-size="16.00">
  <defs>
    <marker id="arrowhead" viewBox="0 0 10.00 10.00" refX="5.00" refY="5.00" markerWidth="8.00" markerHeight="8.00" orient="auto-start-reverse" markerUnits="userSpaceOnUse">
      <path d="M 0 0 L 10.00 5.00 L 0 10.00 z" fill="#333" />
    </marker>
  </defs>
  <g transform="translate(0.00,0.00)">
    <g class="clusters">
      <rect class="subgraph" x="137.52" y="112.00" width="217.77" height="208.00" fill="none" stroke="#888" stroke-width="1.00" />
      <text x="246.40" y="116.00" text-anchor="middle" dominant-baseline="hanging" fill="#333">Backend</text>
    </g>
    <g class="edgePaths">
      <path d="M248.55,191.00 L249.35,195.17 C250.15,199.33 251.75,207.67 252.55,215.33 C253.35,223.00 253.35,230.00 253.35,233.50 L253.35,237.00" stroke="#333" stroke-width="1.00" fill="none" stroke-linecap="round" stroke-linejoin="round" marker-end="url(#arrowhead)" />
      <path d="M243.35,62.00 L243.35,66.17 C243.35,70.33 243.35,78.67 243.35,87.00 C243.35,95.33 243.35,103.67 243.35,111.33 C243.35,119.00 243.35,126.00 243.35,129.50 L243.35,133.00" stroke="#333" stroke-width="1.00" fill="none" stroke-linecap="round" stroke-linejoin="round" marker-end="url(#arrowhead)" />
      <path d="M221.07,191.00 L217.63,195.17 C214.19,199.33 207.32,207.67 188.18,217.45 C169.05,227.24 137.67,238.48 121.98,244.10 L106.29,249.72" stroke="#333" stroke-width="1.00" fill="none" stroke-linecap="round" stroke-linejoin="round" marker-end="url(#arrowhead)" />
    </g>
    <g class="edgeLabels">
    </g>
    <g class="nodes">
      <rect x="172.52" y="137.00" width="141.66" height="54.00" fill="white" stroke="#333" stroke-width="1.00" stroke-linejoin="round" />
      <text x="243.35" y="164.00" text-anchor="middle" dominant-baseline="middle" fill="#333">API Server</text>
      <rect x="192.75" y="8.00" width="101.20" height="54.00" fill="white" stroke="#333" stroke-width="1.00" stroke-linejoin="round" />
      <text x="243.35" y="35.00" text-anchor="middle" dominant-baseline="middle" fill="#333">Client</text>
      <rect x="190.32" y="241.00" width="126.07" height="54.00" fill="white" stroke="#333" stroke-width="1.00" stroke-linejoin="round" />
      <text x="253.35" y="268.00" text-anchor="middle" dominant-baseline="middle" fill="#333">Database</text>
      <rect x="8.00" y="241.00" width="94.52" height="54.00" fill="white" stroke="#333" stroke-width="1.00" stroke-linejoin="round" />
      <text x="55.26" y="268.00" text-anchor="middle" dominant-baseline="middle" fill="#333">Logs</text>
    </g>
  </g>
</svg>
