<svg xmlns="http://www.w3.org/2000/svg" width="100%" viewBox="0 0 355.61 274.00" style="max-width: 355.61px; background-color: transparent;" font-family="&quot;trebuchet ms&quot;, verdana, arial, sans-serif" font-size="16.00">
  <defs>
    <marker id="arrowhead" viewBox="0 0 10.00 10.00" refX="5.00" refY="5.00" markerWidth="8.00" markerHeight="8.00" orient="auto-start-reverse" markerUnits="userSpaceOnUse">
      <path d="M 0 0 L 10.00 5.00 L 0 10.00 z" fill="#333" />
    </marker>
  </defs>
  <g transform="translate(8.00,0.00)">
    <g class="clusters">
      <rect class="subgraph" x="6.59" y="8.00" width="333.02" height="104.00" fill="none" stroke="#888" stroke-width="1.00" />
      <text x="173.10" y="12.00" text-anchor="middle" dominant-baseline="hanging" fill="#333">Input</text>
      <rect class="subgraph" x="0.00" y="162.00" width="330.05" height="104.00" fill="none" stroke="#888" stroke-width="1.00" />
      <text x="165.03" y="166.00" text-anchor="middle" dominant-baseline="hanging" fill="#333">Output</text>
    </g>
    <g class="edgePaths">
      <path d="M95.55,87.00 L95.55,91.17 C95.55,95.33 95.55,103.67 95.55,112.00 C95.55,120.33 95.55,128.67 95.55,137.00 C95.55,145.33 95.55,153.67 95.55,161.33 C95.55,169.00 95.55,176.00 95.55,179.50 L95.55,183.00" stroke="#333" stroke-width="1.00" fill="none" stroke-linecap="round" stroke-linejoin="round" marker-end="url(#arrowhead)" />
      <path d="M244.06,87.00 L244.06,91.17 C244.06,95.33 244.06,103.67 244.06,112.00 C244.06,120.33 244.06,128.67 244.06,137.00 C244.06,145.33 244.06,153.67 244.06,161.33 C244.06,169.00 244.06,176.00 244.06,179.50 L244.06,183.00" stroke="#333" stroke-width="1.00" fill="none" stroke-linecap="round" stroke-linejoin="round" marker-end="url(#arrowhead)" />
    </g>
    <g class="edgeLabels">
    </g>
    <g class="nodes">
      <rect x="49.59" y="33.00" width="91.92" height="54.00" fill="white" stroke="#333" stroke-width="1.00" stroke-linejoin="round" />
      <text x="95.55" y="60.00" text-anchor="middle" dominant-baseline="middle" fill="#333">Data</text>
      <rect x="191.51" y="33.00" width="105.10" height="54.00" fill="white" stroke="#333" stroke-width="1.00" stroke-linejoin="round" />
      <text x="244.06" y="60.00" text-anchor="middle" dominant-baseline="middle" fill="#333">Config</text>
      <rect x="43.00" y="187.00" width="105.10" height="54.00" fill="white" stroke="#333" stroke-width="1.00" stroke-linejoin="round" />
      <text x="95.55" y="214.00" text-anchor="middle" dominant-baseline="middle" fill="#333">Result</text>
      <rect x="201.07" y="187.00" width="85.98" height="54.00" fill="white" stroke="#333" stroke-width="1.00" stroke-linejoin="round" />
      <text x="244.06" y="214.00" text-anchor="middle" dominant-baseline="middle" fill="#333">Log</text>
    </g>
  </g>
</svg>
