<svg xmlns="http://www.w3.org/2000/svg" width="100%" viewBox="0 0 527.08 408.00" style="max-width: 527.08px; background-color: transparent;" font-family="&quot;trebuchet ms&quot;, verdana, arial, sans-serif" font-size="16.00">
  <defs>
    <marker id="arrowhead" viewBox="0 0 10.00 10.00" refX="5.00" refY="5.00" markerWidth="8.00" markerHeight="8.00" orient="auto-start-reverse" markerUnits="userSpaceOnUse">
      <path d="M 0 0 L 10.00 5.00 L 0 10.00 z" fill="#333" />
    </marker>
  </defs>
  <g transform="translate(15.00,15.00)">
    <g class="clusters">
      <rect class="subgraph" x="-7.00" y="122.00" width="241.66" height="263.00" fill="none" stroke="#888" stroke-width="1.00" />
      <text x="113.83" y="126.00" text-anchor="middle" dominant-baseline="hanging" fill="#333">Backend</text>
      <rect class="subgraph" x="224.66" y="-7.00" width="279.41" height="263.00" fill="none" stroke="#888" stroke-width="1.00" />
      <text x="364.37" y="-3.00" text-anchor="middle" dominant-baseline="hanging" fill="#333">Frontend</text>
    </g>
    <g class="edgePaths">
      <path d="M161.56,87.00 L168.93,91.17 C176.29,95.33 191.02,103.67 212.04,112.00 C233.06,120.33 260.37,128.67 280.03,136.64 C299.68,144.62 311.68,152.24 317.69,156.05 L323.69,159.86" stroke="#333" stroke-width="1.00" fill="none" stroke-linecap="round" stroke-linejoin="round" marker-end="url(#arrowhead)" />
      <path d="M113.83,216.00 L113.83,220.17 C113.83,224.33 113.83,232.67 113.83,241.00 C113.83,249.33 113.83,257.67 113.83,265.33 C113.83,273.00 113.83,280.00 113.83,283.50 L113.83,287.00" stroke="#333" stroke-width="1.00" fill="none" stroke-linecap="round" stroke-linejoin="round" marker-end="url(#arrowhead)" />
      <path d="M224.66,116.51 L211.52,115.76 C198.37,115.01 172.08,113.50 158.70,113.77 C145.33,114.03 144.87,116.07 144.64,117.08 L144.41,118.10" stroke="#333" stroke-width="1.00" fill="none" stroke-linecap="round" stroke-linejoin="round" marker-end="url(#arrowhead)" />
    </g>
    <g class="edgeLabels">
    </g>
    <g class="nodes">
      <rect x="43.00" y="162.00" width="141.66" height="54.00" fill="white" stroke="#333" stroke-width="1.00" stroke-linejoin="round" />
      <text x="113.83" y="189.00" text-anchor="middle" dominant-baseline="middle" fill="#333">API Server</text>
      <rect x="50.80" y="291.00" width="126.07" height="54.00" fill="white" stroke="#333" stroke-width="1.00" stroke-linejoin="round" />
      <text x="113.83" y="318.00" text-anchor="middle" dominant-baseline="middle" fill="#333">Database</text>
      <rect x="285.59" y="162.00" width="168.02" height="54.00" fill="white" stroke="#333" stroke-width="1.00" stroke-linejoin="round" />
      <text x="369.60" y="189.00" text-anchor="middle" dominant-baseline="middle" fill="#333">State Manager</text>
      <rect x="28.89" y="33.00" width="169.88" height="54.00" fill="white" stroke="#333" stroke-width="1.00" stroke-linejoin="round" />
      <text x="113.83" y="60.00" text-anchor="middle" dominant-baseline="middle" fill="#333">User Interface</text>
    </g>
  </g>
</svg>
