<svg xmlns="http://www.w3.org/2000/svg" width="100%" viewBox="0 0 459.00 536.00" style="max-width: 459.00px; background-color: transparent;" font-family="&quot;trebuchet ms&quot;, verdana, arial, sans-serif" font-size="16.00">
  <defs>
    <marker id="arrowhead" viewBox="0 0 10.00 10.00" refX="5.00" refY="5.00" markerWidth="8.00" markerHeight="8.00" orient="auto-start-reverse" markerUnits="userSpaceOnUse">
      <path d="M 0 0 L 10.00 5.00 L 0 10.00 z" fill="#333" />
    </marker>
  </defs>
  <g transform="translate(132.00,0.00)">
    <g class="clusters">
      <rect class="subgraph" x="-124.00" y="228.20" width="443.00" height="79.60" fill="none" stroke="#888" stroke-width="1.00" />
      <text x="97.50" y="232.20" text-anchor="middle" dominant-baseline="hanging" fill="#333">Horizontal Flow</text>
    </g>
    <g class="edgePaths">
      <path d="M97.50,62.00 L97.50,66.17 C97.50,70.33 97.50,78.67 97.50,86.17 C97.50,93.67 97.50,100.33 97.14,104.14 C96.78,107.94 96.05,108.89 95.47,110.32 C94.89,111.75 94.46,113.67 73.14,136.39 C51.83,159.10 9.65,202.62 -11.45,224.37 L-32.54,246.13" stroke="#333" stroke-width="1.00" fill="none" stroke-linecap="round" stroke-linejoin="round" marker-end="url(#arrowhead)" />
      <path d="M-7.00,276.00 L-2.83,276.00 C1.33,276.00 9.67,276.00 17.33,276.00 C25.00,276.00 32.00,276.00 35.50,276.00 L39.00,276.00" stroke="#333" stroke-width="1.00" fill="none" stroke-linecap="round" stroke-linejoin="round" marker-end="url(#arrowhead)" />
      <path d="M152.00,276.00 L156.17,276.00 C160.33,276.00 168.67,276.00 176.33,276.00 C184.00,276.00 191.00,276.00 194.50,276.00 L198.00,276.00" stroke="#333" stroke-width="1.00" fill="none" stroke-linecap="round" stroke-linejoin="round" marker-end="url(#arrowhead)" />
      <path d="M227.49,303.00 L205.83,323.17 C184.16,343.33 140.83,383.67 119.16,408.00 C97.50,432.33 97.50,440.67 97.50,448.33 C97.50,456.00 97.50,463.00 97.50,466.50 L97.50,470.00" stroke="#333" stroke-width="1.00" fill="none" stroke-linecap="round" stroke-linejoin="round" marker-end="url(#arrowhead)" />
    </g>
    <g class="edgeLabels">
    </g>
    <g class="nodes">
      <rect x="-116.00" y="249.00" width="109.00" height="54.00" fill="white" stroke="#333" stroke-width="1.00" stroke-linejoin="round" />
      <text x="-61.50" y="276.00" text-anchor="middle" dominant-baseline="middle" fill="#333">Step 1</text>
      <rect x="43.00" y="249.00" width="109.00" height="54.00" fill="white" stroke="#333" stroke-width="1.00" stroke-linejoin="round" />
      <text x="97.50" y="276.00" text-anchor="middle" dominant-baseline="middle" fill="#333">Step 2</text>
      <rect x="202.00" y="249.00" width="109.00" height="54.00" fill="white" stroke="#333" stroke-width="1.00" stroke-linejoin="round" />
      <text x="256.50" y="276.00" text-anchor="middle" dominant-baseline="middle" fill="#333">Step 3</text>
      <rect x="54.51" y="474.00" width="85.98" height="54.00" fill="white" stroke="#333" stroke-width="1.00" stroke-linejoin="round" />
      <text x="97.50" y="501.00" text-anchor="middle" dominant-baseline="middle" fill="#333">End</text>
      <rect x="49.87" y="8.00" width="95.26" height="54.00" fill="white" stroke="#333" stroke-width="1.00" stroke-linejoin="round" />
      <text x="97.50" y="35.00" text-anchor="middle" dominant-baseline="middle" fill="#333">Start</text>
    </g>
  </g>
</svg>
