<svg xmlns="http://www.w3.org/2000/svg" width="100%" viewBox="0 0 434.33 514.20" style="max-width: 434.33px; background-color: #0d1117;" font-family="&quot;trebuchet ms&quot;, verdana, arial, sans-serif" font-size="16.00">
  <defs>
    <marker id="arrowhead" viewBox="0 0 10.00 10.00" refX="5.00" refY="5.00" markerWidth="8.00" markerHeight="8.00" orient="auto-start-reverse" markerUnits="userSpaceOnUse">
      <path d="M 0 0 L 10.00 5.00 L 0 10.00 z" fill="#e6edf3" />
    </marker>
    <marker id="crosshead" viewBox="0 0 11.00 11.00" refX="12.00" refY="5.20" markerWidth="11.00" markerHeight="11.00" orient="auto-start-reverse" markerUnits="userSpaceOnUse">
      <path d="M 1,1 l 9,9 M 10,1 l -9,9" stroke="#8b949e" stroke-width="2" />
    </marker>
    <marker id="circlehead" viewBox="0 0 10.00 10.00" refX="11.00" refY="5.00" markerWidth="11.00" markerHeight="11.00" orient="auto-start-reverse" markerUnits="userSpaceOnUse">
      <circle cx="5" cy="5" r="5" stroke="#8b949e" stroke-width="1" fill="#e6edf3" />
    </marker>
    <marker id="open-arrowhead" viewBox="0 0 10.00 10.00" refX="5.00" refY="5.00" markerWidth="8.00" markerHeight="8.00" orient="auto-start-reverse" markerUnits="userSpaceOnUse">
      <polygon points="0,0 10.00,5.00 0,10.00" fill="#161b22" stroke="#8b949e" stroke-width="1" />
    </marker>
    <marker id="diamondhead" viewBox="0 0 12.00 12.00" refX="6.00" refY="6.00" markerWidth="12.00" markerHeight="12.00" orient="auto-start-reverse" markerUnits="userSpaceOnUse">
      <polygon points="0,6.00 6.00,0 12.00,6.00 6.00,12.00" fill="#e6edf3" />
    </marker>
    <marker id="open-diamondhead" viewBox="0 0 12.00 12.00" refX="6.00" refY="6.00" markerWidth="12.00" markerHeight="12.00" orient="auto-start-reverse" markerUnits="userSpaceOnUse">
      <polygon points="0,6.00 6.00,0 12.00,6.00 6.00,12.00" fill="#161b22" stroke="#8b949e" stroke-width="1" />
    </marker>
  </defs>
  <g transform="translate(0.00,0.00)">
    <g class="edgePaths">
      <path d="M221.90,62.00 L221.90,108.00" stroke="#8b949e" stroke-width="1.00" fill="none" stroke-linecap="round" stroke-linejoin="round" marker-end="url(#arrowhead)" />
      <path d="M165.29,217.59 L109.82,217.59 Q104.82,217.59 104.82,222.59 L104.82,344.20" stroke="#8b949e" stroke-width="1.00" fill="none" stroke-linecap="round" stroke-linejoin="round" marker-end="url(#arrowhead)" />
      <path d="M278.51,217.59 L333.98,217.59 Q338.98,217.59 338.98,222.59 L338.98,344.20" stroke="#8b949e" stroke-width="1.00" fill="none" stroke-linecap="round" stroke-linejoin="round" marker-end="url(#arrowhead)" />
      <path d="M104.82,402.20 L104.82,406.20 Q104.82,410.20 108.82,410.20 L164.83,410.20 Q169.83,410.20 169.83,415.20 L169.83,448.20" stroke="#8b949e" stroke-width="1.00" fill="none" stroke-linecap="round" stroke-linejoin="round" marker-end="url(#arrowhead)" />
      <path d="M338.98,402.20 L338.98,406.20 Q338.98,410.20 334.98,410.20 L278.97,410.20 Q273.97,410.20 273.97,415.20 L273.97,448.20" stroke="#8b949e" stroke-width="1.00" fill="none" stroke-linecap="round" stroke-linejoin="round" marker-end="url(#arrowhead)" />
    </g>
    <g class="edgeLabels">
      <text x="104.82" y="311.20" text-anchor="middle" dominant-baseline="middle" fill="#e6edf3">yes</text>
      <text x="338.98" y="311.20" text-anchor="middle" dominant-baseline="middle" fill="#e6edf3">no</text>
    </g>
    <g class="nodes">
      <rect x="163.13" y="8.00" width="117.54" height="54.00" fill="#161b22" stroke="#8b949e" stroke-width="1.00" stroke-linejoin="round" />
      <text x="221.90" y="35.00" text-anchor="middle" dominant-baseline="middle" fill="#e6edf3">Request</text>
      <polygon points="221.90,112.00 303.00,193.10 221.90,274.20 140.80,193.10" fill="#161b22" stroke="#8b949e" stroke-width="1.00" stroke-linejoin="round" />
      <text x="221.90" y="193.10" text-anchor="middle" dominant-baseline="middle" fill="#e6edf3">Authenticated?</text>
      <rect x="8.00" y="348.20" width="193.63" height="54.00" fill="#161b22" stroke="#8b949e" stroke-width="1.00" stroke-linejoin="round" />
      <text x="104.82" y="375.20" text-anchor="middle" dominant-baseline="middle" fill="#e6edf3">Serve from cache</text>
      <rect x="251.63" y="348.20" width="174.70" height="54.00" fill="#161b22" stroke="#8b949e" stroke-width="1.00" stroke-linejoin="round" />
      <text x="338.98" y="375.20" text-anchor="middle" dominant-baseline="middle" fill="#e6edf3">Query database</text>
      <rect x="161.83" y="452.20" width="120.13" height="54.00" fill="#161b22" stroke="#8b949e" stroke-width="1.00" stroke-linejoin="round" />
      <text x="221.90" y="479.20" text-anchor="middle" dominant-baseline="middle" fill="#e6edf3">Respond</text>
    </g>
  </g>
</svg>
