<svg xmlns="http://www.w3.org/2000/svg" width="100%" viewBox="0 0 434.33 514.20" style="max-width: 434.33px; background-color: #ffffff;" font-family="&quot;trebuchet ms&quot;, verdana, arial, sans-serif" font-size="16.00">
  <defs>
    <marker id="arrowhead" viewBox="0 0 10.00 10.00" refX="5.00" refY="5.00" markerWidth="8.00" markerHeight="8.00" orient="auto-start-reverse" markerUnits="userSpaceOnUse">
      <path d="M 0 0 L 10.00 5.00 L 0 10.00 z" fill="#333" />
    </marker>
    <marker id="crosshead" viewBox="0 0 11.00 11.00" refX="12.00" refY="5.20" markerWidth="11.00" markerHeight="11.00" orient="auto-start-reverse" markerUnits="userSpaceOnUse">
      <path d="M 1,1 l 9,9 M 10,1 l -9,9" stroke="#333" stroke-width="2" />
    </marker>
    <marker id="circlehead" viewBox="0 0 10.00 10.00" refX="11.00" refY="5.00" markerWidth="11.00" markerHeight="11.00" orient="auto-start-reverse" markerUnits="userSpaceOnUse">
      <circle cx="5" cy="5" r="5" stroke="#333" stroke-width="1" fill="#333" />
    </marker>
    <marker id="open-arrowhead" viewBox="0 0 10.00 10.00" refX="5.00" refY="5.00" markerWidth="8.00" markerHeight="8.00" orient="auto-start-reverse" markerUnits="userSpaceOnUse">
      <polygon points="0,0 10.00,5.00 0,10.00" fill="white" stroke="#333" stroke-width="1" />
    </marker>
    <marker id="diamondhead" viewBox="0 0 12.00 12.00" refX="6.00" refY="6.00" markerWidth="12.00" markerHeight="12.00" orient="auto-start-reverse" markerUnits="userSpaceOnUse">
      <polygon points="0,6.00 6.00,0 12.00,6.00 6.00,12.00" fill="#333" />
    </marker>
    <marker id="open-diamondhead" viewBox="0 0 12.00 12.00" refX="6.00" refY="6.00" markerWidth="12.00" markerHeight="12.00" orient="auto-start-reverse" markerUnits="userSpaceOnUse">
      <polygon points="0,6.00 6.00,0 12.00,6.00 6.00,12.00" fill="white" stroke="#333" stroke-width="1" />
    </marker>
  </defs>
  <g transform="translate(0.00,0.00)">
    <g class="edgePaths">
      <path d="M221.90,62.00 L221.90,108.00" stroke="#333" stroke-width="1.00" fill="none" stroke-linecap="round" stroke-linejoin="round" marker-end="url(#arrowhead)" />
      <path d="M171.13,223.43 L109.82,223.43 Q104.82,223.43 104.82,228.43 L104.82,344.20" stroke="#333" stroke-width="1.00" fill="none" stroke-linecap="round" stroke-linejoin="round" marker-end="url(#arrowhead)" />
      <path d="M272.67,223.43 L333.98,223.43 Q338.98,223.43 338.98,228.43 L338.98,344.20" stroke="#333" stroke-width="1.00" fill="none" stroke-linecap="round" stroke-linejoin="round" marker-end="url(#arrowhead)" />
      <path d="M104.82,402.20 L104.82,412.00 Q104.82,417.00 109.82,417.00 L164.83,417.00 Q169.83,417.00 169.83,422.00 L169.83,448.20" stroke="#333" stroke-width="1.00" fill="none" stroke-linecap="round" stroke-linejoin="round" marker-end="url(#arrowhead)" />
      <path d="M338.98,402.20 L338.98,412.00 Q338.98,417.00 333.98,417.00 L278.97,417.00 Q273.97,417.00 273.97,422.00 L273.97,448.20" stroke="#333" stroke-width="1.00" fill="none" stroke-linecap="round" stroke-linejoin="round" marker-end="url(#arrowhead)" />
    </g>
    <g class="edgeLabels">
      <text x="104.82" y="311.20" text-anchor="middle" dominant-baseline="middle" fill="#333">yes</text>
      <text x="338.98" y="311.20" text-anchor="middle" dominant-baseline="middle" fill="#333">no</text>
    </g>
    <g class="nodes">
      <rect x="163.13" y="8.00" width="117.54" height="54.00" fill="white" stroke="#333" stroke-width="1.00" stroke-linejoin="round" />
      <text x="221.90" y="35.00" text-anchor="middle" dominant-baseline="middle" fill="#333">Request</text>
      <polygon points="221.90,112.00 303.00,193.10 221.90,274.20 140.80,193.10" fill="white" stroke="#333" stroke-width="1.00" stroke-linejoin="round" />
      <text x="221.90" y="193.10" text-anchor="middle" dominant-baseline="middle" fill="#333">Authenticated?</text>
      <rect x="8.00" y="348.20" width="193.63" height="54.00" fill="white" stroke="#333" stroke-width="1.00" stroke-linejoin="round" />
      <text x="104.82" y="375.20" text-anchor="middle" dominant-baseline="middle" fill="#333">Serve from cache</text>
      <rect x="251.63" y="348.20" width="174.70" height="54.00" fill="white" stroke="#333" stroke-width="1.00" stroke-linejoin="round" />
      <text x="338.98" y="375.20" text-anchor="middle" dominant-baseline="middle" fill="#333">Query database</text>
      <rect x="161.83" y="452.20" width="120.13" height="54.00" fill="white" stroke="#333" stroke-width="1.00" stroke-linejoin="round" />
      <text x="221.90" y="479.20" text-anchor="middle" dominant-baseline="middle" fill="#333">Respond</text>
    </g>
  </g>
</svg>
