<svg xmlns="http://www.w3.org/2000/svg" width="100%" viewBox="0 0 408.29 234.88" style="max-width: 408.29px; background-color: transparent;" font-family="&quot;trebuchet ms&quot;, verdana, arial, sans-serif" font-size="16.00">
  <defs>
    <marker id="arrowhead" viewBox="0 0 10.00 10.00" refX="5.00" refY="5.00" markerWidth="8.00" markerHeight="8.00" orient="auto-start-reverse" markerUnits="userSpaceOnUse">
      <path d="M 0 0 L 10.00 5.00 L 0 10.00 z" fill="#333" />
    </marker>
    <marker id="crosshead" viewBox="0 0 11.00 11.00" refX="12.00" refY="5.20" markerWidth="11.00" markerHeight="11.00" orient="auto-start-reverse" markerUnits="userSpaceOnUse">
      <path d="M 1,1 l 9,9 M 10,1 l -9,9" stroke="#333" stroke-width="2" />
    </marker>
    <marker id="circlehead" viewBox="0 0 10.00 10.00" refX="11.00" refY="5.00" markerWidth="11.00" markerHeight="11.00" orient="auto-start-reverse" markerUnits="userSpaceOnUse">
      <circle cx="5" cy="5" r="5" stroke="#333" stroke-width="1" fill="#333" />
    </marker>
    <marker id="open-arrowhead" viewBox="0 0 10.00 10.00" refX="5.00" refY="5.00" markerWidth="8.00" markerHeight="8.00" orient="auto-start-reverse" markerUnits="userSpaceOnUse">
      <polygon points="0,0 10.00,5.00 0,10.00" fill="white" stroke="#333" stroke-width="1" />
    </marker>
    <marker id="diamondhead" viewBox="0 0 12.00 12.00" refX="6.00" refY="6.00" markerWidth="12.00" markerHeight="12.00" orient="auto-start-reverse" markerUnits="userSpaceOnUse">
      <polygon points="0,6.00 6.00,0 12.00,6.00 6.00,12.00" fill="#333" />
    </marker>
    <marker id="open-diamondhead" viewBox="0 0 12.00 12.00" refX="6.00" refY="6.00" markerWidth="12.00" markerHeight="12.00" orient="auto-start-reverse" markerUnits="userSpaceOnUse">
      <polygon points="0,6.00 6.00,0 12.00,6.00 6.00,12.00" fill="white" stroke="#333" stroke-width="1" />
    </marker>
  </defs>
  <g transform="translate(0.00,0.00)">
    <g class="edgePaths">
      <path d="M163.65,86.00 L145.15,96.31 C126.65,106.62 89.66,127.25 71.16,141.06 C52.66,154.88 52.66,161.88 52.66,165.38 L52.66,168.88" stroke="#333" stroke-width="1.00" fill="none" stroke-linecap="round" stroke-linejoin="round" marker-end="url(#arrowhead)" />
      <path d="M200.52,122.88 L200.52,127.04 C200.52,131.21 200.52,139.54 200.52,147.21 C200.52,154.88 200.52,161.88 200.52,165.38 L200.52,168.88" stroke="#333" stroke-width="1.00" fill="none" stroke-linecap="round" stroke-linejoin="round" marker-end="url(#arrowhead)" />
      <path d="M237.72,85.68 L256.77,96.05 C275.82,106.41 313.91,127.14 332.96,141.01 C352.01,154.88 352.01,161.88 352.01,165.38 L352.01,168.88" stroke="#333" stroke-width="1.00" fill="none" stroke-linecap="round" stroke-linejoin="round" marker-end="url(#arrowhead)" />
    </g>
    <g class="edgeLabels">
    </g>
    <g class="nodes">
      <polygon points="200.52,8.00 257.96,65.44 200.52,122.88 143.09,65.44" fill="white" stroke="#333" stroke-width="1.00" stroke-linejoin="round" />
      <text x="200.52" y="65.44" text-anchor="middle" dominant-baseline="middle" fill="#333">Decision</text>
      <rect x="8.00" y="172.88" width="89.32" height="54.00" fill="white" stroke="#333" stroke-width="1.00" stroke-linejoin="round" />
      <text x="52.66" y="199.88" text-anchor="middle" dominant-baseline="middle" fill="#333">Left</text>
      <rect x="147.32" y="172.88" width="106.40" height="54.00" fill="white" stroke="#333" stroke-width="1.00" stroke-linejoin="round" />
      <text x="200.52" y="199.88" text-anchor="middle" dominant-baseline="middle" fill="#333">Center</text>
      <rect x="303.72" y="172.88" width="96.56" height="54.00" fill="white" stroke="#333" stroke-width="1.00" stroke-linejoin="round" />
      <text x="352.01" y="199.88" text-anchor="middle" dominant-baseline="middle" fill="#333">Right</text>
    </g>
  </g>
</svg>
