<svg xmlns="http://www.w3.org/2000/svg" width="100%" viewBox="0 0 473.00 328.00" style="max-width: 473.00px; background-color: transparent;" font-family="&quot;trebuchet ms&quot;, verdana, arial, sans-serif" font-size="16.00">
  <defs>
    <marker id="arrowhead" viewBox="0 0 10.00 10.00" refX="5.00" refY="5.00" markerWidth="8.00" markerHeight="8.00" orient="auto-start-reverse" markerUnits="userSpaceOnUse">
      <path d="M 0 0 L 10.00 5.00 L 0 10.00 z" fill="#333" />
    </marker>
    <marker id="crosshead" viewBox="0 0 11.00 11.00" refX="12.00" refY="5.20" markerWidth="11.00" markerHeight="11.00" orient="auto-start-reverse" markerUnits="userSpaceOnUse">
      <path d="M 1,1 l 9,9 M 10,1 l -9,9" stroke="#333" stroke-width="2" />
    </marker>
    <marker id="circlehead" viewBox="0 0 10.00 10.00" refX="11.00" refY="5.00" markerWidth="11.00" markerHeight="11.00" orient="auto-start-reverse" markerUnits="userSpaceOnUse">
      <circle cx="5" cy="5" r="5" stroke="#333" stroke-width="1" fill="#333" />
    </marker>
    <marker id="open-arrowhead" viewBox="0 0 10.00 10.00" refX="5.00" refY="5.00" markerWidth="8.00" markerHeight="8.00" orient="auto-start-reverse" markerUnits="userSpaceOnUse">
      <polygon points="0,0 10.00,5.00 0,10.00" fill="white" stroke="#333" stroke-width="1" />
    </marker>
    <marker id="diamondhead" viewBox="0 0 12.00 12.00" refX="6.00" refY="6.00" markerWidth="12.00" markerHeight="12.00" orient="auto-start-reverse" markerUnits="userSpaceOnUse">
      <polygon points="0,6.00 6.00,0 12.00,6.00 6.00,12.00" fill="#333" />
    </marker>
    <marker id="open-diamondhead" viewBox="0 0 12.00 12.00" refX="6.00" refY="6.00" markerWidth="12.00" markerHeight="12.00" orient="auto-start-reverse" markerUnits="userSpaceOnUse">
      <polygon points="0,6.00 6.00,0 12.00,6.00 6.00,12.00" fill="white" stroke="#333" stroke-width="1" />
    </marker>
  </defs>
  <g transform="translate(59.50,0.00)">
    <g class="clusters">
      <rect class="subgraph" x="-51.50" y="109.20" width="457.00" height="109.60" fill="none" stroke="#888" stroke-width="1.00" />
      <text x="177.00" y="113.20" text-anchor="middle" dominant-baseline="hanging" fill="#333">Horizontal Section</text>
    </g>
    <g class="edgePaths">
      <path d="M72.50,172.00 L118.50,172.00" stroke="#333" stroke-width="1.00" fill="none" stroke-linecap="round" stroke-linejoin="round" marker-end="url(#arrowhead)" />
      <path d="M231.50,172.00 L277.50,172.00" stroke="#333" stroke-width="1.00" fill="none" stroke-linecap="round" stroke-linejoin="round" marker-end="url(#arrowhead)" />
      <path d="M177.00,62.00 L177.00,68.92 C177.00,75.83 177.00,89.67 150.50,96.58 C124.00,103.50 71.00,103.50 44.50,109.75 C18.00,116.00 18.00,128.50 18.00,134.75 L18.00,141.00" stroke="#333" stroke-width="1.00" fill="none" stroke-linecap="round" stroke-linejoin="round" marker-end="url(#arrowhead)" />
      <path d="M336.00,199.00 L336.00,204.58 C336.00,210.17 336.00,221.33 309.50,226.92 C283.00,232.50 230.00,232.50 203.50,237.42 C177.00,242.33 177.00,252.17 177.00,257.08 L177.00,262.00" stroke="#333" stroke-width="1.00" fill="none" stroke-linecap="round" stroke-linejoin="round" marker-end="url(#arrowhead)" />
    </g>
    <g class="edgeLabels">
    </g>
    <g class="nodes">
      <rect x="-36.50" y="145.00" width="109.00" height="54.00" fill="white" stroke="#333" stroke-width="1.00" stroke-linejoin="round" />
      <text x="18.00" y="172.00" text-anchor="middle" dominant-baseline="middle" fill="#333">Step 1</text>
      <rect x="122.50" y="145.00" width="109.00" height="54.00" fill="white" stroke="#333" stroke-width="1.00" stroke-linejoin="round" />
      <text x="177.00" y="172.00" text-anchor="middle" dominant-baseline="middle" fill="#333">Step 2</text>
      <rect x="281.50" y="145.00" width="109.00" height="54.00" fill="white" stroke="#333" stroke-width="1.00" stroke-linejoin="round" />
      <text x="336.00" y="172.00" text-anchor="middle" dominant-baseline="middle" fill="#333">Step 3</text>
      <rect x="134.01" y="266.00" width="85.98" height="54.00" fill="white" stroke="#333" stroke-width="1.00" stroke-linejoin="round" />
      <text x="177.00" y="293.00" text-anchor="middle" dominant-baseline="middle" fill="#333">End</text>
      <rect x="129.37" y="8.00" width="95.26" height="54.00" fill="white" stroke="#333" stroke-width="1.00" stroke-linejoin="round" />
      <text x="177.00" y="35.00" text-anchor="middle" dominant-baseline="middle" fill="#333">Start</text>
    </g>
  </g>
</svg>
