<svg xmlns="http://www.w3.org/2000/svg" width="100%" viewBox="0 0 241.31 486.00" style="max-width: 241.31px; background-color: transparent;" font-family="&quot;trebuchet ms&quot;, verdana, arial, sans-serif" font-size="16.00">
  <defs>
    <marker id="arrowhead" viewBox="0 0 10.00 10.00" refX="5.00" refY="5.00" markerWidth="8.00" markerHeight="8.00" orient="auto-start-reverse" markerUnits="userSpaceOnUse">
      <path d="M 0 0 L 10.00 5.00 L 0 10.00 z" fill="#333" />
    </marker>
    <marker id="crosshead" viewBox="0 0 11.00 11.00" refX="12.00" refY="5.20" markerWidth="11.00" markerHeight="11.00" orient="auto-start-reverse" markerUnits="userSpaceOnUse">
      <path d="M 1,1 l 9,9 M 10,1 l -9,9" stroke="#333" stroke-width="2" />
    </marker>
    <marker id="circlehead" viewBox="0 0 10.00 10.00" refX="11.00" refY="5.00" markerWidth="11.00" markerHeight="11.00" orient="auto-start-reverse" markerUnits="userSpaceOnUse">
      <circle cx="5" cy="5" r="5" stroke="#333" stroke-width="1" fill="#333" />
    </marker>
    <marker id="open-arrowhead" viewBox="0 0 10.00 10.00" refX="5.00" refY="5.00" markerWidth="8.00" markerHeight="8.00" orient="auto-start-reverse" markerUnits="userSpaceOnUse">
      <polygon points="0,0 10.00,5.00 0,10.00" fill="white" stroke="#333" stroke-width="1" />
    </marker>
    <marker id="diamondhead" viewBox="0 0 12.00 12.00" refX="6.00" refY="6.00" markerWidth="12.00" markerHeight="12.00" orient="auto-start-reverse" markerUnits="userSpaceOnUse">
      <polygon points="0,6.00 6.00,0 12.00,6.00 6.00,12.00" fill="#333" />
    </marker>
    <marker id="open-diamondhead" viewBox="0 0 12.00 12.00" refX="6.00" refY="6.00" markerWidth="12.00" markerHeight="12.00" orient="auto-start-reverse" markerUnits="userSpaceOnUse">
      <polygon points="0,6.00 6.00,0 12.00,6.00 6.00,12.00" fill="white" stroke="#333" stroke-width="1" />
    </marker>
  </defs>
  <g transform="translate(0.00,0.00)">
    <g class="edgePaths">
      <path d="M76.91,35.00 L81.08,35.00 C85.24,35.00 93.58,35.00 108.85,64.54 C124.12,94.09 146.34,153.17 157.44,182.71 L168.55,212.26" stroke="#333" stroke-width="1.00" fill="none" stroke-linecap="round" stroke-linejoin="round" marker-end="url(#arrowhead)" />
      <path d="M76.91,139.00 L81.08,139.00 C85.24,139.00 93.58,139.00 106.99,151.30 C120.41,163.60 138.90,188.20 148.15,200.50 L157.40,212.80" stroke="#333" stroke-width="1.00" fill="none" stroke-linecap="round" stroke-linejoin="round" marker-end="url(#arrowhead)" />
      <path d="M76.91,243.00 L81.08,243.00 C85.24,243.00 93.58,243.00 101.24,243.00 C108.91,243.00 115.91,243.00 119.41,243.00 L122.91,243.00" stroke="#333" stroke-width="1.00" fill="none" stroke-linecap="round" stroke-linejoin="round" marker-end="url(#arrowhead)" />
      <path d="M76.91,347.00 L81.08,347.00 C85.24,347.00 93.58,347.00 106.99,334.70 C120.41,322.40 138.90,297.80 148.15,285.50 L157.40,273.20" stroke="#333" stroke-width="1.00" fill="none" stroke-linecap="round" stroke-linejoin="round" marker-end="url(#arrowhead)" />
      <path d="M76.91,451.00 L81.08,451.00 C85.24,451.00 93.58,451.00 108.85,421.46 C124.12,391.91 146.34,332.83 157.44,303.29 L168.55,273.74" stroke="#333" stroke-width="1.00" fill="none" stroke-linecap="round" stroke-linejoin="round" marker-end="url(#arrowhead)" />
    </g>
    <g class="edgeLabels">
    </g>
    <g class="nodes">
      <rect x="8.00" y="8.00" width="68.91" height="54.00" fill="white" stroke="#333" stroke-width="1.00" stroke-linejoin="round" />
      <text x="42.45" y="35.00" text-anchor="middle" dominant-baseline="middle" fill="#333">A</text>
      <rect x="8.00" y="112.00" width="68.91" height="54.00" fill="white" stroke="#333" stroke-width="1.00" stroke-linejoin="round" />
      <text x="42.45" y="139.00" text-anchor="middle" dominant-baseline="middle" fill="#333">B</text>
      <rect x="8.00" y="216.00" width="68.91" height="54.00" fill="white" stroke="#333" stroke-width="1.00" stroke-linejoin="round" />
      <text x="42.45" y="243.00" text-anchor="middle" dominant-baseline="middle" fill="#333">C</text>
      <rect x="8.00" y="320.00" width="68.91" height="54.00" fill="white" stroke="#333" stroke-width="1.00" stroke-linejoin="round" />
      <text x="42.45" y="347.00" text-anchor="middle" dominant-baseline="middle" fill="#333">D</text>
      <rect x="8.00" y="424.00" width="68.91" height="54.00" fill="white" stroke="#333" stroke-width="1.00" stroke-linejoin="round" />
      <text x="42.45" y="451.00" text-anchor="middle" dominant-baseline="middle" fill="#333">E</text>
      <rect x="126.91" y="216.00" width="106.40" height="54.00" fill="white" stroke="#333" stroke-width="1.00" stroke-linejoin="round" />
      <text x="180.11" y="243.00" text-anchor="middle" dominant-baseline="middle" fill="#333">Target</text>
    </g>
  </g>
</svg>
