<svg xmlns="http://www.w3.org/2000/svg" width="100%" viewBox="0 0 1028.03 1655.78" style="max-width: 1028.03px; background-color: transparent;" font-family="&quot;trebuchet ms&quot;, verdana, arial, sans-serif" font-size="16.00">
  <defs>
    <marker id="arrowhead" viewBox="0 0 10.00 10.00" refX="5.00" refY="5.00" markerWidth="8.00" markerHeight="8.00" orient="auto-start-reverse" markerUnits="userSpaceOnUse">
      <path d="M 0 0 L 10.00 5.00 L 0 10.00 z" fill="#333" />
    </marker>
    <marker id="crosshead" viewBox="0 0 11.00 11.00" refX="12.00" refY="5.20" markerWidth="11.00" markerHeight="11.00" orient="auto-start-reverse" markerUnits="userSpaceOnUse">
      <path d="M 1,1 l 9,9 M 10,1 l -9,9" stroke="#333" stroke-width="2" />
    </marker>
    <marker id="circlehead" viewBox="0 0 10.00 10.00" refX="11.00" refY="5.00" markerWidth="11.00" markerHeight="11.00" orient="auto-start-reverse" markerUnits="userSpaceOnUse">
      <circle cx="5" cy="5" r="5" stroke="#333" stroke-width="1" fill="#333" />
    </marker>
  </defs>
  <g transform="translate(0.00,0.00)">
    <g class="edgePaths">
      <path d="M513.04,73.26 L513.04,77.43 C513.04,81.60 513.04,89.93 513.04,97.60 C513.04,105.26 513.04,112.26 513.04,115.76 L513.04,119.26" stroke="#333" stroke-width="1.00" fill="none" stroke-linecap="round" stroke-linejoin="round" marker-end="url(#arrowhead)" />
      <path d="M461.59,177.26 L453.66,181.43 C445.72,185.60 429.84,193.93 421.90,201.60 C413.96,209.26 413.96,216.26 413.96,219.76 L413.96,223.26" stroke="#333" stroke-width="1.00" fill="none" stroke-linecap="round" stroke-linejoin="round" marker-end="url(#arrowhead)" />
      <path d="M345.75,281.26 L335.22,285.43 C324.69,289.60 303.64,297.93 293.11,306.26 C282.58,314.60 282.58,322.93 282.58,339.43 C282.58,355.93 282.58,380.60 282.95,393.40 C283.31,406.21 284.03,407.15 284.19,408.80 C284.34,410.45 283.93,412.81 285.25,421.99 C286.57,431.17 289.62,447.17 291.15,455.17 L292.68,463.17" stroke="#333" stroke-width="1.00" fill="none" stroke-linecap="round" stroke-linejoin="round" marker-end="url(#arrowhead)" />
      <path d="M268.87,524.67 L246.18,536.24 C223.49,547.80 178.10,570.94 155.41,588.00 C132.72,605.07 132.72,616.07 132.72,621.57 L132.72,627.07" stroke="#333" stroke-width="1.00" fill="none" stroke-linecap="round" stroke-linejoin="round" marker-end="url(#arrowhead)" />
      <path d="M122.12,685.07 L115.01,703.15 C107.90,721.24 93.69,757.41 86.59,783.00 C79.48,808.59 79.48,823.59 79.48,831.09 L79.48,838.59" stroke="#333" stroke-width="1.00" fill="none" stroke-linecap="round" stroke-linejoin="round" stroke-dasharray="2.00,4.00" marker-end="url(#arrowhead)" />
      <path d="M143.33,685.07 L150.44,703.15 C157.54,721.24 171.75,757.41 178.86,783.67 C185.96,809.92 185.96,826.25 185.96,847.59 C185.96,868.92 185.96,895.25 185.96,912.59 C185.96,929.92 185.96,938.25 185.96,955.59 C185.96,972.92 185.96,999.25 185.96,1016.59 C185.96,1033.92 185.96,1042.25 185.96,1059.59 C185.96,1076.92 185.96,1103.25 185.96,1124.59 C185.96,1145.92 185.96,1162.25 185.96,1195.03 C185.96,1227.81 185.96,1277.03 185.96,1309.81 C185.96,1342.59 185.96,1358.92 185.96,1379.42 C185.96,1399.92 185.96,1424.59 186.33,1437.40 C186.69,1450.20 187.41,1451.14 188.24,1452.06 C189.07,1452.98 190.00,1453.88 259.15,1461.48 C328.29,1469.09 465.65,1483.40 534.33,1490.55 L603.01,1497.71" stroke="#333" stroke-width="1.00" fill="none" stroke-linecap="round" stroke-linejoin="round" marker-end="url(#arrowhead)" />
      <path d="M328.93,529.40 L342.97,540.18 C357.01,550.96 385.09,572.51 399.13,588.79 C413.17,605.07 413.17,616.07 413.17,621.57 L413.17,627.07" stroke="#333" stroke-width="1.00" fill="none" stroke-linecap="round" stroke-linejoin="round" marker-end="url(#arrowhead)" />
      <path d="M377.96,733.37 L365.32,745.41 C352.68,757.44 327.41,781.51 314.78,799.05 C302.14,816.59 302.14,827.59 302.14,833.09 L302.14,838.59" stroke="#333" stroke-width="1.00" fill="none" stroke-linecap="round" stroke-linejoin="round" marker-end="url(#arrowhead)" />
      <path d="M447.21,734.55 L458.81,746.39 C470.42,758.23 493.63,781.91 505.24,799.25 C516.84,816.59 516.84,827.59 516.84,833.09 L516.84,838.59" stroke="#333" stroke-width="1.00" fill="none" stroke-linecap="round" stroke-linejoin="round" marker-end="url(#arrowhead)" />
      <path d="M488.02,896.59 L483.57,900.75 C479.12,904.92 470.23,913.25 465.78,920.92 C461.33,928.59 461.33,935.59 461.33,939.09 L461.33,942.59" stroke="#333" stroke-width="1.00" fill="none" stroke-linecap="round" stroke-linejoin="round" marker-end="url(#arrowhead)" />
      <path d="M461.33,1000.59 L461.33,1004.75 C461.33,1008.92 461.33,1017.25 461.33,1024.92 C461.33,1032.59 461.33,1039.59 461.33,1043.09 L461.33,1046.59" stroke="#333" stroke-width="1.00" fill="none" stroke-linecap="round" stroke-linejoin="round" marker-end="url(#arrowhead)" />
      <path d="M461.33,1104.59 L461.33,1108.75 C461.33,1112.92 461.33,1121.25 461.33,1132.92 C461.33,1144.59 461.33,1159.59 461.33,1167.09 L461.33,1174.59" stroke="#333" stroke-width="1.00" fill="none" stroke-linecap="round" stroke-linejoin="round" marker-end="url(#arrowhead)" />
      <path d="M479.45,1283.13 L483.31,1292.32 C487.16,1301.51 494.87,1319.88 503.63,1334.73 C512.40,1349.58 522.22,1360.91 527.14,1366.57 L532.05,1372.24" stroke="#333" stroke-width="1.00" fill="none" stroke-linecap="round" stroke-linejoin="round" marker-end="url(#arrowhead)" />
      <path d="M563.16,1375.26 L564.69,1367.09 C566.23,1358.92 569.29,1342.59 570.83,1309.81 C572.36,1277.03 572.36,1227.81 572.36,1195.03 C572.36,1162.25 572.36,1145.92 572.36,1124.59 C572.36,1103.25 572.36,1076.92 572.36,1059.59 C572.36,1042.25 572.36,1033.92 572.36,1016.59 C572.36,999.25 572.36,972.92 572.36,956.42 C572.36,939.92 572.36,933.25 572.00,929.45 C571.64,925.64 570.91,924.70 570.30,923.30 C569.70,921.89 569.20,920.03 565.60,915.96 C562.00,911.89 555.30,905.60 551.94,902.46 L548.59,899.32" stroke="#333" stroke-width="2.00" fill="none" stroke-linecap="round" stroke-linejoin="round" marker-end="url(#arrowhead)" />
      <path d="M443.88,1283.80 L440.27,1292.88 C436.66,1301.96 429.44,1320.11 416.41,1335.00 C403.37,1349.89 384.53,1361.52 375.11,1367.34 L365.69,1373.16" stroke="#333" stroke-width="1.00" fill="none" stroke-linecap="round" stroke-linejoin="round" marker-end="url(#arrowhead)" />
      <path d="M302.14,896.59 L302.14,900.75 C302.14,904.92 302.14,913.25 302.14,921.59 C302.14,929.92 302.14,938.25 302.14,955.59 C302.14,972.92 302.14,999.25 302.14,1016.59 C302.14,1033.92 302.14,1042.25 302.14,1059.59 C302.14,1076.92 302.14,1103.25 302.14,1124.59 C302.14,1145.92 302.14,1162.25 302.14,1194.20 C302.14,1226.14 302.14,1273.70 302.50,1297.95 C302.87,1322.20 303.59,1323.14 303.77,1324.79 C303.94,1326.44 303.57,1328.79 304.83,1336.67 C306.09,1344.55 308.98,1357.95 310.43,1364.65 L311.87,1371.35" stroke="#333" stroke-width="1.00" fill="none" stroke-linecap="round" stroke-linejoin="round" marker-end="url(#arrowhead)" />
      <path d="M318.55,1429.26 L318.55,1432.59 C318.55,1435.92 318.55,1442.59 318.91,1446.40 C319.27,1450.20 319.99,1451.14 320.82,1452.09 C321.64,1453.04 322.57,1454.00 369.62,1461.09 C416.67,1468.18 509.85,1481.40 556.44,1488.01 L603.03,1494.62" stroke="#333" stroke-width="1.00" fill="none" stroke-linecap="round" stroke-linejoin="round" marker-end="url(#arrowhead)" />
      <path d="M496.58,266.19 L542.86,272.87 C589.15,279.55 681.73,292.90 728.01,303.08 C774.30,313.26 774.30,320.26 774.30,323.76 L774.30,327.26" stroke="#333" stroke-width="1.00" fill="none" stroke-linecap="round" stroke-linejoin="round" marker-end="url(#arrowhead)" />
      <path d="M784.20,385.26 L786.46,391.43 C788.72,397.60 793.24,409.93 795.50,421.60 C797.76,433.26 797.76,444.26 797.76,449.76 L797.76,455.26" stroke="#333" stroke-width="1.00" fill="none" stroke-linecap="round" stroke-linejoin="round" marker-end="url(#arrowhead)" />
      <path d="M797.76,513.26 L797.76,524.73 C797.76,536.20 797.76,559.13 797.76,578.77 C797.76,598.40 797.76,614.73 797.76,649.99 C797.76,685.24 797.76,739.41 797.76,774.67 C797.76,809.92 797.76,826.25 797.76,847.59 C797.76,868.92 797.76,895.25 797.76,912.59 C797.76,929.92 797.76,938.25 797.76,955.59 C797.76,972.92 797.76,999.25 797.76,1016.59 C797.76,1033.92 797.76,1042.25 797.76,1059.59 C797.76,1076.92 797.76,1103.25 797.76,1124.59 C797.76,1145.92 797.76,1162.25 797.76,1195.03 C797.76,1227.81 797.76,1277.03 797.76,1309.81 C797.76,1342.59 797.76,1358.92 797.76,1379.42 C797.76,1399.92 797.76,1424.59 797.40,1437.40 C797.03,1450.20 796.31,1451.14 795.55,1452.33 C794.80,1453.51 794.01,1454.93 785.94,1459.18 C777.88,1463.43 762.54,1470.51 754.88,1474.04 L747.21,1477.58" stroke="#333" stroke-width="1.00" fill="none" stroke-linecap="round" stroke-linejoin="round" marker-end="url(#arrowhead)" />
      <path d="M726.76,385.26 L715.90,391.43 C705.04,397.60 683.32,409.93 619.63,428.69 C555.95,447.45 450.29,472.64 397.47,485.23 L344.64,497.82" stroke="#333" stroke-width="1.00" fill="none" stroke-linecap="round" stroke-linejoin="round" marker-end="url(#arrowhead)" />
      <path d="M600.58,160.58 L659.56,167.52 C718.55,174.47 836.52,188.37 895.50,198.82 C954.49,209.26 954.49,216.26 954.49,219.76 L954.49,223.26" stroke="#333" stroke-width="1.00" fill="none" stroke-linecap="round" stroke-linejoin="round" marker-end="url(#arrowhead)" />
      <path d="M954.49,281.26 L954.49,285.43 C954.49,289.60 954.49,297.93 954.49,306.26 C954.49,314.60 954.49,322.93 954.49,340.26 C954.49,357.60 954.49,383.93 954.49,405.26 C954.49,426.60 954.49,442.93 954.49,471.56 C954.49,500.20 954.49,541.13 954.49,569.77 C954.49,598.40 954.49,614.73 954.49,649.99 C954.49,685.24 954.49,739.41 954.49,774.67 C954.49,809.92 954.49,826.25 954.49,847.59 C954.49,868.92 954.49,895.25 954.49,912.59 C954.49,929.92 954.49,938.25 954.49,955.59 C954.49,972.92 954.49,999.25 954.49,1016.59 C954.49,1033.92 954.49,1042.25 954.49,1059.59 C954.49,1076.92 954.49,1103.25 954.49,1124.59 C954.49,1145.92 954.49,1162.25 954.49,1195.03 C954.49,1227.81 954.49,1277.03 954.49,1309.81 C954.49,1342.59 954.49,1358.92 954.49,1379.42 C954.49,1399.92 954.49,1424.59 954.12,1437.40 C953.76,1450.20 953.04,1451.14 952.22,1452.13 C951.40,1453.13 950.49,1454.17 919.61,1460.56 C888.74,1466.95 827.90,1478.69 797.48,1484.56 L767.06,1490.43" stroke="#333" stroke-width="1.00" fill="none" stroke-linecap="round" stroke-linejoin="round" marker-end="url(#arrowhead)" />
      <path d="M537.36,1099.33 L561.98,1106.38 C586.59,1113.42 635.83,1127.50 660.44,1140.04 C685.06,1152.59 685.06,1163.59 685.06,1169.09 L685.06,1174.59" stroke="#333" stroke-width="1.00" fill="none" stroke-linecap="round" stroke-linejoin="round" marker-end="url(#arrowhead)" />
      <path d="M685.06,1232.59 L685.06,1248.20 C685.06,1263.81 685.06,1295.03 685.06,1318.81 C685.06,1342.59 685.06,1358.92 685.06,1380.26 C685.06,1401.59 685.06,1427.92 685.06,1444.59 C685.06,1461.26 685.06,1468.26 685.06,1471.76 L685.06,1475.26" stroke="#333" stroke-width="1.00" fill="none" stroke-linecap="round" stroke-linejoin="round" stroke-dasharray="2.00,4.00" marker-end="url(#arrowhead)" />
      <path d="M685.06,1533.26 L685.06,1537.42 C685.06,1541.59 685.06,1549.92 685.06,1557.59 C685.06,1565.26 685.06,1572.26 685.06,1575.76 L685.06,1579.26" stroke="#333" stroke-width="1.00" fill="none" stroke-linecap="round" stroke-linejoin="round" marker-end="url(#arrowhead)" />
    </g>
    <g class="edgeLabels">
      <text x="132.72" y="594.07" text-anchor="middle" dominant-baseline="middle" fill="#333">no</text>
      <text x="413.17" y="594.07" text-anchor="middle" dominant-baseline="middle" fill="#333">yes</text>
      <text x="302.14" y="805.59" text-anchor="middle" dominant-baseline="middle" fill="#333">sync</text>
      <text x="516.84" y="805.59" text-anchor="middle" dominant-baseline="middle" fill="#333">async</text>
      <text x="502.58" y="1338.26" text-anchor="middle" dominant-baseline="middle" fill="#333">no</text>
      <text x="422.22" y="1338.26" text-anchor="middle" dominant-baseline="middle" fill="#333">yes</text>
      <text x="797.76" y="422.26" text-anchor="middle" dominant-baseline="middle" fill="#333">hit</text>
      <text x="661.60" y="422.26" text-anchor="middle" dominant-baseline="middle" fill="#333">miss</text>
      <text x="685.06" y="1141.59" text-anchor="middle" dominant-baseline="middle" fill="#333">warn</text>
    </g>
    <g class="nodes">
      <ellipse cx="685.06" cy="1615.52" rx="32.26" ry="32.26" fill="white" stroke="#333" stroke-width="1.00" stroke-linejoin="round" />
      <text x="685.06" y="1615.52" text-anchor="middle" dominant-baseline="middle" fill="#333">Done</text>
      <rect x="607.36" y="1178.59" width="155.40" height="54.00" fill="white" stroke="#333" stroke-width="1.00" stroke-linejoin="round" />
      <text x="685.06" y="1205.59" text-anchor="middle" dominant-baseline="middle" fill="#333">Page On-call</text>
      <rect x="888.94" y="227.26" width="131.08" height="54.00" fill="white" stroke="#333" stroke-width="1.00" stroke-linejoin="round" />
      <text x="954.49" y="254.26" text-anchor="middle" dominant-baseline="middle" fill="#333">Audit Log</text>
      <rect x="692.70" y="331.26" width="163.19" height="54.00" fill="white" stroke="#333" stroke-width="1.00" stroke-linejoin="round" />
      <text x="774.30" y="358.26" text-anchor="middle" dominant-baseline="middle" fill="#333">Lookup Cache</text>
      <rect x="717.46" y="459.26" width="160.60" height="54.00" fill="white" stroke="#333" stroke-width="1.00" stroke-linejoin="round" />
      <text x="797.76" y="486.26" text-anchor="middle" dominant-baseline="middle" fill="#333">Serve Cached</text>
      <rect x="425.50" y="123.26" width="175.07" height="54.00" fill="white" stroke="#333" stroke-width="1.00" stroke-linejoin="round" />
      <text x="513.04" y="150.26" text-anchor="middle" dominant-baseline="middle" fill="#333">Ingest Request</text>
      <rect x="606.99" y="1479.26" width="156.14" height="54.00" fill="white" stroke="#333" stroke-width="1.00" stroke-linejoin="round" />
      <text x="685.06" y="1506.26" text-anchor="middle" dominant-baseline="middle" fill="#333">Emit Metrics</text>
      <rect x="8.00" y="842.59" width="142.96" height="54.00" fill="white" stroke="#333" stroke-width="1.00" stroke-linejoin="round" />
      <text x="79.48" y="869.59" text-anchor="middle" dominant-baseline="middle" fill="#333">Notify User</text>
      <rect x="331.34" y="227.26" width="165.24" height="54.00" fill="white" stroke="#333" stroke-width="1.00" stroke-linejoin="round" />
      <text x="413.96" y="254.26" text-anchor="middle" dominant-baseline="middle" fill="#333">Parse Payload</text>
      <rect x="236.21" y="1375.26" width="164.68" height="54.00" fill="white" stroke="#333" stroke-width="1.00" stroke-linejoin="round" />
      <text x="318.55" y="1402.26" text-anchor="middle" dominant-baseline="middle" fill="#333">Persist Result</text>
      <rect x="385.30" y="1050.59" width="152.06" height="54.00" fill="white" stroke="#333" stroke-width="1.00" stroke-linejoin="round" />
      <text x="461.33" y="1077.59" text-anchor="middle" dominant-baseline="middle" fill="#333">Process Job</text>
      <rect x="439.52" y="842.59" width="154.66" height="54.00" fill="white" stroke="#333" stroke-width="1.00" stroke-linejoin="round" />
      <text x="516.84" y="869.59" text-anchor="middle" dominant-baseline="middle" fill="#333">Enqueue Job</text>
      <rect x="79.52" y="631.07" width="106.40" height="54.00" fill="white" stroke="#333" stroke-width="1.00" stroke-linejoin="round" />
      <text x="132.72" y="658.07" text-anchor="middle" dominant-baseline="middle" fill="#333">Reject</text>
      <rect x="509.16" y="1375.26" width="97.86" height="54.00" fill="white" stroke="#333" stroke-width="1.00" stroke-linejoin="round" />
      <text x="558.09" y="1402.26" text-anchor="middle" dominant-baseline="middle" fill="#333">Retry</text>
      <polygon points="413.17,631.07 481.93,699.83 413.17,768.59 344.41,699.83" fill="white" stroke="#333" stroke-width="1.00" stroke-linejoin="round" />
      <text x="413.17" y="699.83" text-anchor="middle" dominant-baseline="middle" fill="#333">Route Type</text>
      <ellipse cx="513.04" cy="40.63" rx="32.63" ry="32.63" fill="white" stroke="#333" stroke-width="1.00" stroke-linejoin="round" />
      <text x="513.04" y="40.63" text-anchor="middle" dominant-baseline="middle" fill="#333">Start</text>
      <polygon points="461.33,1178.59 522.67,1239.92 461.33,1301.26 399.99,1239.92" fill="white" stroke="#333" stroke-width="1.00" stroke-linejoin="round" />
      <text x="461.33" y="1239.92" text-anchor="middle" dominant-baseline="middle" fill="#333">Success?</text>
      <rect x="222.12" y="842.59" width="160.04" height="54.00" fill="white" stroke="#333" stroke-width="1.00" stroke-linejoin="round" />
      <text x="302.14" y="869.59" text-anchor="middle" dominant-baseline="middle" fill="#333">Sync Pipeline</text>
      <polygon points="301.26,459.26 350.16,508.16 301.26,557.07 252.36,508.16" fill="white" stroke="#333" stroke-width="1.00" stroke-linejoin="round" />
      <text x="301.26" y="508.16" text-anchor="middle" dominant-baseline="middle" fill="#333">Valid?</text>
      <rect x="386.51" y="946.59" width="149.64" height="54.00" fill="white" stroke="#333" stroke-width="1.00" stroke-linejoin="round" />
      <text x="461.33" y="973.59" text-anchor="middle" dominant-baseline="middle" fill="#333">Worker Pool</text>
    </g>
  </g>
</svg>
