<svg xmlns="http://www.w3.org/2000/svg" width="100%" viewBox="0 0 633.36 462.60" style="max-width: 633.36px; background-color: transparent;" font-family="&quot;trebuchet ms&quot;, verdana, arial, sans-serif" font-size="16.00">
  <defs>
    <marker id="arrowhead" viewBox="0 0 10.00 10.00" refX="5.00" refY="5.00" markerWidth="8.00" markerHeight="8.00" orient="auto-start-reverse" markerUnits="userSpaceOnUse">
      <path d="M 0 0 L 10.00 5.00 L 0 10.00 z" fill="#333" />
    </marker>
    <marker id="crosshead" viewBox="0 0 11.00 11.00" refX="12.00" refY="5.20" markerWidth="11.00" markerHeight="11.00" orient="auto-start-reverse" markerUnits="userSpaceOnUse">
      <path d="M 1,1 l 9,9 M 10,1 l -9,9" stroke="#333" stroke-width="2" />
    </marker>
    <marker id="circlehead" viewBox="0 0 10.00 10.00" refX="11.00" refY="5.00" markerWidth="11.00" markerHeight="11.00" orient="auto-start-reverse" markerUnits="userSpaceOnUse">
      <circle cx="5" cy="5" r="5" stroke="#333" stroke-width="1" fill="#333" />
    </marker>
    <marker id="open-arrowhead" viewBox="0 0 10.00 10.00" refX="5.00" refY="5.00" markerWidth="8.00" markerHeight="8.00" orient="auto-start-reverse" markerUnits="userSpaceOnUse">
      <polygon points="0,0 10.00,5.00 0,10.00" fill="white" stroke="#333" stroke-width="1" />
    </marker>
    <marker id="diamondhead" viewBox="0 0 12.00 12.00" refX="6.00" refY="6.00" markerWidth="12.00" markerHeight="12.00" orient="auto-start-reverse" markerUnits="userSpaceOnUse">
      <polygon points="0,6.00 6.00,0 12.00,6.00 6.00,12.00" fill="#333" />
    </marker>
    <marker id="open-diamondhead" viewBox="0 0 12.00 12.00" refX="6.00" refY="6.00" markerWidth="12.00" markerHeight="12.00" orient="auto-start-reverse" markerUnits="userSpaceOnUse">
      <polygon points="0,6.00 6.00,0 12.00,6.00 6.00,12.00" fill="white" stroke="#333" stroke-width="1" />
    </marker>
  </defs>
  <g transform="translate(-24.68,2.80)">
    <g class="clusters">
      <rect class="subgraph" x="32.68" y="5.20" width="335.61" height="109.60" fill="none" stroke="#888" stroke-width="1.00" />
      <text x="200.48" y="9.20" text-anchor="middle" dominant-baseline="hanging" fill="#333">a</text>
      <rect class="subgraph" x="432.96" y="342.20" width="217.08" height="109.60" fill="none" stroke="#888" stroke-width="1.00" />
      <text x="541.50" y="346.20" text-anchor="middle" dominant-baseline="hanging" fill="#333">g</text>
    </g>
    <g class="edgePaths">
      <path d="M81.94,95.00 L81.94,100.58 C81.94,106.17 81.94,117.33 81.16,122.92 C80.39,128.50 78.83,128.50 78.05,133.42 C77.27,138.33 77.27,148.17 77.27,153.08 L77.27,158.00" stroke="#333" stroke-width="1.00" fill="none" stroke-linecap="round" stroke-linejoin="round" marker-end="url(#arrowhead)" />
      <path d="M72.08,216.00 L71.28,220.17 C70.47,224.33 68.87,232.67 68.07,240.33 C67.27,248.00 67.27,255.00 67.27,258.50 L67.27,262.00" stroke="#333" stroke-width="1.00" fill="none" stroke-linecap="round" stroke-linejoin="round" marker-end="url(#arrowhead)" />
      <path d="M111.54,197.93 L139.10,205.10 C166.67,212.28 221.80,226.64 276.61,240.89 C331.41,255.15 385.90,269.29 413.15,276.36 L440.39,283.44" stroke="#333" stroke-width="1.00" fill="none" stroke-linecap="round" stroke-linejoin="round" marker-end="url(#arrowhead)" />
      <path d="M200.48,95.00 L200.48,109.25 C200.48,123.50 200.48,152.00 246.61,166.25 C292.73,180.50 384.98,180.50 431.11,194.08 C477.23,207.67 477.23,234.83 477.23,248.42 L477.23,262.00" stroke="#333" stroke-width="1.00" fill="none" stroke-linecap="round" stroke-linejoin="round" marker-end="url(#arrowhead)" />
      <path d="M319.02,95.00 L319.02,100.58 C319.02,106.17 319.02,117.33 319.80,122.92 C320.58,128.50 322.14,128.50 322.92,133.42 C323.69,138.33 323.69,148.17 323.69,153.08 L323.69,158.00" stroke="#333" stroke-width="1.00" fill="none" stroke-linecap="round" stroke-linejoin="round" marker-end="url(#arrowhead)" />
      <path d="M357.96,201.63 L375.76,208.20 C393.55,214.76 429.14,227.88 464.11,240.77 C499.07,253.66 533.41,266.32 550.58,272.65 L567.75,278.98" stroke="#333" stroke-width="1.00" fill="none" stroke-linecap="round" stroke-linejoin="round" marker-end="url(#arrowhead)" />
      <path d="M460.75,320.00 L460.75,324.83 C460.75,329.67 460.75,339.33 464.33,344.17 C467.91,349.00 475.07,349.00 478.65,353.17 C482.23,357.33 482.23,365.67 482.23,369.83 L482.23,374.00" stroke="#333" stroke-width="1.00" fill="none" stroke-linecap="round" stroke-linejoin="round" marker-end="url(#arrowhead)" />
      <path d="M493.72,320.00 L493.72,324.83 C493.72,329.67 493.72,339.33 508.70,344.17 C523.69,349.00 553.66,349.00 568.65,353.17 C583.64,357.33 583.64,365.67 583.64,369.83 L583.64,374.00" stroke="#333" stroke-width="1.00" fill="none" stroke-linecap="round" stroke-linejoin="round" marker-end="url(#arrowhead)" />
      <path d="M605.77,320.00 L605.77,324.83 C605.77,329.67 605.77,339.33 607.79,344.17 C609.81,349.00 613.86,349.00 615.88,353.17 C617.90,357.33 617.90,365.67 617.90,369.83 L617.90,374.00" stroke="#333" stroke-width="1.00" fill="none" stroke-linecap="round" stroke-linejoin="round" marker-end="url(#arrowhead)" />
    </g>
    <g class="edgeLabels">
    </g>
    <g class="nodes">
      <rect x="47.68" y="41.00" width="68.54" height="54.00" fill="white" stroke="#333" stroke-width="1.00" stroke-linejoin="round" />
      <text x="81.94" y="68.00" text-anchor="middle" dominant-baseline="middle" fill="#333">b</text>
      <rect x="284.75" y="41.00" width="68.54" height="54.00" fill="white" stroke="#333" stroke-width="1.00" stroke-linejoin="round" />
      <text x="319.02" y="68.00" text-anchor="middle" dominant-baseline="middle" fill="#333">c</text>
      <rect x="166.21" y="41.00" width="68.54" height="54.00" fill="white" stroke="#333" stroke-width="1.00" stroke-linejoin="round" />
      <text x="200.48" y="68.00" text-anchor="middle" dominant-baseline="middle" fill="#333">u</text>
      <rect x="43.00" y="162.00" width="68.54" height="54.00" fill="white" stroke="#333" stroke-width="1.00" stroke-linejoin="round" />
      <text x="77.27" y="189.00" text-anchor="middle" dominant-baseline="middle" fill="#333">b</text>
      <rect x="289.43" y="162.00" width="68.54" height="54.00" fill="white" stroke="#333" stroke-width="1.00" stroke-linejoin="round" />
      <text x="323.69" y="189.00" text-anchor="middle" dominant-baseline="middle" fill="#333">c</text>
      <rect x="33.00" y="266.00" width="68.54" height="54.00" fill="white" stroke="#333" stroke-width="1.00" stroke-linejoin="round" />
      <text x="67.27" y="293.00" text-anchor="middle" dominant-baseline="middle" fill="#333">d</text>
      <rect x="571.50" y="266.00" width="68.54" height="54.00" fill="white" stroke="#333" stroke-width="1.00" stroke-linejoin="round" />
      <text x="605.77" y="293.00" text-anchor="middle" dominant-baseline="middle" fill="#333">e</text>
      <rect x="444.26" y="266.00" width="65.94" height="54.00" fill="white" stroke="#333" stroke-width="1.00" stroke-linejoin="round" />
      <text x="477.23" y="293.00" text-anchor="middle" dominant-baseline="middle" fill="#333">f</text>
      <rect x="566.50" y="378.00" width="68.54" height="54.00" fill="white" stroke="#333" stroke-width="1.00" stroke-linejoin="round" />
      <text x="600.77" y="405.00" text-anchor="middle" dominant-baseline="middle" fill="#333">a</text>
      <rect x="447.96" y="378.00" width="68.54" height="54.00" fill="white" stroke="#333" stroke-width="1.00" stroke-linejoin="round" />
      <text x="482.23" y="405.00" text-anchor="middle" dominant-baseline="middle" fill="#333">b</text>
    </g>
  </g>
</svg>
