<svg xmlns="http://www.w3.org/2000/svg" width="100%" viewBox="0 0 159.84 278.00" style="max-width: 159.84px; background-color: transparent;" font-family="&quot;trebuchet ms&quot;, verdana, arial, sans-serif" font-size="16.00">
  <defs>
    <marker id="arrowhead" viewBox="0 0 10.00 10.00" refX="5.00" refY="5.00" markerWidth="8.00" markerHeight="8.00" orient="auto-start-reverse" markerUnits="userSpaceOnUse">
      <path d="M 0 0 L 10.00 5.00 L 0 10.00 z" fill="#333" />
    </marker>
    <marker id="crosshead" viewBox="0 0 11.00 11.00" refX="12.00" refY="5.20" markerWidth="11.00" markerHeight="11.00" orient="auto-start-reverse" markerUnits="userSpaceOnUse">
      <path d="M 1,1 l 9,9 M 10,1 l -9,9" stroke="#333" stroke-width="2" />
    </marker>
    <marker id="circlehead" viewBox="0 0 10.00 10.00" refX="11.00" refY="5.00" markerWidth="11.00" markerHeight="11.00" orient="auto-start-reverse" markerUnits="userSpaceOnUse">
      <circle cx="5" cy="5" r="5" stroke="#333" stroke-width="1" fill="#333" />
    </marker>
    <marker id="open-arrowhead" viewBox="0 0 10.00 10.00" refX="5.00" refY="5.00" markerWidth="8.00" markerHeight="8.00" orient="auto-start-reverse" markerUnits="userSpaceOnUse">
      <polygon points="0,0 10.00,5.00 0,10.00" fill="white" stroke="#333" stroke-width="1" />
    </marker>
    <marker id="diamondhead" viewBox="0 0 12.00 12.00" refX="6.00" refY="6.00" markerWidth="12.00" markerHeight="12.00" orient="auto-start-reverse" markerUnits="userSpaceOnUse">
      <polygon points="0,6.00 6.00,0 12.00,6.00 6.00,12.00" fill="#333" />
    </marker>
    <marker id="open-diamondhead" viewBox="0 0 12.00 12.00" refX="6.00" refY="6.00" markerWidth="12.00" markerHeight="12.00" orient="auto-start-reverse" markerUnits="userSpaceOnUse">
      <polygon points="0,6.00 6.00,0 12.00,6.00 6.00,12.00" fill="white" stroke="#333" stroke-width="1" />
    </marker>
  </defs>
  <g transform="translate(0.00,0.00)">
    <g class="edgePaths">
      <path d="M83.32,62.00 L79.76,66.17 C76.20,70.33 69.07,78.67 65.51,86.33 C61.94,94.00 61.94,101.00 61.94,104.50 L61.94,108.00" stroke="#333" stroke-width="1.00" fill="none" stroke-linecap="round" stroke-linejoin="round" marker-end="url(#arrowhead)" />
      <path d="M56.75,166.00 L55.95,170.17 C55.15,174.33 53.54,182.67 55.87,190.49 C58.20,198.32 64.46,205.64 67.59,209.30 L70.72,212.96" stroke="#333" stroke-width="1.00" fill="none" stroke-linecap="round" stroke-linejoin="round" marker-end="url(#arrowhead)" />
      <path d="M124.70,216.00 L124.70,211.83 C124.70,207.67 124.70,199.33 129.06,195.17 C133.43,191.00 142.16,191.00 146.52,177.83 C150.88,164.67 150.88,138.33 150.88,121.00 C150.88,103.67 150.88,95.33 147.32,91.17 C143.76,87.00 136.63,87.00 133.07,82.83 C129.50,78.67 129.50,70.33 129.50,66.17 L129.50,62.00" stroke="#333" stroke-width="1.00" fill="none" stroke-linecap="round" stroke-linejoin="round" marker-end="url(#arrowhead)" />
      <path d="M96.41,216.00 L96.41,211.83 C96.41,207.67 96.41,199.33 93.65,195.17 C90.89,191.00 85.37,191.00 82.60,186.83 C79.84,182.67 79.84,174.33 79.84,170.17 L79.84,166.00" stroke="#333" stroke-width="1.00" fill="none" stroke-linecap="round" stroke-linejoin="round" marker-end="url(#arrowhead)" />
    </g>
    <g class="edgeLabels">
    </g>
    <g class="nodes">
      <rect x="63.42" y="8.00" width="85.98" height="54.00" fill="white" stroke="#333" stroke-width="1.00" stroke-linejoin="round" />
      <text x="106.41" y="35.00" text-anchor="middle" dominant-baseline="middle" fill="#333">Top</text>
      <rect x="8.00" y="112.00" width="107.88" height="54.00" fill="white" stroke="#333" stroke-width="1.00" stroke-linejoin="round" />
      <text x="61.94" y="139.00" text-anchor="middle" dominant-baseline="middle" fill="#333">Middle</text>
      <rect x="40.99" y="216.00" width="110.85" height="54.00" fill="white" stroke="#333" stroke-width="1.00" stroke-linejoin="round" />
      <text x="96.41" y="243.00" text-anchor="middle" dominant-baseline="middle" fill="#333">Bottom</text>
    </g>
  </g>
</svg>
