<svg xmlns="http://www.w3.org/2000/svg" width="100%" viewBox="0 0 351.61 478.00" style="max-width: 351.61px; background-color: transparent;" font-family="&quot;trebuchet ms&quot;, verdana, arial, sans-serif" font-size="16.00">
  <defs>
    <marker id="arrowhead" viewBox="0 0 10.00 10.00" refX="5.00" refY="5.00" markerWidth="8.00" markerHeight="8.00" orient="auto-start-reverse" markerUnits="userSpaceOnUse">
      <path d="M 0 0 L 10.00 5.00 L 0 10.00 z" fill="#333" />
    </marker>
    <marker id="crosshead" viewBox="0 0 11.00 11.00" refX="12.00" refY="5.20" markerWidth="11.00" markerHeight="11.00" orient="auto-start-reverse" markerUnits="userSpaceOnUse">
      <path d="M 1,1 l 9,9 M 10,1 l -9,9" stroke="#333" stroke-width="2" />
    </marker>
    <marker id="circlehead" viewBox="0 0 10.00 10.00" refX="11.00" refY="5.00" markerWidth="11.00" markerHeight="11.00" orient="auto-start-reverse" markerUnits="userSpaceOnUse">
      <circle cx="5" cy="5" r="5" stroke="#333" stroke-width="1" fill="#333" />
    </marker>
    <marker id="open-arrowhead" viewBox="0 0 10.00 10.00" refX="5.00" refY="5.00" markerWidth="8.00" markerHeight="8.00" orient="auto-start-reverse" markerUnits="userSpaceOnUse">
      <polygon points="0,0 10.00,5.00 0,10.00" fill="white" stroke="#333" stroke-width="1" />
    </marker>
    <marker id="diamondhead" viewBox="0 0 12.00 12.00" refX="6.00" refY="6.00" markerWidth="12.00" markerHeight="12.00" orient="auto-start-reverse" markerUnits="userSpaceOnUse">
      <polygon points="0,6.00 6.00,0 12.00,6.00 6.00,12.00" fill="#333" />
    </marker>
    <marker id="open-diamondhead" viewBox="0 0 12.00 12.00" refX="6.00" refY="6.00" markerWidth="12.00" markerHeight="12.00" orient="auto-start-reverse" markerUnits="userSpaceOnUse">
      <polygon points="0,6.00 6.00,0 12.00,6.00 6.00,12.00" fill="white" stroke="#333" stroke-width="1" />
    </marker>
  </defs>
  <g transform="translate(-20.00,-27.00)">
    <g class="clusters">
      <rect class="subgraph" x="28.00" y="35.00" width="335.61" height="100.00" fill="none" stroke="#888" stroke-width="1.00" />
      <text x="195.81" y="39.00" text-anchor="middle" dominant-baseline="hanging" fill="#333">a</text>
      <rect class="subgraph" x="146.54" y="397.00" width="217.08" height="100.00" fill="none" stroke="#888" stroke-width="1.00" />
      <text x="255.08" y="401.00" text-anchor="middle" dominant-baseline="hanging" fill="#333">g</text>
    </g>
    <g class="nodes">
      <rect x="43.00" y="66.00" width="68.54" height="54.00" fill="white" stroke="#333" stroke-width="1.00" stroke-linejoin="round" />
      <text x="77.27" y="93.00" text-anchor="middle" dominant-baseline="middle" fill="#333">b</text>
      <rect x="280.08" y="66.00" width="68.54" height="54.00" fill="white" stroke="#333" stroke-width="1.00" stroke-linejoin="round" />
      <text x="314.34" y="93.00" text-anchor="middle" dominant-baseline="middle" fill="#333">c</text>
      <rect x="161.54" y="66.00" width="68.54" height="54.00" fill="white" stroke="#333" stroke-width="1.00" stroke-linejoin="round" />
      <text x="195.81" y="93.00" text-anchor="middle" dominant-baseline="middle" fill="#333">u</text>
      <rect x="43.00" y="212.00" width="68.54" height="54.00" fill="white" stroke="#333" stroke-width="1.00" stroke-linejoin="round" />
      <text x="77.27" y="239.00" text-anchor="middle" dominant-baseline="middle" fill="#333">b</text>
      <rect x="280.08" y="212.00" width="68.54" height="54.00" fill="white" stroke="#333" stroke-width="1.00" stroke-linejoin="round" />
      <text x="314.34" y="239.00" text-anchor="middle" dominant-baseline="middle" fill="#333">c</text>
      <rect x="43.00" y="316.00" width="68.54" height="54.00" fill="white" stroke="#333" stroke-width="1.00" stroke-linejoin="round" />
      <text x="77.27" y="343.00" text-anchor="middle" dominant-baseline="middle" fill="#333">d</text>
      <rect x="280.08" y="316.00" width="68.54" height="54.00" fill="white" stroke="#333" stroke-width="1.00" stroke-linejoin="round" />
      <text x="314.34" y="343.00" text-anchor="middle" dominant-baseline="middle" fill="#333">e</text>
      <rect x="162.84" y="316.00" width="65.94" height="54.00" fill="white" stroke="#333" stroke-width="1.00" stroke-linejoin="round" />
      <text x="195.81" y="343.00" text-anchor="middle" dominant-baseline="middle" fill="#333">f</text>
      <rect x="280.08" y="428.00" width="68.54" height="54.00" fill="white" stroke="#333" stroke-width="1.00" stroke-linejoin="round" />
      <text x="314.34" y="455.00" text-anchor="middle" dominant-baseline="middle" fill="#333">a</text>
      <rect x="161.54" y="428.00" width="68.54" height="54.00" fill="white" stroke="#333" stroke-width="1.00" stroke-linejoin="round" />
      <text x="195.81" y="455.00" text-anchor="middle" dominant-baseline="middle" fill="#333">b</text>
    </g>
    <g class="edgePaths">
      <path d="M77.27,120.00 L77.27,150.67 L77.27,153.22 C77.27,155.78 77.27,160.89 77.27,166.00 C77.27,171.11 77.27,176.22 77.27,178.78 L77.27,181.33 L77.27,208.00" stroke="#333" stroke-width="1.00" fill="none" stroke-linecap="round" stroke-linejoin="round" marker-end="url(#arrowhead)" />
      <path d="M51.00,266.00 L51.00,268.78 C51.00,271.56 51.00,277.11 55.38,282.11 C59.76,287.11 68.51,291.56 72.89,296.44 C77.27,301.33 77.27,306.67 77.27,309.33 L77.27,312.00" stroke="#333" stroke-width="1.00" fill="none" stroke-linecap="round" stroke-linejoin="round" marker-end="url(#arrowhead)" />
      <path d="M103.54,266.00 L103.54,268.78 C103.54,271.56 103.54,277.11 114.75,282.11 C125.97,287.11 148.40,291.56 159.62,296.44 C170.84,301.33 170.84,306.67 170.84,309.33 L170.84,312.00" stroke="#333" stroke-width="1.00" fill="none" stroke-linecap="round" stroke-linejoin="round" marker-end="url(#arrowhead)" />
      <path d="M195.81,120.00 L195.81,185.33 L195.81,190.78 C195.81,196.22 195.81,207.11 195.81,218.00 C195.81,228.89 195.81,239.78 195.81,245.22 L195.81,250.67 L195.81,312.00" stroke="#333" stroke-width="1.00" fill="none" stroke-linecap="round" stroke-linejoin="round" marker-end="url(#arrowhead)" />
      <path d="M314.34,120.00 L314.34,150.67 L314.34,153.22 C314.34,155.78 314.34,160.89 314.34,166.00 C314.34,171.11 314.34,176.22 314.34,178.78 L314.34,181.33 L314.34,208.00" stroke="#333" stroke-width="1.00" fill="none" stroke-linecap="round" stroke-linejoin="round" marker-end="url(#arrowhead)" />
      <path d="M314.34,266.00 L314.34,268.78 C314.34,271.56 314.34,277.11 314.34,282.11 C314.34,287.11 314.34,291.56 314.34,296.44 C314.34,301.33 314.34,306.67 314.34,309.33 L314.34,312.00" stroke="#333" stroke-width="1.00" fill="none" stroke-linecap="round" stroke-linejoin="round" marker-end="url(#arrowhead)" />
      <path d="M170.84,370.00 L170.84,373.22 C170.84,376.44 170.84,382.89 175.00,389.22 C179.16,395.56 187.48,401.78 191.64,407.56 C195.81,413.33 195.81,418.67 195.81,421.33 L195.81,424.00" stroke="#333" stroke-width="1.00" fill="none" stroke-linecap="round" stroke-linejoin="round" marker-end="url(#arrowhead)" />
      <path d="M220.78,370.00 L220.78,373.22 C220.78,376.44 220.78,382.89 231.99,389.22 C243.21,395.56 265.64,401.78 276.86,407.56 C288.08,413.33 288.08,418.67 288.08,421.33 L288.08,424.00" stroke="#333" stroke-width="1.00" fill="none" stroke-linecap="round" stroke-linejoin="round" marker-end="url(#arrowhead)" />
      <path d="M314.34,370.00 L314.34,373.22 C314.34,376.44 314.34,382.89 314.34,389.22 C314.34,395.56 314.34,401.78 314.34,407.56 C314.34,413.33 314.34,418.67 314.34,421.33 L314.34,424.00" stroke="#333" stroke-width="1.00" fill="none" stroke-linecap="round" stroke-linejoin="round" marker-end="url(#arrowhead)" />
    </g>
    <g class="edgeLabels">
    </g>
  </g>
</svg>
