<svg xmlns="http://www.w3.org/2000/svg" width="100%" viewBox="0 0 351.61 453.00" style="max-width: 351.61px; background-color: transparent;" font-family="&quot;trebuchet ms&quot;, verdana, arial, sans-serif" font-size="16.00">
  <defs>
    <marker id="arrowhead" viewBox="0 0 10.00 10.00" refX="5.00" refY="5.00" markerWidth="8.00" markerHeight="8.00" orient="auto-start-reverse" markerUnits="userSpaceOnUse">
      <path d="M 0 0 L 10.00 5.00 L 0 10.00 z" fill="#333" />
    </marker>
    <marker id="crosshead" viewBox="0 0 11.00 11.00" refX="12.00" refY="5.20" markerWidth="11.00" markerHeight="11.00" orient="auto-start-reverse" markerUnits="userSpaceOnUse">
      <path d="M 1,1 l 9,9 M 10,1 l -9,9" stroke="#333" stroke-width="2" />
    </marker>
    <marker id="circlehead" viewBox="0 0 10.00 10.00" refX="11.00" refY="5.00" markerWidth="11.00" markerHeight="11.00" orient="auto-start-reverse" markerUnits="userSpaceOnUse">
      <circle cx="5" cy="5" r="5" stroke="#333" stroke-width="1" fill="#333" />
    </marker>
    <marker id="open-arrowhead" viewBox="0 0 10.00 10.00" refX="5.00" refY="5.00" markerWidth="8.00" markerHeight="8.00" orient="auto-start-reverse" markerUnits="userSpaceOnUse">
      <polygon points="0,0 10.00,5.00 0,10.00" fill="white" stroke="#333" stroke-width="1" />
    </marker>
    <marker id="diamondhead" viewBox="0 0 12.00 12.00" refX="6.00" refY="6.00" markerWidth="12.00" markerHeight="12.00" orient="auto-start-reverse" markerUnits="userSpaceOnUse">
      <polygon points="0,6.00 6.00,0 12.00,6.00 6.00,12.00" fill="#333" />
    </marker>
    <marker id="open-diamondhead" viewBox="0 0 12.00 12.00" refX="6.00" refY="6.00" markerWidth="12.00" markerHeight="12.00" orient="auto-start-reverse" markerUnits="userSpaceOnUse">
      <polygon points="0,6.00 6.00,0 12.00,6.00 6.00,12.00" fill="white" stroke="#333" stroke-width="1" />
    </marker>
  </defs>
  <g transform="translate(-24.68,-2.00)">
    <g class="clusters">
      <rect class="subgraph" x="32.68" y="10.00" width="335.61" height="100.00" fill="none" stroke="#888" stroke-width="1.00" />
      <text x="200.48" y="14.00" text-anchor="middle" dominant-baseline="hanging" fill="#333">a</text>
      <rect class="subgraph" x="150.89" y="347.00" width="217.08" height="100.00" fill="none" stroke="#888" stroke-width="1.00" />
      <text x="259.43" y="351.00" text-anchor="middle" dominant-baseline="hanging" fill="#333">g</text>
    </g>
    <g class="edgePaths">
      <path d="M81.94,95.00 L81.94,98.00 C81.94,101.00 81.94,107.00 81.16,114.54 C80.39,122.08 78.83,131.16 78.05,138.66 C77.27,146.16 77.27,152.08 77.27,155.04 L77.27,158.00" stroke="#333" stroke-width="1.00" fill="none" stroke-linecap="round" stroke-linejoin="round" marker-end="url(#arrowhead)" />
      <path d="M51.00,216.00 L51.00,218.33 C51.00,220.67 51.00,225.33 53.71,230.83 C56.42,236.33 61.85,242.67 64.56,248.00 C67.27,253.33 67.27,257.67 67.27,259.83 L67.27,262.00" stroke="#333" stroke-width="1.00" fill="none" stroke-linecap="round" stroke-linejoin="round" marker-end="url(#arrowhead)" />
      <path d="M103.54,216.00 L103.54,218.33 C103.54,220.67 103.54,225.33 115.53,230.83 C127.53,236.33 151.52,242.67 163.52,248.00 C175.51,253.33 175.51,257.67 175.51,259.83 L175.51,262.00" stroke="#333" stroke-width="1.00" fill="none" stroke-linecap="round" stroke-linejoin="round" marker-end="url(#arrowhead)" />
      <path d="M200.48,95.00 L200.48,262.00" stroke="#333" stroke-width="1.00" fill="none" stroke-linecap="round" stroke-linejoin="round" marker-end="url(#arrowhead)" />
      <path d="M319.02,95.00 L319.02,98.00 C319.02,101.00 319.02,107.00 319.80,114.54 C320.58,122.08 322.14,131.16 322.92,138.66 C323.69,146.16 323.69,152.08 323.69,155.04 L323.69,158.00" stroke="#333" stroke-width="1.00" fill="none" stroke-linecap="round" stroke-linejoin="round" marker-end="url(#arrowhead)" />
      <path d="M323.69,216.00 L323.69,262.00" stroke="#333" stroke-width="1.00" fill="none" stroke-linecap="round" stroke-linejoin="round" marker-end="url(#arrowhead)" />
      <path d="M175.51,320.00 L175.51,322.71 C175.51,325.41 175.51,330.83 179.62,337.29 C183.73,343.75 191.94,351.25 196.05,357.55 C200.16,363.84 200.16,368.92 200.16,371.46 L200.16,374.00" stroke="#333" stroke-width="1.00" fill="none" stroke-linecap="round" stroke-linejoin="round" marker-end="url(#arrowhead)" />
      <path d="M225.45,320.00 L225.45,322.71 C225.45,325.41 225.45,330.83 236.61,337.29 C247.78,343.75 270.10,351.25 281.26,357.55 C292.43,363.84 292.43,368.92 292.43,371.46 L292.43,374.00" stroke="#333" stroke-width="1.00" fill="none" stroke-linecap="round" stroke-linejoin="round" marker-end="url(#arrowhead)" />
      <path d="M323.69,320.00 L323.69,374.00" stroke="#333" stroke-width="1.00" fill="none" stroke-linecap="round" stroke-linejoin="round" marker-end="url(#arrowhead)" />
    </g>
    <g class="edgeLabels">
    </g>
    <g class="nodes">
      <rect x="47.68" y="41.00" width="68.54" height="54.00" fill="white" stroke="#333" stroke-width="1.00" stroke-linejoin="round" />
      <text x="81.94" y="68.00" text-anchor="middle" dominant-baseline="middle" fill="#333">b</text>
      <rect x="284.75" y="41.00" width="68.54" height="54.00" fill="white" stroke="#333" stroke-width="1.00" stroke-linejoin="round" />
      <text x="319.02" y="68.00" text-anchor="middle" dominant-baseline="middle" fill="#333">c</text>
      <rect x="166.21" y="41.00" width="68.54" height="54.00" fill="white" stroke="#333" stroke-width="1.00" stroke-linejoin="round" />
      <text x="200.48" y="68.00" text-anchor="middle" dominant-baseline="middle" fill="#333">u</text>
      <rect x="43.00" y="162.00" width="68.54" height="54.00" fill="white" stroke="#333" stroke-width="1.00" stroke-linejoin="round" />
      <text x="77.27" y="189.00" text-anchor="middle" dominant-baseline="middle" fill="#333">b</text>
      <rect x="289.43" y="162.00" width="68.54" height="54.00" fill="white" stroke="#333" stroke-width="1.00" stroke-linejoin="round" />
      <text x="323.69" y="189.00" text-anchor="middle" dominant-baseline="middle" fill="#333">c</text>
      <rect x="33.00" y="266.00" width="68.54" height="54.00" fill="white" stroke="#333" stroke-width="1.00" stroke-linejoin="round" />
      <text x="67.27" y="293.00" text-anchor="middle" dominant-baseline="middle" fill="#333">d</text>
      <rect x="289.43" y="266.00" width="68.54" height="54.00" fill="white" stroke="#333" stroke-width="1.00" stroke-linejoin="round" />
      <text x="323.69" y="293.00" text-anchor="middle" dominant-baseline="middle" fill="#333">e</text>
      <rect x="167.51" y="266.00" width="65.94" height="54.00" fill="white" stroke="#333" stroke-width="1.00" stroke-linejoin="round" />
      <text x="200.48" y="293.00" text-anchor="middle" dominant-baseline="middle" fill="#333">f</text>
      <rect x="284.43" y="378.00" width="68.54" height="54.00" fill="white" stroke="#333" stroke-width="1.00" stroke-linejoin="round" />
      <text x="318.69" y="405.00" text-anchor="middle" dominant-baseline="middle" fill="#333">a</text>
      <rect x="165.89" y="378.00" width="68.54" height="54.00" fill="white" stroke="#333" stroke-width="1.00" stroke-linejoin="round" />
      <text x="200.16" y="405.00" text-anchor="middle" dominant-baseline="middle" fill="#333">b</text>
    </g>
  </g>
</svg>
