<svg xmlns="http://www.w3.org/2000/svg" width="100%" viewBox="0 0 169.35 348.40" style="max-width: 169.35px; background-color: transparent;" font-family="&quot;trebuchet ms&quot;, verdana, arial, sans-serif" font-size="16.00">
  <defs>
    <marker id="arrowhead" viewBox="0 0 10.00 10.00" refX="5.00" refY="5.00" markerWidth="8.00" markerHeight="8.00" orient="auto-start-reverse" markerUnits="userSpaceOnUse">
      <path d="M 0 0 L 10.00 5.00 L 0 10.00 z" fill="#333" />
    </marker>
    <marker id="crosshead" viewBox="0 0 11.00 11.00" refX="12.00" refY="5.20" markerWidth="11.00" markerHeight="11.00" orient="auto-start-reverse" markerUnits="userSpaceOnUse">
      <path d="M 1,1 l 9,9 M 10,1 l -9,9" stroke="#333" stroke-width="2" />
    </marker>
    <marker id="circlehead" viewBox="0 0 10.00 10.00" refX="11.00" refY="5.00" markerWidth="11.00" markerHeight="11.00" orient="auto-start-reverse" markerUnits="userSpaceOnUse">
      <circle cx="5" cy="5" r="5" stroke="#333" stroke-width="1" fill="#333" />
    </marker>
  </defs>
  <g transform="translate(0.00,0.00)">
    <g class="edgePaths">
      <path d="M58.20,62.00 L58.20,66.17 C58.20,70.33 58.20,78.67 58.20,86.33 C58.20,94.00 58.20,101.00 58.20,104.50 L58.20,108.00" stroke="#333" stroke-width="1.00" fill="none" stroke-linecap="round" stroke-linejoin="round" marker-end="url(#arrowhead)" />
      <path d="M89.86,143.66 L98.86,138.38 C107.87,133.10 125.89,122.55 134.89,133.18 C143.90,143.80 143.90,175.60 143.54,191.97 C143.18,208.34 142.45,209.29 141.73,209.70 C141.01,210.11 140.30,209.99 132.23,205.41 C124.16,200.84 108.73,191.80 101.02,187.28 L93.31,182.77" stroke="#333" stroke-width="1.00" fill="none" stroke-linecap="round" stroke-linejoin="round" marker-end="url(#arrowhead)" />
      <path d="M58.20,212.40 L58.20,218.57 C58.20,224.73 58.20,237.07 58.20,248.73 C58.20,260.40 58.20,271.40 58.20,276.90 L58.20,282.40" stroke="#333" stroke-width="1.00" fill="none" stroke-linecap="round" stroke-linejoin="round" marker-end="url(#arrowhead)" />
    </g>
    <g class="edgeLabels">
      <text x="143.90" y="212.40" text-anchor="middle" dominant-baseline="middle" fill="#333">retry</text>
      <text x="58.20" y="249.40" text-anchor="middle" dominant-baseline="middle" fill="#333">done</text>
    </g>
    <g class="nodes">
      <rect x="10.57" y="8.00" width="95.26" height="54.00" fill="white" stroke="#333" stroke-width="1.00" stroke-linejoin="round" />
      <text x="58.20" y="35.00" text-anchor="middle" dominant-baseline="middle" fill="#333">Start</text>
      <polygon points="58.20,112.00 108.40,162.20 58.20,212.40 8.00,162.20" fill="white" stroke="#333" stroke-width="1.00" stroke-linejoin="round" />
      <text x="58.20" y="162.20" text-anchor="middle" dominant-baseline="middle" fill="#333">Retry?</text>
      <rect x="15.21" y="286.40" width="85.98" height="54.00" fill="white" stroke="#333" stroke-width="1.00" stroke-linejoin="round" />
      <text x="58.20" y="313.40" text-anchor="middle" dominant-baseline="middle" fill="#333">End</text>
    </g>
  </g>
</svg>
