<svg xmlns="http://www.w3.org/2000/svg" width="100%" viewBox="0 0 473.00 328.00" style="max-width: 473.00px; background-color: transparent;" font-family="&quot;trebuchet ms&quot;, verdana, arial, sans-serif" font-size="16.00">
  <defs>
    <marker id="arrowhead" viewBox="0 0 10.00 10.00" refX="5.00" refY="5.00" markerWidth="8.00" markerHeight="8.00" orient="auto-start-reverse" markerUnits="userSpaceOnUse">
      <path d="M 0 0 L 10.00 5.00 L 0 10.00 z" fill="#333" />
    </marker>
    <marker id="crosshead" viewBox="0 0 11.00 11.00" refX="12.00" refY="5.20" markerWidth="11.00" markerHeight="11.00" orient="auto-start-reverse" markerUnits="userSpaceOnUse">
      <path d="M 1,1 l 9,9 M 10,1 l -9,9" stroke="#333" stroke-width="2" />
    </marker>
    <marker id="circlehead" viewBox="0 0 10.00 10.00" refX="11.00" refY="5.00" markerWidth="11.00" markerHeight="11.00" orient="auto-start-reverse" markerUnits="userSpaceOnUse">
      <circle cx="5" cy="5" r="5" stroke="#333" stroke-width="1" fill="#333" />
    </marker>
    <marker id="open-arrowhead" viewBox="0 0 10.00 10.00" refX="5.00" refY="5.00" markerWidth="8.00" markerHeight="8.00" orient="auto-start-reverse" markerUnits="userSpaceOnUse">
      <polygon points="0,0 10.00,5.00 0,10.00" fill="white" stroke="#333" stroke-width="1" />
    </marker>
    <marker id="diamondhead" viewBox="0 0 12.00 12.00" refX="6.00" refY="6.00" markerWidth="12.00" markerHeight="12.00" orient="auto-start-reverse" markerUnits="userSpaceOnUse">
      <polygon points="0,6.00 6.00,0 12.00,6.00 6.00,12.00" fill="#333" />
    </marker>
    <marker id="open-diamondhead" viewBox="0 0 12.00 12.00" refX="6.00" refY="6.00" markerWidth="12.00" markerHeight="12.00" orient="auto-start-reverse" markerUnits="userSpaceOnUse">
      <polygon points="0,6.00 6.00,0 12.00,6.00 6.00,12.00" fill="white" stroke="#333" stroke-width="1" />
    </marker>
  </defs>
  <g transform="translate(42.12,0.00)">
    <g class="clusters">
      <rect class="subgraph" x="-34.12" y="109.20" width="457.00" height="109.60" fill="none" stroke="#888" stroke-width="1.00" />
      <text x="194.37" y="113.20" text-anchor="middle" dominant-baseline="hanging" fill="#333">Horizontal Flow</text>
    </g>
    <g class="edgePaths">
      <path d="M97.50,62.00 L97.50,68.92 C97.50,75.83 97.50,89.67 87.15,96.58 C76.79,103.50 56.08,103.50 45.73,109.75 C35.37,116.00 35.37,128.50 35.37,134.75 L35.37,141.00" stroke="#333" stroke-width="1.00" fill="none" stroke-linecap="round" stroke-linejoin="round" marker-end="url(#arrowhead)" />
      <path d="M89.87,172.00 L135.87,172.00" stroke="#333" stroke-width="1.00" fill="none" stroke-linecap="round" stroke-linejoin="round" marker-end="url(#arrowhead)" />
      <path d="M248.87,172.00 L294.87,172.00" stroke="#333" stroke-width="1.00" fill="none" stroke-linecap="round" stroke-linejoin="round" marker-end="url(#arrowhead)" />
      <path d="M353.37,199.00 L353.37,204.58 C353.37,210.17 353.37,221.33 343.02,226.92 C332.66,232.50 311.96,232.50 301.60,237.42 C291.25,242.33 291.25,252.17 291.25,257.08 L291.25,262.00" stroke="#333" stroke-width="1.00" fill="none" stroke-linecap="round" stroke-linejoin="round" marker-end="url(#arrowhead)" />
    </g>
    <g class="edgeLabels">
    </g>
    <g class="nodes">
      <rect x="-19.12" y="145.00" width="109.00" height="54.00" fill="white" stroke="#333" stroke-width="1.00" stroke-linejoin="round" />
      <text x="35.37" y="172.00" text-anchor="middle" dominant-baseline="middle" fill="#333">Step 1</text>
      <rect x="139.87" y="145.00" width="109.00" height="54.00" fill="white" stroke="#333" stroke-width="1.00" stroke-linejoin="round" />
      <text x="194.37" y="172.00" text-anchor="middle" dominant-baseline="middle" fill="#333">Step 2</text>
      <rect x="298.87" y="145.00" width="109.00" height="54.00" fill="white" stroke="#333" stroke-width="1.00" stroke-linejoin="round" />
      <text x="353.37" y="172.00" text-anchor="middle" dominant-baseline="middle" fill="#333">Step 3</text>
      <rect x="248.26" y="266.00" width="85.98" height="54.00" fill="white" stroke="#333" stroke-width="1.00" stroke-linejoin="round" />
      <text x="291.25" y="293.00" text-anchor="middle" dominant-baseline="middle" fill="#333">End</text>
      <rect x="49.87" y="8.00" width="95.26" height="54.00" fill="white" stroke="#333" stroke-width="1.00" stroke-linejoin="round" />
      <text x="97.50" y="35.00" text-anchor="middle" dominant-baseline="middle" fill="#333">Start</text>
    </g>
  </g>
</svg>
