<svg xmlns="http://www.w3.org/2000/svg" width="100%" viewBox="0 0 471.64 571.40" style="max-width: 471.64px; background-color: transparent;" font-family="&quot;trebuchet ms&quot;, verdana, arial, sans-serif" font-size="16.00">
  <defs>
    <marker id="arrowhead" viewBox="0 0 10.00 10.00" refX="5.00" refY="5.00" markerWidth="8.00" markerHeight="8.00" orient="auto-start-reverse" markerUnits="userSpaceOnUse">
      <path d="M 0 0 L 10.00 5.00 L 0 10.00 z" fill="#333" />
    </marker>
    <marker id="crosshead" viewBox="0 0 11.00 11.00" refX="12.00" refY="5.20" markerWidth="11.00" markerHeight="11.00" orient="auto-start-reverse" markerUnits="userSpaceOnUse">
      <path d="M 1,1 l 9,9 M 10,1 l -9,9" stroke="#333" stroke-width="2" />
    </marker>
    <marker id="circlehead" viewBox="0 0 10.00 10.00" refX="11.00" refY="5.00" markerWidth="11.00" markerHeight="11.00" orient="auto-start-reverse" markerUnits="userSpaceOnUse">
      <circle cx="5" cy="5" r="5" stroke="#333" stroke-width="1" fill="#333" />
    </marker>
    <marker id="open-arrowhead" viewBox="0 0 10.00 10.00" refX="5.00" refY="5.00" markerWidth="8.00" markerHeight="8.00" orient="auto-start-reverse" markerUnits="userSpaceOnUse">
      <polygon points="0,0 10.00,5.00 0,10.00" fill="white" stroke="#333" stroke-width="1" />
    </marker>
    <marker id="diamondhead" viewBox="0 0 12.00 12.00" refX="6.00" refY="6.00" markerWidth="12.00" markerHeight="12.00" orient="auto-start-reverse" markerUnits="userSpaceOnUse">
      <polygon points="0,6.00 6.00,0 12.00,6.00 6.00,12.00" fill="#333" />
    </marker>
    <marker id="open-diamondhead" viewBox="0 0 12.00 12.00" refX="6.00" refY="6.00" markerWidth="12.00" markerHeight="12.00" orient="auto-start-reverse" markerUnits="userSpaceOnUse">
      <polygon points="0,6.00 6.00,0 12.00,6.00 6.00,12.00" fill="white" stroke="#333" stroke-width="1" />
    </marker>
  </defs>
  <g transform="translate(88.91,0.00)">
    <g class="clusters">
      <rect class="subgraph" x="-80.91" y="59.20" width="455.64" height="504.20" fill="none" stroke="#888" stroke-width="1.00" />
      <text x="146.91" y="63.20" text-anchor="middle" dominant-baseline="hanging" fill="#333">Outer LR</text>
      <rect class="subgraph" x="-21.45" y="111.00" width="98.91" height="437.40" fill="none" stroke="#888" stroke-width="1.00" />
      <text x="28.00" y="115.00" text-anchor="middle" dominant-baseline="hanging" fill="#333">Inner BT</text>
    </g>
    <g class="edgePaths">
      <path d="M28.00,230.00 L28.00,184.00" stroke="#333" stroke-width="1.00" fill="none" stroke-linecap="round" stroke-linejoin="round" marker-end="url(#arrowhead)" />
      <path d="M240.82,197.00 L286.82,197.00" stroke="#333" stroke-width="1.00" fill="none" stroke-linecap="round" stroke-linejoin="round" marker-end="url(#arrowhead)" />
      <path d="M146.91,62.00 L146.91,65.00 C146.91,68.00 146.91,74.00 156.82,88.33 C166.73,102.67 186.55,125.33 196.45,139.67 C206.36,154.00 206.36,160.00 206.36,163.00 L206.36,166.00" stroke="#333" stroke-width="1.00" fill="none" stroke-linecap="round" stroke-linejoin="round" marker-end="url(#arrowhead)" />
    </g>
    <g class="edgeLabels">
    </g>
    <g class="nodes">
      <rect x="-6.45" y="230.00" width="68.91" height="54.00" fill="white" stroke="#333" stroke-width="1.00" stroke-linejoin="round" />
      <text x="28.00" y="257.00" text-anchor="middle" dominant-baseline="middle" fill="#333">A</text>
      <rect x="-6.45" y="126.00" width="68.91" height="54.00" fill="white" stroke="#333" stroke-width="1.00" stroke-linejoin="round" />
      <text x="28.00" y="153.00" text-anchor="middle" dominant-baseline="middle" fill="#333">B</text>
      <rect x="171.91" y="170.00" width="68.91" height="54.00" fill="white" stroke="#333" stroke-width="1.00" stroke-linejoin="round" />
      <text x="206.36" y="197.00" text-anchor="middle" dominant-baseline="middle" fill="#333">C</text>
      <rect x="290.82" y="170.00" width="68.91" height="54.00" fill="white" stroke="#333" stroke-width="1.00" stroke-linejoin="round" />
      <text x="325.27" y="197.00" text-anchor="middle" dominant-baseline="middle" fill="#333">D</text>
      <rect x="112.45" y="8.00" width="68.91" height="54.00" fill="white" stroke="#333" stroke-width="1.00" stroke-linejoin="round" />
      <text x="146.91" y="35.00" text-anchor="middle" dominant-baseline="middle" fill="#333">E</text>
    </g>
  </g>
</svg>
