<svg xmlns="http://www.w3.org/2000/svg" width="100%" viewBox="0 0 441.64 174.00" style="max-width: 441.64px; background-color: transparent;" font-family="&quot;trebuchet ms&quot;, verdana, arial, sans-serif" font-size="16.00">
  <defs>
    <marker id="arrowhead" viewBox="0 0 10.00 10.00" refX="5.00" refY="5.00" markerWidth="8.00" markerHeight="8.00" orient="auto-start-reverse" markerUnits="userSpaceOnUse">
      <path d="M 0 0 L 10.00 5.00 L 0 10.00 z" fill="#333" />
    </marker>
    <marker id="crosshead" viewBox="0 0 11.00 11.00" refX="12.00" refY="5.20" markerWidth="11.00" markerHeight="11.00" orient="auto-start-reverse" markerUnits="userSpaceOnUse">
      <path d="M 1,1 l 9,9 M 10,1 l -9,9" stroke="#333" stroke-width="2" />
    </marker>
    <marker id="circlehead" viewBox="0 0 10.00 10.00" refX="11.00" refY="5.00" markerWidth="11.00" markerHeight="11.00" orient="auto-start-reverse" markerUnits="userSpaceOnUse">
      <circle cx="5" cy="5" r="5" stroke="#333" stroke-width="1" fill="#333" />
    </marker>
  </defs>
  <g transform="translate(0.00,0.00)">
    <g class="edgePaths">
      <path d="M42.45,62.00 L42.45,65.33 C42.45,68.67 42.45,75.33 42.82,79.14 C43.18,82.94 43.90,83.89 44.70,84.95 C45.50,86.02 46.38,87.21 69.36,94.38 C92.34,101.54 137.43,114.69 159.98,121.26 L182.52,127.84" stroke="#333" stroke-width="1.00" fill="none" stroke-linecap="round" stroke-linejoin="round" marker-end="url(#arrowhead)" />
      <path d="M161.36,62.00 L161.36,65.33 C161.36,68.67 161.36,75.33 161.73,79.14 C162.09,82.94 162.81,83.89 163.44,85.27 C164.07,86.65 164.60,88.47 168.50,92.56 C172.40,96.65 179.67,103.01 183.30,106.19 L186.94,109.37" stroke="#333" stroke-width="1.00" fill="none" stroke-linecap="round" stroke-linejoin="round" marker-end="url(#arrowhead)" />
      <path d="M280.27,62.00 L280.27,65.33 C280.27,68.67 280.27,75.33 279.91,79.14 C279.55,82.94 278.82,83.89 278.20,85.27 C277.57,86.65 277.04,88.47 273.14,92.56 C269.24,96.65 261.97,103.01 258.33,106.19 L254.70,109.37" stroke="#333" stroke-width="1.00" fill="none" stroke-linecap="round" stroke-linejoin="round" marker-end="url(#arrowhead)" />
      <path d="M399.18,62.00 L399.18,65.33 C399.18,68.67 399.18,75.33 398.82,79.14 C398.46,82.94 397.73,83.89 396.93,84.95 C396.13,86.02 395.26,87.21 372.27,94.38 C349.29,101.54 304.20,114.69 281.66,121.26 L259.11,127.84" stroke="#333" stroke-width="1.00" fill="none" stroke-linecap="round" stroke-linejoin="round" marker-end="url(#arrowhead)" />
    </g>
    <g class="edgeLabels">
    </g>
    <g class="nodes">
      <rect x="8.00" y="8.00" width="68.91" height="54.00" fill="white" stroke="#333" stroke-width="1.00" stroke-linejoin="round" />
      <text x="42.45" y="35.00" text-anchor="middle" dominant-baseline="middle" fill="#333">X</text>
      <rect x="126.91" y="8.00" width="68.91" height="54.00" fill="white" stroke="#333" stroke-width="1.00" stroke-linejoin="round" />
      <text x="161.36" y="35.00" text-anchor="middle" dominant-baseline="middle" fill="#333">X</text>
      <rect x="245.82" y="8.00" width="68.91" height="54.00" fill="white" stroke="#333" stroke-width="1.00" stroke-linejoin="round" />
      <text x="280.27" y="35.00" text-anchor="middle" dominant-baseline="middle" fill="#333">X</text>
      <rect x="364.73" y="8.00" width="68.91" height="54.00" fill="white" stroke="#333" stroke-width="1.00" stroke-linejoin="round" />
      <text x="399.18" y="35.00" text-anchor="middle" dominant-baseline="middle" fill="#333">X</text>
      <rect x="186.36" y="112.00" width="68.91" height="54.00" fill="white" stroke="#333" stroke-width="1.00" stroke-linejoin="round" />
      <text x="220.82" y="139.00" text-anchor="middle" dominant-baseline="middle" fill="#333">Y</text>
    </g>
  </g>
</svg>
